<svg width="189" height="60" viewBox="0 0 189 60" fill="none" xmlns="http://www.w3.org/2000/svg">
<path d="M11.8017 8.91891V10.8108H18.239H24.6763L24.7299 32.7568L24.8104 54.7297L26.7684 54.8108L28.6995 54.8919V30.9459V7.02702H20.2506H11.8017V8.91891Z" fill="black"/>
<path d="M31.9182 30.9459V54.8919L33.8762 54.8108L35.8074 54.7297L35.8878 32.7568L35.9415 10.8108H42.3788H48.816V8.91891V7.02702H40.3671H31.9182V30.9459Z" fill="black"/>
<path d="M13.7597 13.7027L5.63263 13.7838V15.6757V17.5676H11.8017H17.9707V31.0811V44.5946H19.9824H21.994V29.054C21.994 20.5135 21.9672 13.5405 21.9404 13.5676C21.8868 13.6216 18.2121 13.6757 13.7597 13.7027Z" fill="black"/>
<path d="M38.6237 29.1892V44.5946H40.6353H42.647V31.1351L42.6201 17.7027L48.816 17.6216L54.9851 17.5676V15.6757V13.7838H46.8044H38.6237V29.1892Z" fill="black"/>
<path d="M63.0248 5.46875V14H61.1205V5.46875H63.0248ZM65.6205 5.46875V6.95117H58.5775V5.46875H65.6205ZM65.0814 10.8945V10.7715C65.0814 10.3066 65.1478 9.87891 65.2806 9.48828C65.4135 9.09375 65.6088 8.75195 65.8666 8.46289C66.1244 8.17383 66.4408 7.94922 66.8158 7.78906C67.1908 7.625 67.6205 7.54297 68.1049 7.54297C68.597 7.54297 69.0306 7.625 69.4056 7.78906C69.7845 7.94922 70.1029 8.17383 70.3607 8.46289C70.6185 8.75195 70.8138 9.09375 70.9467 9.48828C71.0795 9.87891 71.1459 10.3066 71.1459 10.7715V10.8945C71.1459 11.3555 71.0795 11.7832 70.9467 12.1777C70.8138 12.5684 70.6185 12.9102 70.3607 13.2031C70.1029 13.4922 69.7865 13.7168 69.4115 13.877C69.0365 14.0371 68.6049 14.1172 68.1166 14.1172C67.6322 14.1172 67.2006 14.0371 66.8217 13.877C66.4427 13.7168 66.1244 13.4922 65.8666 13.2031C65.6088 12.9102 65.4135 12.5684 65.2806 12.1777C65.1478 11.7832 65.0814 11.3555 65.0814 10.8945ZM66.9154 10.7715V10.8945C66.9154 11.1445 66.9349 11.3789 66.974 11.5977C67.017 11.8164 67.0853 12.0078 67.1791 12.1719C67.2728 12.3359 67.3959 12.4648 67.5482 12.5586C67.7045 12.6484 67.8939 12.6934 68.1166 12.6934C68.3392 12.6934 68.5267 12.6484 68.6791 12.5586C68.8314 12.4648 68.9545 12.3359 69.0482 12.1719C69.142 12.0078 69.2084 11.8164 69.2474 11.5977C69.2904 11.3789 69.3119 11.1445 69.3119 10.8945V10.7715C69.3119 10.5254 69.2904 10.2949 69.2474 10.0801C69.2084 9.86133 69.142 9.66797 69.0482 9.5C68.9545 9.33203 68.8295 9.20117 68.6732 9.10742C68.5209 9.01367 68.3314 8.9668 68.1049 8.9668C67.8861 8.9668 67.7006 9.01367 67.5482 9.10742C67.3959 9.20117 67.2728 9.33203 67.1791 9.5C67.0853 9.66797 67.017 9.86133 66.974 10.0801C66.9349 10.2949 66.9154 10.5254 66.9154 10.7715ZM75.4818 12.2363C75.4818 12.1191 75.4447 12.0156 75.3705 11.9258C75.3002 11.8359 75.1713 11.7539 74.9838 11.6797C74.8002 11.6055 74.5404 11.5312 74.2045 11.457C73.8881 11.3906 73.5931 11.3047 73.3197 11.1992C73.0463 11.0898 72.808 10.959 72.6049 10.8066C72.4017 10.6504 72.2435 10.4668 72.1302 10.2559C72.017 10.041 71.9603 9.79688 71.9603 9.52344C71.9603 9.25781 72.017 9.00586 72.1302 8.76758C72.2474 8.5293 72.4154 8.31836 72.6342 8.13477C72.8568 7.95117 73.1263 7.80664 73.4427 7.70117C73.7631 7.5957 74.1263 7.54297 74.5326 7.54297C75.0912 7.54297 75.5736 7.63086 75.9799 7.80664C76.3861 7.97852 76.6986 8.2207 76.9174 8.5332C77.1361 8.8418 77.2455 9.19531 77.2455 9.59375H75.4174C75.4174 9.42969 75.3861 9.28711 75.3236 9.16602C75.2611 9.04492 75.1654 8.95117 75.0365 8.88477C74.9076 8.81445 74.7377 8.7793 74.5267 8.7793C74.3627 8.7793 74.2181 8.80859 74.0931 8.86719C73.972 8.92188 73.8763 8.99805 73.806 9.0957C73.7396 9.19336 73.7064 9.30664 73.7064 9.43555C73.7064 9.52539 73.726 9.60742 73.765 9.68164C73.808 9.75195 73.8724 9.81836 73.9584 9.88086C74.0482 9.93945 74.1635 9.99219 74.3041 10.0391C74.4486 10.0859 74.6244 10.1309 74.8314 10.1738C75.2728 10.2559 75.6752 10.3711 76.0385 10.5195C76.4056 10.668 76.6986 10.873 76.9174 11.1348C77.14 11.3965 77.2513 11.7422 77.2513 12.1719C77.2513 12.4531 77.1869 12.7109 77.058 12.9453C76.933 13.1797 76.7513 13.3848 76.5131 13.5605C76.2748 13.7363 75.9896 13.873 75.6576 13.9707C75.3256 14.0684 74.9506 14.1172 74.5326 14.1172C73.9349 14.1172 73.4291 14.0098 73.015 13.7949C72.601 13.5801 72.2885 13.3105 72.0775 12.9863C71.8705 12.6582 71.767 12.3223 71.767 11.9785H73.4838C73.4916 12.1895 73.5443 12.3613 73.642 12.4941C73.7435 12.627 73.8744 12.7246 74.0345 12.7871C74.1947 12.8457 74.3744 12.875 74.5736 12.875C74.7728 12.875 74.9388 12.8477 75.0717 12.793C75.2045 12.7383 75.306 12.6641 75.3763 12.5703C75.4467 12.4727 75.4818 12.3613 75.4818 12.2363ZM80.058 5V14H78.2299V5H80.058ZM79.8177 10.6074L79.3607 10.6191C79.3607 10.1738 79.4154 9.76562 79.5248 9.39453C79.6381 9.01953 79.7982 8.69336 80.0052 8.41602C80.2123 8.13867 80.4603 7.92383 80.7494 7.77148C81.0424 7.61914 81.3646 7.54297 81.7162 7.54297C82.0287 7.54297 82.3138 7.58789 82.5717 7.67773C82.8295 7.76758 83.0521 7.91016 83.2396 8.10547C83.4271 8.30078 83.5717 8.55664 83.6732 8.87305C83.7748 9.18945 83.8256 9.57422 83.8256 10.0273V14H81.9857V10.0156C81.9857 9.74609 81.9467 9.53516 81.8685 9.38281C81.7943 9.23047 81.6849 9.12305 81.5404 9.06055C81.3998 8.99805 81.2279 8.9668 81.0248 8.9668C80.7865 8.9668 80.5892 9.00977 80.433 9.0957C80.2767 9.17773 80.1537 9.29297 80.0638 9.44141C79.974 9.58984 79.9095 9.76367 79.8705 9.96289C79.8353 10.1621 79.8177 10.377 79.8177 10.6074ZM86.8607 4.99414V14H85.0267V4.99414H86.8607ZM90.8861 7.66016L88.1263 10.8477L86.6674 12.3125L85.9349 11.0762L87.1185 9.54688L88.683 7.66016H90.8861ZM88.9525 14L87.1654 11.0879L88.4779 10.0625L91.0502 14H88.9525ZM94.3842 14.1172C93.8802 14.1172 93.4291 14.0371 93.0306 13.877C92.6322 13.7168 92.2943 13.4961 92.017 13.2148C91.7435 12.9297 91.5345 12.6016 91.39 12.2305C91.2455 11.8594 91.1732 11.4629 91.1732 11.041V10.8184C91.1732 10.3457 91.2396 9.91016 91.3724 9.51172C91.5052 9.11328 91.6986 8.76758 91.9525 8.47461C92.2103 8.17773 92.5267 7.94922 92.9017 7.78906C93.2767 7.625 93.7045 7.54297 94.1849 7.54297C94.6342 7.54297 95.0345 7.61719 95.3861 7.76562C95.7377 7.91016 96.0345 8.11914 96.2767 8.39258C96.5189 8.66211 96.7025 8.98828 96.8275 9.37109C96.9564 9.75 97.0209 10.1758 97.0209 10.6484V11.3984H91.9115V10.2207H95.2279V10.0801C95.2279 9.85742 95.1869 9.66211 95.1049 9.49414C95.0267 9.32617 94.9095 9.19727 94.7533 9.10742C94.601 9.01367 94.4076 8.9668 94.1732 8.9668C93.9506 8.9668 93.765 9.01367 93.6166 9.10742C93.4681 9.20117 93.349 9.33398 93.2592 9.50586C93.1732 9.67383 93.1107 9.87109 93.0717 10.0977C93.0326 10.3203 93.0131 10.5605 93.0131 10.8184V11.041C93.0131 11.2871 93.0463 11.5117 93.1127 11.7148C93.1791 11.918 93.2767 12.0918 93.4056 12.2363C93.5345 12.3809 93.6908 12.4941 93.8744 12.5762C94.058 12.6582 94.267 12.6992 94.5013 12.6992C94.7904 12.6992 95.0658 12.6445 95.3275 12.5352C95.5892 12.4219 95.8158 12.2461 96.0072 12.0078L96.8627 12.9863C96.7338 13.1738 96.5521 13.3555 96.3177 13.5312C96.0873 13.7031 95.8099 13.8438 95.4857 13.9531C95.1615 14.0625 94.7943 14.1172 94.3842 14.1172ZM99.7045 9.01367V14H97.8705V7.66016H99.5931L99.7045 9.01367ZM99.4642 10.6074L99.0072 10.6191C99.0072 10.1426 99.0658 9.71484 99.183 9.33594C99.3002 8.95703 99.4662 8.63477 99.681 8.36914C99.8998 8.09961 100.16 7.89453 100.46 7.75391C100.765 7.61328 101.101 7.54297 101.468 7.54297C101.765 7.54297 102.036 7.58594 102.283 7.67188C102.529 7.75781 102.74 7.89648 102.915 8.08789C103.095 8.27539 103.232 8.52539 103.326 8.83789C103.419 9.14648 103.466 9.52734 103.466 9.98047V14H101.626V9.97461C101.626 9.70898 101.589 9.50391 101.515 9.35938C101.441 9.21484 101.331 9.11328 101.187 9.05469C101.046 8.99609 100.874 8.9668 100.671 8.9668C100.456 8.9668 100.273 9.00977 100.12 9.0957C99.9681 9.17773 99.8431 9.29297 99.7455 9.44141C99.6478 9.58984 99.5756 9.76367 99.5287 9.96289C99.4857 10.1621 99.4642 10.377 99.4642 10.6074ZM107.884 7.66016V8.94336H104.122V7.66016H107.884ZM104.984 6.08984H106.818V12.0137C106.818 12.1895 106.839 12.3242 106.882 12.418C106.925 12.5117 106.995 12.5781 107.093 12.6172C107.191 12.6523 107.316 12.6699 107.468 12.6699C107.578 12.6699 107.671 12.666 107.749 12.6582C107.828 12.6504 107.9 12.6406 107.966 12.6289V13.9531C107.81 14.0039 107.644 14.043 107.468 14.0703C107.292 14.1016 107.101 14.1172 106.894 14.1172C106.499 14.1172 106.158 14.0527 105.869 13.9238C105.583 13.7949 105.365 13.5918 105.212 13.3145C105.06 13.0332 104.984 12.668 104.984 12.2188V6.08984ZM115.443 12.582V5H117.283V14H115.63L115.443 12.582ZM111.494 10.9062V10.7832C111.494 10.3027 111.546 9.86523 111.652 9.4707C111.761 9.07227 111.919 8.73047 112.126 8.44531C112.337 8.15625 112.597 7.93359 112.906 7.77734C113.214 7.62109 113.568 7.54297 113.966 7.54297C114.333 7.54297 114.654 7.625 114.927 7.78906C115.201 7.94922 115.433 8.17578 115.624 8.46875C115.82 8.75781 115.978 9.09961 116.099 9.49414C116.22 9.88477 116.312 10.3086 116.374 10.7656V10.9766C116.316 11.4141 116.224 11.8223 116.099 12.2012C115.978 12.5801 115.82 12.9141 115.624 13.2031C115.433 13.4883 115.199 13.7129 114.921 13.877C114.648 14.0371 114.326 14.1172 113.954 14.1172C113.556 14.1172 113.203 14.0371 112.894 13.877C112.589 13.7168 112.333 13.4922 112.126 13.2031C111.919 12.9141 111.761 12.5742 111.652 12.1836C111.546 11.793 111.494 11.3672 111.494 10.9062ZM113.322 10.7832V10.9062C113.322 11.1562 113.339 11.3887 113.374 11.6035C113.413 11.8184 113.476 12.0078 113.562 12.1719C113.648 12.3359 113.761 12.4648 113.902 12.5586C114.042 12.6484 114.214 12.6934 114.417 12.6934C114.691 12.6934 114.915 12.6309 115.091 12.5059C115.267 12.377 115.4 12.1992 115.49 11.9727C115.579 11.7461 115.626 11.4824 115.63 11.1816V10.5664C115.63 10.3164 115.605 10.0918 115.554 9.89258C115.503 9.69336 115.427 9.52539 115.326 9.38867C115.228 9.25195 115.105 9.14844 114.956 9.07812C114.808 9.00391 114.632 8.9668 114.429 8.9668C114.23 8.9668 114.06 9.01367 113.919 9.10742C113.779 9.19727 113.663 9.32422 113.574 9.48828C113.488 9.65234 113.423 9.8457 113.38 10.0684C113.341 10.2871 113.322 10.5254 113.322 10.7832ZM121.859 12.4883V9.76953C121.859 9.57812 121.829 9.41406 121.771 9.27734C121.712 9.14062 121.62 9.0332 121.495 8.95508C121.37 8.87695 121.208 8.83789 121.009 8.83789C120.841 8.83789 120.695 8.86719 120.57 8.92578C120.449 8.98438 120.355 9.06836 120.288 9.17773C120.226 9.28711 120.195 9.42188 120.195 9.58203H118.367C118.367 9.29688 118.431 9.03125 118.56 8.78516C118.689 8.53906 118.872 8.32227 119.111 8.13477C119.353 7.94727 119.642 7.80273 119.978 7.70117C120.314 7.5957 120.691 7.54297 121.109 7.54297C121.605 7.54297 122.046 7.62695 122.433 7.79492C122.824 7.95898 123.132 8.20703 123.359 8.53906C123.585 8.86719 123.699 9.28125 123.699 9.78125V12.4355C123.699 12.8184 123.72 13.1191 123.763 13.3379C123.81 13.5527 123.876 13.7402 123.962 13.9004V14H122.117C122.031 13.8164 121.966 13.5898 121.923 13.3203C121.88 13.0469 121.859 12.7695 121.859 12.4883ZM122.087 10.1328L122.099 11.1406H121.191C120.988 11.1406 120.812 11.166 120.663 11.2168C120.519 11.2676 120.402 11.3379 120.312 11.4277C120.222 11.5137 120.156 11.6152 120.113 11.7324C120.074 11.8457 120.054 11.9707 120.054 12.1074C120.054 12.2363 120.085 12.3535 120.148 12.459C120.21 12.5605 120.296 12.6406 120.406 12.6992C120.515 12.7578 120.642 12.7871 120.786 12.7871C121.025 12.7871 121.228 12.7402 121.396 12.6465C121.568 12.5527 121.701 12.4395 121.794 12.3066C121.888 12.1699 121.935 12.043 121.935 11.9258L122.374 12.6875C122.304 12.8438 122.218 13.0059 122.117 13.1738C122.015 13.3379 121.886 13.4922 121.73 13.6367C121.574 13.7773 121.384 13.8926 121.161 13.9824C120.943 14.0723 120.679 14.1172 120.37 14.1172C119.972 14.1172 119.611 14.0371 119.286 13.877C118.962 13.7129 118.703 13.4883 118.507 13.2031C118.316 12.918 118.22 12.5898 118.22 12.2188C118.22 11.8867 118.281 11.5918 118.402 11.334C118.523 11.0762 118.704 10.8574 118.947 10.6777C119.193 10.498 119.501 10.3633 119.872 10.2734C120.244 10.1797 120.677 10.1328 121.173 10.1328H122.087ZM127.027 12.7051L128.351 7.66016H130.273L128.169 14H127.015L127.027 12.7051ZM126.171 7.66016L127.49 12.7109L127.501 14H126.347L124.244 7.66016H126.171ZM132.874 5V14H131.04V5H132.874ZM137.55 12.4883V9.76953C137.55 9.57812 137.521 9.41406 137.462 9.27734C137.404 9.14062 137.312 9.0332 137.187 8.95508C137.062 8.87695 136.9 8.83789 136.701 8.83789C136.533 8.83789 136.386 8.86719 136.261 8.92578C136.14 8.98438 136.046 9.06836 135.98 9.17773C135.917 9.28711 135.886 9.42188 135.886 9.58203H134.058C134.058 9.29688 134.122 9.03125 134.251 8.78516C134.38 8.53906 134.564 8.32227 134.802 8.13477C135.044 7.94727 135.333 7.80273 135.669 7.70117C136.005 7.5957 136.382 7.54297 136.8 7.54297C137.296 7.54297 137.738 7.62695 138.124 7.79492C138.515 7.95898 138.824 8.20703 139.05 8.53906C139.277 8.86719 139.39 9.28125 139.39 9.78125V12.4355C139.39 12.8184 139.411 13.1191 139.454 13.3379C139.501 13.5527 139.568 13.7402 139.654 13.9004V14H137.808C137.722 13.8164 137.658 13.5898 137.615 13.3203C137.572 13.0469 137.55 12.7695 137.55 12.4883ZM137.779 10.1328L137.79 11.1406H136.882C136.679 11.1406 136.503 11.166 136.355 11.2168C136.21 11.2676 136.093 11.3379 136.003 11.4277C135.913 11.5137 135.847 11.6152 135.804 11.7324C135.765 11.8457 135.745 11.9707 135.745 12.1074C135.745 12.2363 135.777 12.3535 135.839 12.459C135.902 12.5605 135.988 12.6406 136.097 12.6992C136.206 12.7578 136.333 12.7871 136.478 12.7871C136.716 12.7871 136.919 12.7402 137.087 12.6465C137.259 12.5527 137.392 12.4395 137.486 12.3066C137.579 12.1699 137.626 12.043 137.626 11.9258L138.066 12.6875C137.995 12.8438 137.91 13.0059 137.808 13.1738C137.706 13.3379 137.578 13.4922 137.421 13.6367C137.265 13.7773 137.076 13.8926 136.853 13.9824C136.634 14.0723 136.37 14.1172 136.062 14.1172C135.663 14.1172 135.302 14.0371 134.978 13.877C134.654 13.7129 134.394 13.4883 134.199 13.2031C134.007 12.918 133.911 12.5898 133.911 12.2188C133.911 11.8867 133.972 11.5918 134.093 11.334C134.214 11.0762 134.396 10.8574 134.638 10.6777C134.884 10.498 135.193 10.3633 135.564 10.2734C135.935 10.1797 136.369 10.1328 136.865 10.1328H137.779ZM143.814 7.66016V8.94336H140.052V7.66016H143.814ZM140.913 6.08984H142.747V12.0137C142.747 12.1895 142.769 12.3242 142.812 12.418C142.855 12.5117 142.925 12.5781 143.023 12.6172C143.12 12.6523 143.245 12.6699 143.398 12.6699C143.507 12.6699 143.601 12.666 143.679 12.6582C143.757 12.6504 143.829 12.6406 143.896 12.6289V13.9531C143.74 14.0039 143.574 14.043 143.398 14.0703C143.222 14.1016 143.031 14.1172 142.824 14.1172C142.429 14.1172 142.087 14.0527 141.798 13.9238C141.513 13.7949 141.294 13.5918 141.142 13.3145C140.99 13.0332 140.913 12.668 140.913 12.2188V6.08984ZM62.181 21.6602V22.9434H58.4193V21.6602H62.181ZM59.2806 20.0898H61.1146V26.0137C61.1146 26.1895 61.1361 26.3242 61.1791 26.418C61.222 26.5117 61.2924 26.5781 61.39 26.6172C61.4877 26.6523 61.6127 26.6699 61.765 26.6699C61.8744 26.6699 61.9681 26.666 62.0463 26.6582C62.1244 26.6504 62.1967 26.6406 62.2631 26.6289V27.9531C62.1068 28.0039 61.9408 28.043 61.765 28.0703C61.5892 28.1016 61.3978 28.1172 61.1908 28.1172C60.7963 28.1172 60.4545 28.0527 60.1654 27.9238C59.8802 27.7949 59.6615 27.5918 59.5092 27.3145C59.3568 27.0332 59.2806 26.668 59.2806 26.2188V20.0898ZM64.8939 23.1367V28H63.0658V21.6602H64.7826L64.8939 23.1367ZM66.7865 21.6133L66.7572 23.3184C66.6791 23.3066 66.5775 23.2969 66.4525 23.2891C66.3275 23.2773 66.2201 23.2715 66.1302 23.2715C65.8959 23.2715 65.6927 23.3008 65.5209 23.3594C65.3529 23.4141 65.2123 23.4961 65.099 23.6055C64.9896 23.7148 64.9076 23.8516 64.8529 24.0156C64.7982 24.1758 64.7709 24.3613 64.7709 24.5723L64.4252 24.4023C64.4252 23.9844 64.4662 23.6016 64.5482 23.2539C64.6302 22.9062 64.7494 22.6055 64.9056 22.3516C65.0619 22.0938 65.2533 21.8945 65.4799 21.7539C65.7064 21.6133 65.9642 21.543 66.2533 21.543C66.347 21.543 66.4427 21.5488 66.5404 21.5605C66.6381 21.5723 66.7201 21.5898 66.7865 21.6133ZM70.7064 26.4883V23.7695C70.7064 23.5781 70.6771 23.4141 70.6185 23.2773C70.5599 23.1406 70.4681 23.0332 70.3431 22.9551C70.2181 22.877 70.056 22.8379 69.8568 22.8379C69.6888 22.8379 69.5424 22.8672 69.4174 22.9258C69.2963 22.9844 69.2025 23.0684 69.1361 23.1777C69.0736 23.2871 69.0424 23.4219 69.0424 23.582H67.2142C67.2142 23.2969 67.2787 23.0312 67.4076 22.7852C67.5365 22.5391 67.7201 22.3223 67.9584 22.1348C68.2006 21.9473 68.4896 21.8027 68.8256 21.7012C69.1615 21.5957 69.5385 21.543 69.9564 21.543C70.4525 21.543 70.8939 21.627 71.2806 21.7949C71.6713 21.959 71.9799 22.207 72.2064 22.5391C72.433 22.8672 72.5463 23.2812 72.5463 23.7812V26.4355C72.5463 26.8184 72.5677 27.1191 72.6107 27.3379C72.6576 27.5527 72.724 27.7402 72.8099 27.9004V28H70.9642C70.8783 27.8164 70.8138 27.5898 70.7709 27.3203C70.7279 27.0469 70.7064 26.7695 70.7064 26.4883ZM70.9349 24.1328L70.9467 25.1406H70.0385C69.8353 25.1406 69.6595 25.166 69.5111 25.2168C69.3666 25.2676 69.2494 25.3379 69.1595 25.4277C69.0697 25.5137 69.0033 25.6152 68.9603 25.7324C68.9213 25.8457 68.9017 25.9707 68.9017 26.1074C68.9017 26.2363 68.933 26.3535 68.9955 26.459C69.058 26.5605 69.1439 26.6406 69.2533 26.6992C69.3627 26.7578 69.4896 26.7871 69.6342 26.7871C69.8724 26.7871 70.0756 26.7402 70.2435 26.6465C70.4154 26.5527 70.5482 26.4395 70.642 26.3066C70.7357 26.1699 70.7826 26.043 70.7826 25.9258L71.222 26.6875C71.1517 26.8438 71.0658 27.0059 70.9642 27.1738C70.8627 27.3379 70.7338 27.4922 70.5775 27.6367C70.4213 27.7773 70.2318 27.8926 70.0092 27.9824C69.7904 28.0723 69.5267 28.1172 69.2181 28.1172C68.8197 28.1172 68.4584 28.0371 68.1342 27.877C67.8099 27.7129 67.5502 27.4883 67.3549 27.2031C67.1635 26.918 67.0677 26.5898 67.0677 26.2188C67.0677 25.8867 67.1283 25.5918 67.2494 25.334C67.3705 25.0762 67.5521 24.8574 67.7943 24.6777C68.0404 24.498 68.349 24.3633 68.7201 24.2734C69.0912 24.1797 69.5248 24.1328 70.0209 24.1328H70.9349ZM75.5404 23.0137V28H73.7064V21.6602H75.4291L75.5404 23.0137ZM75.3002 24.6074L74.8431 24.6191C74.8431 24.1426 74.9017 23.7148 75.0189 23.3359C75.1361 22.957 75.3021 22.6348 75.517 22.3691C75.7357 22.0996 75.9955 21.8945 76.2963 21.7539C76.601 21.6133 76.9369 21.543 77.3041 21.543C77.601 21.543 77.8724 21.5859 78.1185 21.6719C78.3646 21.7578 78.5756 21.8965 78.7513 22.0879C78.931 22.2754 79.0677 22.5254 79.1615 22.8379C79.2552 23.1465 79.3021 23.5273 79.3021 23.9805V28H77.4623V23.9746C77.4623 23.709 77.4252 23.5039 77.351 23.3594C77.2767 23.2148 77.1674 23.1133 77.0228 23.0547C76.8822 22.9961 76.7103 22.9668 76.5072 22.9668C76.2924 22.9668 76.1088 23.0098 75.9564 23.0957C75.8041 23.1777 75.6791 23.293 75.5814 23.4414C75.4838 23.5898 75.4115 23.7637 75.3646 23.9629C75.3217 24.1621 75.3002 24.377 75.3002 24.6074ZM83.8724 26.2363C83.8724 26.1191 83.8353 26.0156 83.7611 25.9258C83.6908 25.8359 83.5619 25.7539 83.3744 25.6797C83.1908 25.6055 82.931 25.5312 82.5951 25.457C82.2787 25.3906 81.9838 25.3047 81.7103 25.1992C81.4369 25.0898 81.1986 24.959 80.9955 24.8066C80.7924 24.6504 80.6342 24.4668 80.5209 24.2559C80.4076 24.041 80.351 23.7969 80.351 23.5234C80.351 23.2578 80.4076 23.0059 80.5209 22.7676C80.6381 22.5293 80.806 22.3184 81.0248 22.1348C81.2474 21.9512 81.517 21.8066 81.8334 21.7012C82.1537 21.5957 82.517 21.543 82.9232 21.543C83.4818 21.543 83.9642 21.6309 84.3705 21.8066C84.7767 21.9785 85.0892 22.2207 85.308 22.5332C85.5267 22.8418 85.6361 23.1953 85.6361 23.5938H83.808C83.808 23.4297 83.7767 23.2871 83.7142 23.166C83.6517 23.0449 83.556 22.9512 83.4271 22.8848C83.2982 22.8145 83.1283 22.7793 82.9174 22.7793C82.7533 22.7793 82.6088 22.8086 82.4838 22.8672C82.3627 22.9219 82.267 22.998 82.1967 23.0957C82.1302 23.1934 82.097 23.3066 82.097 23.4355C82.097 23.5254 82.1166 23.6074 82.1556 23.6816C82.1986 23.752 82.2631 23.8184 82.349 23.8809C82.4388 23.9395 82.5541 23.9922 82.6947 24.0391C82.8392 24.0859 83.015 24.1309 83.222 24.1738C83.6635 24.2559 84.0658 24.3711 84.4291 24.5195C84.7963 24.668 85.0892 24.873 85.308 25.1348C85.5306 25.3965 85.642 25.7422 85.642 26.1719C85.642 26.4531 85.5775 26.7109 85.4486 26.9453C85.3236 27.1797 85.142 27.3848 84.9037 27.5605C84.6654 27.7363 84.3802 27.873 84.0482 27.9707C83.7162 28.0684 83.3412 28.1172 82.9232 28.1172C82.3256 28.1172 81.8197 28.0098 81.4056 27.7949C80.9916 27.5801 80.6791 27.3105 80.4681 26.9863C80.2611 26.6582 80.1576 26.3223 80.1576 25.9785H81.8744C81.8822 26.1895 81.9349 26.3613 82.0326 26.4941C82.1342 26.627 82.265 26.7246 82.4252 26.7871C82.5853 26.8457 82.765 26.875 82.9642 26.875C83.1635 26.875 83.3295 26.8477 83.4623 26.793C83.5951 26.7383 83.6967 26.6641 83.767 26.5703C83.8373 26.4727 83.8724 26.3613 83.8724 26.2363ZM88.4955 22.8789V30.4375H86.6674V21.6602H88.3724L88.4955 22.8789ZM92.4506 24.7598V24.8828C92.4506 25.3438 92.3978 25.7715 92.2924 26.166C92.1869 26.5566 92.0287 26.8984 91.8177 27.1914C91.6107 27.4844 91.3549 27.7129 91.0502 27.877C90.7455 28.0371 90.392 28.1172 89.9896 28.1172C89.6068 28.1172 89.2748 28.0371 88.9935 27.877C88.7162 27.7129 88.4818 27.4863 88.2904 27.1973C88.1029 26.9043 87.9506 26.5703 87.8334 26.1953C87.7201 25.8164 87.6322 25.4121 87.5697 24.9824V24.7422C87.6322 24.2852 87.722 23.8613 87.8392 23.4707C87.9564 23.0801 88.1088 22.7422 88.2963 22.457C88.4838 22.168 88.7162 21.9434 88.9935 21.7832C89.2709 21.623 89.601 21.543 89.9838 21.543C90.3822 21.543 90.7357 21.6191 91.0443 21.7715C91.3529 21.9238 91.6107 22.1426 91.8177 22.4277C92.0287 22.709 92.1869 23.0469 92.2924 23.4414C92.3978 23.8359 92.4506 24.2754 92.4506 24.7598ZM90.6166 24.8828V24.7598C90.6166 24.502 90.597 24.2656 90.558 24.0508C90.5189 23.832 90.4564 23.6426 90.3705 23.4824C90.2845 23.3184 90.1713 23.1914 90.0306 23.1016C89.89 23.0117 89.7181 22.9668 89.515 22.9668C89.2963 22.9668 89.1107 23.002 88.9584 23.0723C88.806 23.1426 88.683 23.2461 88.5892 23.3828C88.4955 23.5156 88.4271 23.6797 88.3842 23.875C88.3451 24.0703 88.3236 24.293 88.3197 24.543V25.1875C88.3236 25.4805 88.3646 25.7422 88.4427 25.9727C88.5248 26.1992 88.6517 26.377 88.8236 26.5059C88.9994 26.6309 89.2338 26.6934 89.5267 26.6934C89.7338 26.6934 89.9056 26.6484 90.0424 26.5586C90.183 26.4648 90.2943 26.334 90.3763 26.166C90.4623 25.998 90.5228 25.8047 90.558 25.5859C90.597 25.3672 90.6166 25.1328 90.6166 24.8828ZM93.1595 24.8945V24.7715C93.1595 24.3066 93.226 23.8789 93.3588 23.4883C93.4916 23.0938 93.6869 22.752 93.9447 22.4629C94.2025 22.1738 94.5189 21.9492 94.8939 21.7891C95.2689 21.625 95.6986 21.543 96.183 21.543C96.6752 21.543 97.1088 21.625 97.4838 21.7891C97.8627 21.9492 98.181 22.1738 98.4388 22.4629C98.6967 22.752 98.892 23.0938 99.0248 23.4883C99.1576 23.8789 99.224 24.3066 99.224 24.7715V24.8945C99.224 25.3555 99.1576 25.7832 99.0248 26.1777C98.892 26.5684 98.6967 26.9102 98.4388 27.2031C98.181 27.4922 97.8646 27.7168 97.4896 27.877C97.1146 28.0371 96.683 28.1172 96.1947 28.1172C95.7103 28.1172 95.2787 28.0371 94.8998 27.877C94.5209 27.7168 94.2025 27.4922 93.9447 27.2031C93.6869 26.9102 93.4916 26.5684 93.3588 26.1777C93.226 25.7832 93.1595 25.3555 93.1595 24.8945ZM94.9935 24.7715V24.8945C94.9935 25.1445 95.0131 25.3789 95.0521 25.5977C95.0951 25.8164 95.1635 26.0078 95.2572 26.1719C95.351 26.3359 95.474 26.4648 95.6263 26.5586C95.7826 26.6484 95.972 26.6934 96.1947 26.6934C96.4174 26.6934 96.6049 26.6484 96.7572 26.5586C96.9095 26.4648 97.0326 26.3359 97.1263 26.1719C97.2201 26.0078 97.2865 25.8164 97.3256 25.5977C97.3685 25.3789 97.39 25.1445 97.39 24.8945V24.7715C97.39 24.5254 97.3685 24.2949 97.3256 24.0801C97.2865 23.8613 97.2201 23.668 97.1263 23.5C97.0326 23.332 96.9076 23.2012 96.7513 23.1074C96.599 23.0137 96.4095 22.9668 96.183 22.9668C95.9642 22.9668 95.7787 23.0137 95.6263 23.1074C95.474 23.2012 95.351 23.332 95.2572 23.5C95.1635 23.668 95.0951 23.8613 95.0521 24.0801C95.0131 24.2949 94.9935 24.5254 94.9935 24.7715ZM102.019 23.1367V28H100.191V21.6602H101.908L102.019 23.1367ZM103.911 21.6133L103.882 23.3184C103.804 23.3066 103.703 23.2969 103.578 23.2891C103.453 23.2773 103.345 23.2715 103.255 23.2715C103.021 23.2715 102.818 23.3008 102.646 23.3594C102.478 23.4141 102.337 23.4961 102.224 23.6055C102.115 23.7148 102.033 23.8516 101.978 24.0156C101.923 24.1758 101.896 24.3613 101.896 24.5723L101.55 24.4023C101.55 23.9844 101.591 23.6016 101.673 23.2539C101.755 22.9062 101.874 22.6055 102.031 22.3516C102.187 22.0938 102.378 21.8945 102.605 21.7539C102.831 21.6133 103.089 21.543 103.378 21.543C103.472 21.543 103.568 21.5488 103.665 21.5605C103.763 21.5723 103.845 21.5898 103.911 21.6133ZM108.177 21.6602V22.9434H104.415V21.6602H108.177ZM105.277 20.0898H107.111V26.0137C107.111 26.1895 107.132 26.3242 107.175 26.418C107.218 26.5117 107.288 26.5781 107.386 26.6172C107.484 26.6523 107.609 26.6699 107.761 26.6699C107.87 26.6699 107.964 26.666 108.042 26.6582C108.12 26.6504 108.193 26.6406 108.259 26.6289V27.9531C108.103 28.0039 107.937 28.043 107.761 28.0703C107.585 28.1016 107.394 28.1172 107.187 28.1172C106.792 28.1172 106.451 28.0527 106.161 27.9238C105.876 27.7949 105.658 27.5918 105.505 27.3145C105.353 27.0332 105.277 26.668 105.277 26.2188V20.0898ZM115.765 26.4707V21.6602H117.605V28H115.882L115.765 26.4707ZM115.958 25.1758L116.462 25.1641C116.462 25.5898 116.411 25.9824 116.31 26.3418C116.212 26.7012 116.064 27.0137 115.865 27.2793C115.669 27.5449 115.425 27.752 115.132 27.9004C114.843 28.0449 114.505 28.1172 114.119 28.1172C113.806 28.1172 113.519 28.0742 113.257 27.9883C112.999 27.8984 112.777 27.7598 112.589 27.5723C112.402 27.3809 112.257 27.1367 112.156 26.8398C112.054 26.5391 112.003 26.1797 112.003 25.7617V21.6602H113.831V25.7734C113.831 25.9375 113.851 26.0781 113.89 26.1953C113.933 26.3086 113.99 26.4023 114.06 26.4766C114.134 26.5508 114.224 26.6055 114.329 26.6406C114.439 26.6758 114.558 26.6934 114.687 26.6934C115.011 26.6934 115.265 26.627 115.449 26.4941C115.636 26.3574 115.767 26.1758 115.841 25.9492C115.919 25.7188 115.958 25.4609 115.958 25.1758ZM120.587 23.0137V28H118.753V21.6602H120.476L120.587 23.0137ZM120.347 24.6074L119.89 24.6191C119.89 24.1426 119.949 23.7148 120.066 23.3359C120.183 22.957 120.349 22.6348 120.564 22.3691C120.783 22.0996 121.042 21.8945 121.343 21.7539C121.648 21.6133 121.984 21.543 122.351 21.543C122.648 21.543 122.919 21.5859 123.165 21.6719C123.411 21.7578 123.622 21.8965 123.798 22.0879C123.978 22.2754 124.115 22.5254 124.208 22.8379C124.302 23.1465 124.349 23.5273 124.349 23.9805V28H122.509V23.9746C122.509 23.709 122.472 23.5039 122.398 23.3594C122.324 23.2148 122.214 23.1133 122.07 23.0547C121.929 22.9961 121.757 22.9668 121.554 22.9668C121.339 22.9668 121.156 23.0098 121.003 23.0957C120.851 23.1777 120.726 23.293 120.628 23.4414C120.531 23.5898 120.458 23.7637 120.411 23.9629C120.369 24.1621 120.347 24.377 120.347 24.6074ZM127.472 21.6602V28H125.638V21.6602H127.472ZM125.527 20.0195C125.527 19.7539 125.62 19.5371 125.808 19.3691C125.995 19.1973 126.242 19.1113 126.546 19.1113C126.851 19.1113 127.097 19.1973 127.285 19.3691C127.476 19.5371 127.572 19.7539 127.572 20.0195C127.572 20.2812 127.476 20.498 127.285 20.6699C127.097 20.8379 126.851 20.9219 126.546 20.9219C126.242 20.9219 125.995 20.8379 125.808 20.6699C125.62 20.498 125.527 20.2812 125.527 20.0195ZM131.011 26.7051L132.335 21.6602H134.257L132.154 28H130.999L131.011 26.7051ZM130.156 21.6602L131.474 26.7109L131.486 28H130.331L128.228 21.6602H130.156ZM137.837 28.1172C137.333 28.1172 136.882 28.0371 136.484 27.877C136.085 27.7168 135.747 27.4961 135.47 27.2148C135.197 26.9297 134.988 26.6016 134.843 26.2305C134.699 25.8594 134.626 25.4629 134.626 25.041V24.8184C134.626 24.3457 134.693 23.9102 134.826 23.5117C134.958 23.1133 135.152 22.7676 135.406 22.4746C135.663 22.1777 135.98 21.9492 136.355 21.7891C136.73 21.625 137.158 21.543 137.638 21.543C138.087 21.543 138.488 21.6172 138.839 21.7656C139.191 21.9102 139.488 22.1191 139.73 22.3926C139.972 22.6621 140.156 22.9883 140.281 23.3711C140.41 23.75 140.474 24.1758 140.474 24.6484V25.3984H135.365V24.2207H138.681V24.0801C138.681 23.8574 138.64 23.6621 138.558 23.4941C138.48 23.3262 138.363 23.1973 138.206 23.1074C138.054 23.0137 137.861 22.9668 137.626 22.9668C137.404 22.9668 137.218 23.0137 137.07 23.1074C136.921 23.2012 136.802 23.334 136.712 23.5059C136.626 23.6738 136.564 23.8711 136.525 24.0977C136.486 24.3203 136.466 24.5605 136.466 24.8184V25.041C136.466 25.2871 136.499 25.5117 136.566 25.7148C136.632 25.918 136.73 26.0918 136.859 26.2363C136.988 26.3809 137.144 26.4941 137.328 26.5762C137.511 26.6582 137.72 26.6992 137.954 26.6992C138.244 26.6992 138.519 26.6445 138.781 26.5352C139.042 26.4219 139.269 26.2461 139.46 26.0078L140.316 26.9863C140.187 27.1738 140.005 27.3555 139.771 27.5312C139.54 27.7031 139.263 27.8438 138.939 27.9531C138.615 28.0625 138.247 28.1172 137.837 28.1172ZM143.199 23.1367V28H141.37V21.6602H143.087L143.199 23.1367ZM145.091 21.6133L145.062 23.3184C144.984 23.3066 144.882 23.2969 144.757 23.2891C144.632 23.2773 144.525 23.2715 144.435 23.2715C144.201 23.2715 143.997 23.3008 143.826 23.3594C143.658 23.4141 143.517 23.4961 143.404 23.6055C143.294 23.7148 143.212 23.8516 143.158 24.0156C143.103 24.1758 143.076 24.3613 143.076 24.5723L142.73 24.4023C142.73 23.9844 142.771 23.6016 142.853 23.2539C142.935 22.9062 143.054 22.6055 143.21 22.3516C143.367 22.0938 143.558 21.8945 143.785 21.7539C144.011 21.6133 144.269 21.543 144.558 21.543C144.652 21.543 144.747 21.5488 144.845 21.5605C144.943 21.5723 145.025 21.5898 145.091 21.6133ZM149.216 26.2363C149.216 26.1191 149.179 26.0156 149.105 25.9258C149.035 25.8359 148.906 25.7539 148.718 25.6797C148.535 25.6055 148.275 25.5312 147.939 25.457C147.622 25.3906 147.328 25.3047 147.054 25.1992C146.781 25.0898 146.542 24.959 146.339 24.8066C146.136 24.6504 145.978 24.4668 145.865 24.2559C145.751 24.041 145.695 23.7969 145.695 23.5234C145.695 23.2578 145.751 23.0059 145.865 22.7676C145.982 22.5293 146.15 22.3184 146.369 22.1348C146.591 21.9512 146.861 21.8066 147.177 21.7012C147.497 21.5957 147.861 21.543 148.267 21.543C148.826 21.543 149.308 21.6309 149.714 21.8066C150.12 21.9785 150.433 22.2207 150.652 22.5332C150.87 22.8418 150.98 23.1953 150.98 23.5938H149.152C149.152 23.4297 149.12 23.2871 149.058 23.166C148.995 23.0449 148.9 22.9512 148.771 22.8848C148.642 22.8145 148.472 22.7793 148.261 22.7793C148.097 22.7793 147.953 22.8086 147.828 22.8672C147.706 22.9219 147.611 22.998 147.54 23.0957C147.474 23.1934 147.441 23.3066 147.441 23.4355C147.441 23.5254 147.46 23.6074 147.499 23.6816C147.542 23.752 147.607 23.8184 147.693 23.8809C147.783 23.9395 147.898 23.9922 148.038 24.0391C148.183 24.0859 148.359 24.1309 148.566 24.1738C149.007 24.2559 149.41 24.3711 149.773 24.5195C150.14 24.668 150.433 24.873 150.652 25.1348C150.874 25.3965 150.986 25.7422 150.986 26.1719C150.986 26.4531 150.921 26.7109 150.792 26.9453C150.667 27.1797 150.486 27.3848 150.247 27.5605C150.009 27.7363 149.724 27.873 149.392 27.9707C149.06 28.0684 148.685 28.1172 148.267 28.1172C147.669 28.1172 147.163 28.0098 146.749 27.7949C146.335 27.5801 146.023 27.3105 145.812 26.9863C145.605 26.6582 145.501 26.3223 145.501 25.9785H147.218C147.226 26.1895 147.279 26.3613 147.376 26.4941C147.478 26.627 147.609 26.7246 147.769 26.7871C147.929 26.8457 148.109 26.875 148.308 26.875C148.507 26.875 148.673 26.8477 148.806 26.793C148.939 26.7383 149.04 26.6641 149.111 26.5703C149.181 26.4727 149.216 26.3613 149.216 26.2363ZM153.933 21.6602V28H152.099V21.6602H153.933ZM151.988 20.0195C151.988 19.7539 152.081 19.5371 152.269 19.3691C152.456 19.1973 152.703 19.1113 153.007 19.1113C153.312 19.1113 153.558 19.1973 153.745 19.3691C153.937 19.5371 154.033 19.7539 154.033 20.0195C154.033 20.2812 153.937 20.498 153.745 20.6699C153.558 20.8379 153.312 20.9219 153.007 20.9219C152.703 20.9219 152.456 20.8379 152.269 20.6699C152.081 20.498 151.988 20.2812 151.988 20.0195ZM158.474 21.6602V22.9434H154.712V21.6602H158.474ZM155.574 20.0898H157.408V26.0137C157.408 26.1895 157.429 26.3242 157.472 26.418C157.515 26.5117 157.585 26.5781 157.683 26.6172C157.781 26.6523 157.906 26.6699 158.058 26.6699C158.167 26.6699 158.261 26.666 158.339 26.6582C158.417 26.6504 158.49 26.6406 158.556 26.6289V27.9531C158.4 28.0039 158.234 28.043 158.058 28.0703C157.882 28.1016 157.691 28.1172 157.484 28.1172C157.089 28.1172 156.747 28.0527 156.458 27.9238C156.173 27.7949 155.954 27.5918 155.802 27.3145C155.65 27.0332 155.574 26.668 155.574 26.2188V20.0898ZM162.341 28.1172C161.837 28.1172 161.386 28.0371 160.988 27.877C160.589 27.7168 160.251 27.4961 159.974 27.2148C159.701 26.9297 159.492 26.6016 159.347 26.2305C159.203 25.8594 159.13 25.4629 159.13 25.041V24.8184C159.13 24.3457 159.197 23.9102 159.329 23.5117C159.462 23.1133 159.656 22.7676 159.91 22.4746C160.167 22.1777 160.484 21.9492 160.859 21.7891C161.234 21.625 161.661 21.543 162.142 21.543C162.591 21.543 162.992 21.6172 163.343 21.7656C163.695 21.9102 163.992 22.1191 164.234 22.3926C164.476 22.6621 164.66 22.9883 164.785 23.3711C164.913 23.75 164.978 24.1758 164.978 24.6484V25.3984H159.869V24.2207H163.185V24.0801C163.185 23.8574 163.144 23.6621 163.062 23.4941C162.984 23.3262 162.867 23.1973 162.71 23.1074C162.558 23.0137 162.365 22.9668 162.13 22.9668C161.908 22.9668 161.722 23.0137 161.574 23.1074C161.425 23.2012 161.306 23.334 161.216 23.5059C161.13 23.6738 161.068 23.8711 161.029 24.0977C160.99 24.3203 160.97 24.5605 160.97 24.8184V25.041C160.97 25.2871 161.003 25.5117 161.07 25.7148C161.136 25.918 161.234 26.0918 161.363 26.2363C161.492 26.3809 161.648 26.4941 161.831 26.5762C162.015 26.6582 162.224 26.6992 162.458 26.6992C162.747 26.6992 163.023 26.6445 163.285 26.5352C163.546 26.4219 163.773 26.2461 163.964 26.0078L164.82 26.9863C164.691 27.1738 164.509 27.3555 164.275 27.5312C164.044 27.7031 163.767 27.8438 163.443 27.9531C163.119 28.0625 162.751 28.1172 162.341 28.1172ZM169.091 21.6602V22.9434H165.329V21.6602H169.091ZM166.191 20.0898H168.025V26.0137C168.025 26.1895 168.046 26.3242 168.089 26.418C168.132 26.5117 168.203 26.5781 168.3 26.6172C168.398 26.6523 168.523 26.6699 168.675 26.6699C168.785 26.6699 168.878 26.666 168.956 26.6582C169.035 26.6504 169.107 26.6406 169.173 26.6289V27.9531C169.017 28.0039 168.851 28.043 168.675 28.0703C168.499 28.1016 168.308 28.1172 168.101 28.1172C167.706 28.1172 167.365 28.0527 167.076 27.9238C166.79 27.7949 166.572 27.5918 166.419 27.3145C166.267 27.0332 166.191 26.668 166.191 26.2188V20.0898ZM171.898 21.6602V28H170.064V21.6602H171.898ZM169.953 20.0195C169.953 19.7539 170.046 19.5371 170.234 19.3691C170.421 19.1973 170.667 19.1113 170.972 19.1113C171.277 19.1113 171.523 19.1973 171.71 19.3691C171.902 19.5371 171.997 19.7539 171.997 20.0195C171.997 20.2812 171.902 20.498 171.71 20.6699C171.523 20.8379 171.277 20.9219 170.972 20.9219C170.667 20.9219 170.421 20.8379 170.234 20.6699C170.046 20.498 169.953 20.2812 169.953 20.0195Z" fill="black"/>
<path d="M63.1904 39.9453V41H59.6162V39.9453H63.1904ZM60.0215 33.8906V41H58.6787V33.8906H60.0215ZM63.7617 38.4121V38.3096C63.7617 37.9222 63.8171 37.5658 63.9277 37.2402C64.0384 36.9115 64.1995 36.6266 64.4111 36.3857C64.6227 36.1449 64.8815 35.9577 65.1875 35.8242C65.4935 35.6875 65.8418 35.6191 66.2324 35.6191C66.6296 35.6191 66.9811 35.6875 67.2871 35.8242C67.5964 35.9577 67.8568 36.1449 68.0684 36.3857C68.2799 36.6266 68.4411 36.9115 68.5518 37.2402C68.6624 37.5658 68.7178 37.9222 68.7178 38.3096V38.4121C68.7178 38.7962 68.6624 39.1527 68.5518 39.4814C68.4411 39.807 68.2799 40.0918 68.0684 40.3359C67.8568 40.5768 67.598 40.764 67.292 40.8975C66.986 41.0309 66.6361 41.0977 66.2422 41.0977C65.8516 41.0977 65.5016 41.0309 65.1924 40.8975C64.8831 40.764 64.6227 40.5768 64.4111 40.3359C64.1995 40.0918 64.0384 39.807 63.9277 39.4814C63.8171 39.1527 63.7617 38.7962 63.7617 38.4121ZM65.0508 38.3096V38.4121C65.0508 38.6432 65.0736 38.8597 65.1191 39.0615C65.1647 39.2633 65.2347 39.4408 65.3291 39.5938C65.4235 39.7467 65.5456 39.8672 65.6953 39.9551C65.8483 40.0397 66.0306 40.082 66.2422 40.082C66.4505 40.082 66.6296 40.0397 66.7793 39.9551C66.929 39.8672 67.0511 39.7467 67.1455 39.5938C67.2432 39.4408 67.3148 39.2633 67.3604 39.0615C67.4059 38.8597 67.4287 38.6432 67.4287 38.4121V38.3096C67.4287 38.0817 67.4059 37.8685 67.3604 37.6699C67.3148 37.4681 67.2432 37.2907 67.1455 37.1377C67.0511 36.9814 66.9274 36.8594 66.7744 36.7715C66.6247 36.6803 66.444 36.6348 66.2324 36.6348C66.0241 36.6348 65.8451 36.6803 65.6953 36.7715C65.5456 36.8594 65.4235 36.9814 65.3291 37.1377C65.2347 37.2907 65.1647 37.4681 65.1191 37.6699C65.0736 37.8685 65.0508 38.0817 65.0508 38.3096ZM70.9443 33.4951V41H69.6553V33.4951H70.9443ZM74.2549 35.7168L71.9551 38.2998L70.71 39.5645L70.2998 38.5635L71.2617 37.3525L72.6973 35.7168H74.2549ZM72.9365 41L71.3008 38.5391L72.1602 37.7041L74.4307 41H72.9365ZM74.709 38.4121V38.3096C74.709 37.9222 74.7643 37.5658 74.875 37.2402C74.9857 36.9115 75.1468 36.6266 75.3584 36.3857C75.57 36.1449 75.8288 35.9577 76.1348 35.8242C76.4408 35.6875 76.7891 35.6191 77.1797 35.6191C77.5768 35.6191 77.9284 35.6875 78.2344 35.8242C78.5436 35.9577 78.804 36.1449 79.0156 36.3857C79.2272 36.6266 79.3883 36.9115 79.499 37.2402C79.6097 37.5658 79.665 37.9222 79.665 38.3096V38.4121C79.665 38.7962 79.6097 39.1527 79.499 39.4814C79.3883 39.807 79.2272 40.0918 79.0156 40.3359C78.804 40.5768 78.5452 40.764 78.2393 40.8975C77.9333 41.0309 77.5833 41.0977 77.1895 41.0977C76.7988 41.0977 76.4489 41.0309 76.1396 40.8975C75.8304 40.764 75.57 40.5768 75.3584 40.3359C75.1468 40.0918 74.9857 39.807 74.875 39.4814C74.7643 39.1527 74.709 38.7962 74.709 38.4121ZM75.998 38.3096V38.4121C75.998 38.6432 76.0208 38.8597 76.0664 39.0615C76.112 39.2633 76.182 39.4408 76.2764 39.5938C76.3708 39.7467 76.4928 39.8672 76.6426 39.9551C76.7956 40.0397 76.9779 40.082 77.1895 40.082C77.3978 40.082 77.5768 40.0397 77.7266 39.9551C77.8763 39.8672 77.9984 39.7467 78.0928 39.5938C78.1904 39.4408 78.262 39.2633 78.3076 39.0615C78.3532 38.8597 78.376 38.6432 78.376 38.4121V38.3096C78.376 38.0817 78.3532 37.8685 78.3076 37.6699C78.262 37.4681 78.1904 37.2907 78.0928 37.1377C77.9984 36.9814 77.8747 36.8594 77.7217 36.7715C77.5719 36.6803 77.3913 36.6348 77.1797 36.6348C76.9714 36.6348 76.7923 36.6803 76.6426 36.7715C76.4928 36.8594 76.3708 36.9814 76.2764 37.1377C76.182 37.2907 76.112 37.4681 76.0664 37.6699C76.0208 37.8685 75.998 38.0817 75.998 38.3096ZM81.8867 36.8008V41H80.5977V35.7168H81.8135L81.8867 36.8008ZM81.6963 38.168H81.3008C81.3008 37.8001 81.3447 37.4616 81.4326 37.1523C81.5238 36.8431 81.6572 36.5745 81.833 36.3467C82.0088 36.1156 82.2253 35.9365 82.4824 35.8096C82.7428 35.6826 83.0439 35.6191 83.3857 35.6191C83.6234 35.6191 83.8415 35.6549 84.04 35.7266C84.2386 35.7949 84.4095 35.904 84.5527 36.0537C84.6992 36.2002 84.8115 36.3923 84.8896 36.6299C84.9678 36.8643 85.0068 37.1458 85.0068 37.4746V41H83.7178V37.6064C83.7178 37.359 83.682 37.1654 83.6104 37.0254C83.542 36.8854 83.4427 36.7878 83.3125 36.7324C83.1823 36.6738 83.026 36.6445 82.8438 36.6445C82.6419 36.6445 82.4678 36.6852 82.3213 36.7666C82.1781 36.8447 82.0592 36.9538 81.9648 37.0938C81.8737 37.2337 81.8053 37.3949 81.7598 37.5771C81.7174 37.7594 81.6963 37.9564 81.6963 38.168ZM84.9092 37.9287L84.377 38.0264C84.3802 37.6943 84.4258 37.3835 84.5137 37.0938C84.6016 36.8008 84.7301 36.5452 84.8994 36.3271C85.0719 36.1058 85.2852 35.9333 85.5391 35.8096C85.7962 35.6826 86.0924 35.6191 86.4277 35.6191C86.6882 35.6191 86.9225 35.6566 87.1309 35.7314C87.3424 35.8031 87.5231 35.9186 87.6729 36.0781C87.8226 36.2344 87.9365 36.4378 88.0146 36.6885C88.096 36.9391 88.1367 37.2451 88.1367 37.6064V41H86.8379V37.6016C86.8379 37.3444 86.8021 37.1475 86.7305 37.0107C86.6621 36.874 86.5628 36.7796 86.4326 36.7275C86.3024 36.6722 86.1494 36.6445 85.9736 36.6445C85.7946 36.6445 85.6383 36.6787 85.5049 36.7471C85.3747 36.8122 85.264 36.9033 85.1729 37.0205C85.085 37.1377 85.0182 37.2744 84.9727 37.4307C84.9303 37.5837 84.9092 37.7497 84.9092 37.9287ZM89.0645 38.4121V38.3096C89.0645 37.9222 89.1198 37.5658 89.2305 37.2402C89.3411 36.9115 89.5023 36.6266 89.7139 36.3857C89.9255 36.1449 90.1842 35.9577 90.4902 35.8242C90.7962 35.6875 91.1445 35.6191 91.5352 35.6191C91.9323 35.6191 92.2839 35.6875 92.5898 35.8242C92.8991 35.9577 93.1595 36.1449 93.3711 36.3857C93.5827 36.6266 93.7438 36.9115 93.8545 37.2402C93.9652 37.5658 94.0205 37.9222 94.0205 38.3096V38.4121C94.0205 38.7962 93.9652 39.1527 93.8545 39.4814C93.7438 39.807 93.5827 40.0918 93.3711 40.3359C93.1595 40.5768 92.9007 40.764 92.5947 40.8975C92.2887 41.0309 91.9388 41.0977 91.5449 41.0977C91.1543 41.0977 90.8044 41.0309 90.4951 40.8975C90.1859 40.764 89.9255 40.5768 89.7139 40.3359C89.5023 40.0918 89.3411 39.807 89.2305 39.4814C89.1198 39.1527 89.0645 38.7962 89.0645 38.4121ZM90.3535 38.3096V38.4121C90.3535 38.6432 90.3763 38.8597 90.4219 39.0615C90.4674 39.2633 90.5374 39.4408 90.6318 39.5938C90.7262 39.7467 90.8483 39.8672 90.998 39.9551C91.151 40.0397 91.3333 40.082 91.5449 40.082C91.7533 40.082 91.9323 40.0397 92.082 39.9551C92.2318 39.8672 92.3538 39.7467 92.4482 39.5938C92.5459 39.4408 92.6175 39.2633 92.6631 39.0615C92.7087 38.8597 92.7314 38.6432 92.7314 38.4121V38.3096C92.7314 38.0817 92.7087 37.8685 92.6631 37.6699C92.6175 37.4681 92.5459 37.2907 92.4482 37.1377C92.3538 36.9814 92.2301 36.8594 92.0771 36.7715C91.9274 36.6803 91.7467 36.6348 91.5352 36.6348C91.3268 36.6348 91.1478 36.6803 90.998 36.7715C90.8483 36.8594 90.7262 36.9814 90.6318 37.1377C90.5374 37.2907 90.4674 37.4681 90.4219 37.6699C90.3763 37.8685 90.3535 38.0817 90.3535 38.3096ZM97.458 35.7168V36.6445H94.4307V35.7168H97.458ZM95.2412 34.418H96.5352V39.4766C96.5352 39.6328 96.5563 39.7533 96.5986 39.8379C96.641 39.9225 96.7044 39.9795 96.7891 40.0088C96.8737 40.0381 96.9746 40.0527 97.0918 40.0527C97.1764 40.0527 97.2546 40.0479 97.3262 40.0381C97.3978 40.0283 97.458 40.0186 97.5068 40.0088L97.5117 40.9756C97.4043 41.0114 97.2822 41.0407 97.1455 41.0635C97.012 41.0863 96.8607 41.0977 96.6914 41.0977C96.4017 41.0977 96.1478 41.0488 95.9297 40.9512C95.7116 40.8503 95.5423 40.6891 95.4219 40.4678C95.3014 40.2432 95.2412 39.9469 95.2412 39.5791V34.418ZM99.6846 35.7168V41H98.3906V35.7168H99.6846ZM98.3027 34.335C98.3027 34.1429 98.3678 33.9834 98.498 33.8564C98.6315 33.7295 98.8105 33.666 99.0352 33.666C99.2598 33.666 99.4372 33.7295 99.5674 33.8564C99.7008 33.9834 99.7676 34.1429 99.7676 34.335C99.7676 34.5238 99.7008 34.6816 99.5674 34.8086C99.4372 34.9355 99.2598 34.999 99.0352 34.999C98.8105 34.999 98.6315 34.9355 98.498 34.8086C98.3678 34.6816 98.3027 34.5238 98.3027 34.335ZM102.668 40.0234L103.898 35.7168H105.246L103.435 41H102.614L102.668 40.0234ZM101.77 35.7168L103.015 40.0332L103.059 41H102.233L100.417 35.7168H101.77ZM107.292 33.5V41H105.998V33.5H107.292ZM111.433 39.877V37.4404C111.433 37.2614 111.402 37.1068 111.34 36.9766C111.278 36.8464 111.184 36.7454 111.057 36.6738C110.93 36.6022 110.769 36.5664 110.573 36.5664C110.401 36.5664 110.249 36.5957 110.119 36.6543C109.992 36.7129 109.895 36.7959 109.826 36.9033C109.758 37.0075 109.724 37.1279 109.724 37.2646H108.43C108.43 37.0465 108.482 36.8398 108.586 36.6445C108.69 36.446 108.838 36.2702 109.03 36.1172C109.226 35.9609 109.458 35.8389 109.729 35.751C110.002 35.6631 110.308 35.6191 110.646 35.6191C111.047 35.6191 111.403 35.6875 111.716 35.8242C112.032 35.9577 112.279 36.1595 112.458 36.4297C112.64 36.6999 112.731 37.04 112.731 37.4502V39.7549C112.731 40.0186 112.748 40.2448 112.78 40.4336C112.816 40.6191 112.868 40.7803 112.937 40.917V41H111.623C111.561 40.8665 111.514 40.6973 111.481 40.4922C111.449 40.2839 111.433 40.0788 111.433 39.877ZM111.613 37.7822L111.623 38.5488H110.808C110.606 38.5488 110.428 38.57 110.275 38.6123C110.122 38.6514 109.997 38.71 109.899 38.7881C109.802 38.863 109.729 38.9541 109.68 39.0615C109.631 39.1657 109.606 39.2845 109.606 39.418C109.606 39.5482 109.636 39.6654 109.694 39.7695C109.756 39.8737 109.844 39.9567 109.958 40.0186C110.075 40.0771 110.212 40.1064 110.368 40.1064C110.596 40.1064 110.795 40.0609 110.964 39.9697C111.133 39.8753 111.265 39.7614 111.359 39.6279C111.454 39.4945 111.504 39.3675 111.511 39.2471L111.882 39.8037C111.836 39.9372 111.768 40.0788 111.677 40.2285C111.586 40.3783 111.468 40.5182 111.325 40.6484C111.182 40.7786 111.009 40.8861 110.808 40.9707C110.606 41.0553 110.371 41.0977 110.104 41.0977C109.763 41.0977 109.457 41.0293 109.187 40.8926C108.916 40.7559 108.703 40.5687 108.547 40.3311C108.391 40.0934 108.312 39.8232 108.312 39.5205C108.312 39.2406 108.365 38.9932 108.469 38.7783C108.573 38.5635 108.728 38.3828 108.933 38.2363C109.138 38.0866 109.392 37.9743 109.694 37.8994C110 37.8213 110.35 37.7822 110.744 37.7822H111.613ZM115.183 36.7959V41H113.894V35.7168H115.114L115.183 36.7959ZM116.789 35.6826L116.77 36.8838C116.698 36.8708 116.617 36.861 116.525 36.8545C116.438 36.848 116.354 36.8447 116.276 36.8447C116.078 36.8447 115.904 36.8724 115.754 36.9277C115.604 36.9798 115.479 37.0563 115.378 37.1572C115.28 37.2581 115.205 37.3818 115.153 37.5283C115.101 37.6715 115.072 37.8343 115.065 38.0166L114.787 37.9824C114.787 37.6471 114.821 37.3363 114.89 37.0498C114.958 36.7633 115.057 36.5127 115.188 36.2979C115.318 36.083 115.48 35.917 115.676 35.7998C115.874 35.6794 116.102 35.6191 116.359 35.6191C116.431 35.6191 116.507 35.6257 116.589 35.6387C116.674 35.6484 116.74 35.6631 116.789 35.6826ZM121.74 40.0234L122.971 35.7168H124.318L122.507 41H121.687L121.74 40.0234ZM120.842 35.7168L122.087 40.0332L122.131 41H121.306L119.489 35.7168H120.842ZM127.829 39.877V37.4404C127.829 37.2614 127.798 37.1068 127.736 36.9766C127.674 36.8464 127.58 36.7454 127.453 36.6738C127.326 36.6022 127.165 36.5664 126.97 36.5664C126.797 36.5664 126.646 36.5957 126.516 36.6543C126.389 36.7129 126.291 36.7959 126.223 36.9033C126.154 37.0075 126.12 37.1279 126.12 37.2646H124.826C124.826 37.0465 124.878 36.8398 124.982 36.6445C125.087 36.446 125.235 36.2702 125.427 36.1172C125.622 35.9609 125.855 35.8389 126.125 35.751C126.398 35.6631 126.704 35.6191 127.043 35.6191C127.443 35.6191 127.8 35.6875 128.112 35.8242C128.428 35.9577 128.675 36.1595 128.854 36.4297C129.037 36.6999 129.128 37.04 129.128 37.4502V39.7549C129.128 40.0186 129.144 40.2448 129.177 40.4336C129.213 40.6191 129.265 40.7803 129.333 40.917V41H128.02C127.958 40.8665 127.91 40.6973 127.878 40.4922C127.845 40.2839 127.829 40.0788 127.829 39.877ZM128.01 37.7822L128.02 38.5488H127.204C127.002 38.5488 126.825 38.57 126.672 38.6123C126.519 38.6514 126.394 38.71 126.296 38.7881C126.198 38.863 126.125 38.9541 126.076 39.0615C126.027 39.1657 126.003 39.2845 126.003 39.418C126.003 39.5482 126.032 39.6654 126.091 39.7695C126.153 39.8737 126.241 39.9567 126.354 40.0186C126.472 40.0771 126.608 40.1064 126.765 40.1064C126.993 40.1064 127.191 40.0609 127.36 39.9697C127.53 39.8753 127.661 39.7614 127.756 39.6279C127.85 39.4945 127.901 39.3675 127.907 39.2471L128.278 39.8037C128.233 39.9372 128.164 40.0788 128.073 40.2285C127.982 40.3783 127.865 40.5182 127.722 40.6484C127.578 40.7786 127.406 40.8861 127.204 40.9707C127.002 41.0553 126.768 41.0977 126.501 41.0977C126.159 41.0977 125.853 41.0293 125.583 40.8926C125.313 40.7559 125.1 40.5687 124.943 40.3311C124.787 40.0934 124.709 39.8232 124.709 39.5205C124.709 39.2406 124.761 38.9932 124.865 38.7783C124.969 38.5635 125.124 38.3828 125.329 38.2363C125.534 38.0866 125.788 37.9743 126.091 37.8994C126.397 37.8213 126.747 37.7822 127.141 37.7822H128.01ZM134.147 33.5V41H132.854V33.5H134.147ZM135.148 38.4121V38.3096C135.148 37.9222 135.204 37.5658 135.314 37.2402C135.425 36.9115 135.586 36.6266 135.798 36.3857C136.009 36.1449 136.268 35.9577 136.574 35.8242C136.88 35.6875 137.229 35.6191 137.619 35.6191C138.016 35.6191 138.368 35.6875 138.674 35.8242C138.983 35.9577 139.243 36.1449 139.455 36.3857C139.667 36.6266 139.828 36.9115 139.938 37.2402C140.049 37.5658 140.104 37.9222 140.104 38.3096V38.4121C140.104 38.7962 140.049 39.1527 139.938 39.4814C139.828 39.807 139.667 40.0918 139.455 40.3359C139.243 40.5768 138.985 40.764 138.679 40.8975C138.373 41.0309 138.023 41.0977 137.629 41.0977C137.238 41.0977 136.888 41.0309 136.579 40.8975C136.27 40.764 136.009 40.5768 135.798 40.3359C135.586 40.0918 135.425 39.807 135.314 39.4814C135.204 39.1527 135.148 38.7962 135.148 38.4121ZM136.438 38.3096V38.4121C136.438 38.6432 136.46 38.8597 136.506 39.0615C136.551 39.2633 136.621 39.4408 136.716 39.5938C136.81 39.7467 136.932 39.8672 137.082 39.9551C137.235 40.0397 137.417 40.082 137.629 40.082C137.837 40.082 138.016 40.0397 138.166 39.9551C138.316 39.8672 138.438 39.7467 138.532 39.5938C138.63 39.4408 138.701 39.2633 138.747 39.0615C138.793 38.8597 138.815 38.6432 138.815 38.4121V38.3096C138.815 38.0817 138.793 37.8685 138.747 37.6699C138.701 37.4681 138.63 37.2907 138.532 37.1377C138.438 36.9814 138.314 36.8594 138.161 36.7715C138.011 36.6803 137.831 36.6348 137.619 36.6348C137.411 36.6348 137.232 36.6803 137.082 36.7715C136.932 36.8594 136.81 36.9814 136.716 37.1377C136.621 37.2907 136.551 37.4681 136.506 37.6699C136.46 37.8685 136.438 38.0817 136.438 38.3096ZM142.331 33.4951V41H141.042V33.4951H142.331ZM145.642 35.7168L143.342 38.2998L142.097 39.5645L141.687 38.5635L142.648 37.3525L144.084 35.7168H145.642ZM144.323 41L142.688 38.5391L143.547 37.7041L145.817 41H144.323ZM146.096 38.4121V38.3096C146.096 37.9222 146.151 37.5658 146.262 37.2402C146.372 36.9115 146.534 36.6266 146.745 36.3857C146.957 36.1449 147.215 35.9577 147.521 35.8242C147.827 35.6875 148.176 35.6191 148.566 35.6191C148.964 35.6191 149.315 35.6875 149.621 35.8242C149.93 35.9577 150.191 36.1449 150.402 36.3857C150.614 36.6266 150.775 36.9115 150.886 37.2402C150.996 37.5658 151.052 37.9222 151.052 38.3096V38.4121C151.052 38.7962 150.996 39.1527 150.886 39.4814C150.775 39.807 150.614 40.0918 150.402 40.3359C150.191 40.5768 149.932 40.764 149.626 40.8975C149.32 41.0309 148.97 41.0977 148.576 41.0977C148.186 41.0977 147.836 41.0309 147.526 40.8975C147.217 40.764 146.957 40.5768 146.745 40.3359C146.534 40.0918 146.372 39.807 146.262 39.4814C146.151 39.1527 146.096 38.7962 146.096 38.4121ZM147.385 38.3096V38.4121C147.385 38.6432 147.408 38.8597 147.453 39.0615C147.499 39.2633 147.569 39.4408 147.663 39.5938C147.757 39.7467 147.88 39.8672 148.029 39.9551C148.182 40.0397 148.365 40.082 148.576 40.082C148.785 40.082 148.964 40.0397 149.113 39.9551C149.263 39.8672 149.385 39.7467 149.479 39.5938C149.577 39.4408 149.649 39.2633 149.694 39.0615C149.74 38.8597 149.763 38.6432 149.763 38.4121V38.3096C149.763 38.0817 149.74 37.8685 149.694 37.6699C149.649 37.4681 149.577 37.2907 149.479 37.1377C149.385 36.9814 149.261 36.8594 149.108 36.7715C148.959 36.6803 148.778 36.6348 148.566 36.6348C148.358 36.6348 148.179 36.6803 148.029 36.7715C147.88 36.8594 147.757 36.9814 147.663 37.1377C147.569 37.2907 147.499 37.4681 147.453 37.6699C147.408 37.8685 147.385 38.0817 147.385 38.3096ZM153.273 36.8008V41H151.984V35.7168H153.2L153.273 36.8008ZM153.083 38.168H152.688C152.688 37.8001 152.731 37.4616 152.819 37.1523C152.91 36.8431 153.044 36.5745 153.22 36.3467C153.396 36.1156 153.612 35.9365 153.869 35.8096C154.13 35.6826 154.431 35.6191 154.772 35.6191C155.01 35.6191 155.228 35.6549 155.427 35.7266C155.625 35.7949 155.796 35.904 155.939 36.0537C156.086 36.2002 156.198 36.3923 156.276 36.6299C156.354 36.8643 156.394 37.1458 156.394 37.4746V41H155.104V37.6064C155.104 37.359 155.069 37.1654 154.997 37.0254C154.929 36.8854 154.829 36.7878 154.699 36.7324C154.569 36.6738 154.413 36.6445 154.23 36.6445C154.029 36.6445 153.854 36.6852 153.708 36.7666C153.565 36.8447 153.446 36.9538 153.352 37.0938C153.26 37.2337 153.192 37.3949 153.146 37.5771C153.104 37.7594 153.083 37.9564 153.083 38.168ZM156.296 37.9287L155.764 38.0264C155.767 37.6943 155.812 37.3835 155.9 37.0938C155.988 36.8008 156.117 36.5452 156.286 36.3271C156.459 36.1058 156.672 35.9333 156.926 35.8096C157.183 35.6826 157.479 35.6191 157.814 35.6191C158.075 35.6191 158.309 35.6566 158.518 35.7314C158.729 35.8031 158.91 35.9186 159.06 36.0781C159.209 36.2344 159.323 36.4378 159.401 36.6885C159.483 36.9391 159.523 37.2451 159.523 37.6064V41H158.225V37.6016C158.225 37.3444 158.189 37.1475 158.117 37.0107C158.049 36.874 157.95 36.7796 157.819 36.7275C157.689 36.6722 157.536 36.6445 157.36 36.6445C157.181 36.6445 157.025 36.6787 156.892 36.7471C156.761 36.8122 156.651 36.9033 156.56 37.0205C156.472 37.1377 156.405 37.2744 156.359 37.4307C156.317 37.5837 156.296 37.7497 156.296 37.9287ZM160.451 38.4121V38.3096C160.451 37.9222 160.507 37.5658 160.617 37.2402C160.728 36.9115 160.889 36.6266 161.101 36.3857C161.312 36.1449 161.571 35.9577 161.877 35.8242C162.183 35.6875 162.531 35.6191 162.922 35.6191C163.319 35.6191 163.671 35.6875 163.977 35.8242C164.286 35.9577 164.546 36.1449 164.758 36.3857C164.969 36.6266 165.131 36.9115 165.241 37.2402C165.352 37.5658 165.407 37.9222 165.407 38.3096V38.4121C165.407 38.7962 165.352 39.1527 165.241 39.4814C165.131 39.807 164.969 40.0918 164.758 40.3359C164.546 40.5768 164.287 40.764 163.981 40.8975C163.675 41.0309 163.326 41.0977 162.932 41.0977C162.541 41.0977 162.191 41.0309 161.882 40.8975C161.573 40.764 161.312 40.5768 161.101 40.3359C160.889 40.0918 160.728 39.807 160.617 39.4814C160.507 39.1527 160.451 38.7962 160.451 38.4121ZM161.74 38.3096V38.4121C161.74 38.6432 161.763 38.8597 161.809 39.0615C161.854 39.2633 161.924 39.4408 162.019 39.5938C162.113 39.7467 162.235 39.8672 162.385 39.9551C162.538 40.0397 162.72 40.082 162.932 40.082C163.14 40.082 163.319 40.0397 163.469 39.9551C163.618 39.8672 163.741 39.7467 163.835 39.5938C163.933 39.4408 164.004 39.2633 164.05 39.0615C164.095 38.8597 164.118 38.6432 164.118 38.4121V38.3096C164.118 38.0817 164.095 37.8685 164.05 37.6699C164.004 37.4681 163.933 37.2907 163.835 37.1377C163.741 36.9814 163.617 36.8594 163.464 36.7715C163.314 36.6803 163.133 36.6348 162.922 36.6348C162.714 36.6348 162.535 36.6803 162.385 36.7715C162.235 36.8594 162.113 36.9814 162.019 37.1377C161.924 37.2907 161.854 37.4681 161.809 37.6699C161.763 37.8685 161.74 38.0817 161.74 38.3096ZM168.845 35.7168V36.6445H165.817V35.7168H168.845ZM166.628 34.418H167.922V39.4766C167.922 39.6328 167.943 39.7533 167.985 39.8379C168.028 39.9225 168.091 39.9795 168.176 40.0088C168.26 40.0381 168.361 40.0527 168.479 40.0527C168.563 40.0527 168.641 40.0479 168.713 40.0381C168.785 40.0283 168.845 40.0186 168.894 40.0088L168.898 40.9756C168.791 41.0114 168.669 41.0407 168.532 41.0635C168.399 41.0863 168.247 41.0977 168.078 41.0977C167.788 41.0977 167.535 41.0488 167.316 40.9512C167.098 40.8503 166.929 40.6891 166.809 40.4678C166.688 40.2432 166.628 39.9469 166.628 39.5791V34.418ZM171.071 35.7168V41H169.777V35.7168H171.071ZM169.689 34.335C169.689 34.1429 169.755 33.9834 169.885 33.8564C170.018 33.7295 170.197 33.666 170.422 33.666C170.646 33.666 170.824 33.7295 170.954 33.8564C171.088 33.9834 171.154 34.1429 171.154 34.335C171.154 34.5238 171.088 34.6816 170.954 34.8086C170.824 34.9355 170.646 34.999 170.422 34.999C170.197 34.999 170.018 34.9355 169.885 34.8086C169.755 34.6816 169.689 34.5238 169.689 34.335ZM174.055 40.0234L175.285 35.7168H176.633L174.821 41H174.001L174.055 40.0234ZM173.156 35.7168L174.401 40.0332L174.445 41H173.62L171.804 35.7168H173.156ZM59.5918 48.7168L60.5342 50.3965L61.4912 48.7168H62.8926L61.3398 51.3047L62.9561 54H61.5547L60.5439 52.2373L59.5283 54H58.127L59.7383 51.3047L58.1953 48.7168H59.5918ZM63.2637 51.4121V51.3096C63.2637 50.9222 63.319 50.5658 63.4297 50.2402C63.5404 49.9115 63.7015 49.6266 63.9131 49.3857C64.1247 49.1449 64.3835 48.9577 64.6895 48.8242C64.9954 48.6875 65.3438 48.6191 65.7344 48.6191C66.1315 48.6191 66.4831 48.6875 66.7891 48.8242C67.0983 48.9577 67.3587 49.1449 67.5703 49.3857C67.7819 49.6266 67.943 49.9115 68.0537 50.2402C68.1644 50.5658 68.2197 50.9222 68.2197 51.3096V51.4121C68.2197 51.7962 68.1644 52.1527 68.0537 52.4814C67.943 52.807 67.7819 53.0918 67.5703 53.3359C67.3587 53.5768 67.0999 53.764 66.7939 53.8975C66.488 54.0309 66.138 54.0977 65.7441 54.0977C65.3535 54.0977 65.0036 54.0309 64.6943 53.8975C64.3851 53.764 64.1247 53.5768 63.9131 53.3359C63.7015 53.0918 63.5404 52.807 63.4297 52.4814C63.319 52.1527 63.2637 51.7962 63.2637 51.4121ZM64.5527 51.3096V51.4121C64.5527 51.6432 64.5755 51.8597 64.6211 52.0615C64.6667 52.2633 64.7367 52.4408 64.8311 52.5938C64.9255 52.7467 65.0475 52.8672 65.1973 52.9551C65.3503 53.0397 65.5326 53.082 65.7441 53.082C65.9525 53.082 66.1315 53.0397 66.2812 52.9551C66.431 52.8672 66.5531 52.7467 66.6475 52.5938C66.7451 52.4408 66.8167 52.2633 66.8623 52.0615C66.9079 51.8597 66.9307 51.6432 66.9307 51.4121V51.3096C66.9307 51.0817 66.9079 50.8685 66.8623 50.6699C66.8167 50.4681 66.7451 50.2907 66.6475 50.1377C66.5531 49.9814 66.4294 49.8594 66.2764 49.7715C66.1266 49.6803 65.946 49.6348 65.7344 49.6348C65.526 49.6348 65.347 49.6803 65.1973 49.7715C65.0475 49.8594 64.9255 49.9814 64.8311 50.1377C64.7367 50.2907 64.6667 50.4681 64.6211 50.6699C64.5755 50.8685 64.5527 51.0817 64.5527 51.3096ZM70.2803 46.5L71.2373 47.9844H70.168L68.8496 46.5H70.2803ZM72.4727 48.7168H73.7715V54.3906C73.7715 54.765 73.7031 55.0824 73.5664 55.3428C73.4329 55.6032 73.2393 55.8001 72.9854 55.9336C72.7314 56.0671 72.4206 56.1338 72.0527 56.1338C71.9388 56.1338 71.8249 56.1273 71.7109 56.1143C71.597 56.1012 71.4847 56.0801 71.374 56.0508L71.3789 55.0547C71.4505 55.0677 71.5238 55.0775 71.5986 55.084C71.6735 55.0938 71.7484 55.0986 71.8232 55.0986C71.9632 55.0986 72.0804 55.0742 72.1748 55.0254C72.2725 54.9766 72.3457 54.9001 72.3945 54.7959C72.4466 54.6917 72.4727 54.5566 72.4727 54.3906V48.7168ZM72.3652 47.335C72.3652 47.1429 72.4303 46.9834 72.5605 46.8564C72.694 46.7295 72.873 46.666 73.0977 46.666C73.3223 46.666 73.4997 46.7295 73.6299 46.8564C73.7633 46.9834 73.8301 47.1429 73.8301 47.335C73.8301 47.5238 73.7633 47.6816 73.6299 47.8086C73.4997 47.9355 73.3223 47.999 73.0977 47.999C72.873 47.999 72.694 47.9355 72.5605 47.8086C72.4303 47.6816 72.3652 47.5238 72.3652 47.335ZM77.8779 52.877V50.4404C77.8779 50.2614 77.847 50.1068 77.7852 49.9766C77.7233 49.8464 77.6289 49.7454 77.502 49.6738C77.375 49.6022 77.2139 49.5664 77.0186 49.5664C76.846 49.5664 76.6947 49.5957 76.5645 49.6543C76.4375 49.7129 76.3398 49.7959 76.2715 49.9033C76.2031 50.0075 76.1689 50.1279 76.1689 50.2646H74.875C74.875 50.0465 74.9271 49.8398 75.0312 49.6445C75.1354 49.446 75.2835 49.2702 75.4756 49.1172C75.6709 48.9609 75.9036 48.8389 76.1738 48.751C76.4473 48.6631 76.7533 48.6191 77.0918 48.6191C77.4922 48.6191 77.8486 48.6875 78.1611 48.8242C78.4769 48.9577 78.7243 49.1595 78.9033 49.4297C79.0856 49.6999 79.1768 50.04 79.1768 50.4502V52.7549C79.1768 53.0186 79.193 53.2448 79.2256 53.4336C79.2614 53.6191 79.3135 53.7803 79.3818 53.917V54H78.0684C78.0065 53.8665 77.9593 53.6973 77.9268 53.4922C77.8942 53.2839 77.8779 53.0788 77.8779 52.877ZM78.0586 50.7822L78.0684 51.5488H77.2529C77.0511 51.5488 76.8737 51.57 76.7207 51.6123C76.5677 51.6514 76.4424 51.71 76.3447 51.7881C76.2471 51.863 76.1738 51.9541 76.125 52.0615C76.0762 52.1657 76.0518 52.2845 76.0518 52.418C76.0518 52.5482 76.0811 52.6654 76.1396 52.7695C76.2015 52.8737 76.2894 52.9567 76.4033 53.0186C76.5205 53.0771 76.6572 53.1064 76.8135 53.1064C77.0413 53.1064 77.2399 53.0609 77.4092 52.9697C77.5785 52.8753 77.7103 52.7614 77.8047 52.6279C77.8991 52.4945 77.9495 52.3675 77.9561 52.2471L78.3271 52.8037C78.2816 52.9372 78.2132 53.0788 78.1221 53.2285C78.0309 53.3783 77.9137 53.5182 77.7705 53.6484C77.6273 53.7786 77.4548 53.8861 77.2529 53.9707C77.0511 54.0553 76.8167 54.0977 76.5498 54.0977C76.208 54.0977 75.902 54.0293 75.6318 53.8926C75.3617 53.7559 75.1484 53.5687 74.9922 53.3311C74.8359 53.0934 74.7578 52.8232 74.7578 52.5205C74.7578 52.2406 74.8099 51.9932 74.9141 51.7783C75.0182 51.5635 75.1729 51.3828 75.3779 51.2363C75.583 51.0866 75.8369 50.9743 76.1396 50.8994C76.4456 50.8213 76.7956 50.7822 77.1895 50.7822H78.0586ZM81.7061 46.5V54H80.4121V46.5H81.7061ZM84.3037 48.7168V54H83.0098V48.7168H84.3037ZM82.9219 47.335C82.9219 47.1429 82.987 46.9834 83.1172 46.8564C83.2507 46.7295 83.4297 46.666 83.6543 46.666C83.8789 46.666 84.0563 46.7295 84.1865 46.8564C84.32 46.9834 84.3867 47.1429 84.3867 47.335C84.3867 47.5238 84.32 47.6816 84.1865 47.8086C84.0563 47.9355 83.8789 47.999 83.6543 47.999C83.4297 47.999 83.2507 47.9355 83.1172 47.8086C82.987 47.6816 82.9219 47.5238 82.9219 47.335ZM88.8936 48.7168H90.0654V53.8389C90.0654 54.3174 89.9613 54.7227 89.7529 55.0547C89.5479 55.39 89.2598 55.6439 88.8887 55.8164C88.5176 55.9922 88.0863 56.0801 87.5947 56.0801C87.3831 56.0801 87.1536 56.0508 86.9062 55.9922C86.6621 55.9336 86.4261 55.8408 86.1982 55.7139C85.9736 55.5902 85.7865 55.429 85.6367 55.2305L86.2178 54.4688C86.3936 54.6738 86.5921 54.8285 86.8135 54.9326C87.0348 55.04 87.2741 55.0938 87.5312 55.0938C87.7917 55.0938 88.013 55.0449 88.1953 54.9473C88.3809 54.8529 88.5225 54.7129 88.6201 54.5273C88.721 54.3451 88.7715 54.1204 88.7715 53.8535V49.9229L88.8936 48.7168ZM85.3242 51.4219V51.3193C85.3242 50.9157 85.373 50.5495 85.4707 50.2207C85.5684 49.8887 85.7083 49.6038 85.8906 49.3662C86.0762 49.1286 86.2992 48.9447 86.5596 48.8145C86.8232 48.6842 87.1195 48.6191 87.4482 48.6191C87.7965 48.6191 88.0895 48.6826 88.3271 48.8096C88.568 48.9365 88.7666 49.1172 88.9229 49.3516C89.0824 49.5859 89.2061 49.8643 89.2939 50.1865C89.3851 50.5055 89.4551 50.8571 89.5039 51.2412V51.5195C89.4583 51.8939 89.3851 52.2373 89.2842 52.5498C89.1865 52.8623 89.0563 53.1357 88.8936 53.3701C88.7308 53.6012 88.529 53.7803 88.2881 53.9072C88.0472 54.0342 87.764 54.0977 87.4385 54.0977C87.113 54.0977 86.82 54.0309 86.5596 53.8975C86.2992 53.764 86.0762 53.5768 85.8906 53.3359C85.7083 53.0951 85.5684 52.8118 85.4707 52.4863C85.373 52.1608 85.3242 51.806 85.3242 51.4219ZM86.6133 51.3193V51.4219C86.6133 51.6497 86.6361 51.863 86.6816 52.0615C86.7272 52.2601 86.7972 52.4359 86.8916 52.5889C86.986 52.7386 87.1048 52.8558 87.248 52.9404C87.3913 53.0251 87.5622 53.0674 87.7607 53.0674C88.0277 53.0674 88.2458 53.012 88.415 52.9014C88.5876 52.7874 88.7178 52.6328 88.8057 52.4375C88.8968 52.2389 88.9554 52.016 88.9814 51.7686V51.002C88.9652 50.8066 88.9294 50.626 88.874 50.46C88.8219 50.2939 88.7487 50.1507 88.6543 50.0303C88.5599 49.9098 88.4395 49.8154 88.293 49.7471C88.1465 49.6787 87.9723 49.6445 87.7705 49.6445C87.5752 49.6445 87.4043 49.6885 87.2578 49.7764C87.1113 49.861 86.9909 49.9798 86.8965 50.1328C86.8021 50.2858 86.7305 50.4632 86.6816 50.665C86.6361 50.8669 86.6133 51.085 86.6133 51.3193ZM92.5947 48.7168V54H91.3008V48.7168H92.5947ZM91.2129 47.335C91.2129 47.1429 91.278 46.9834 91.4082 46.8564C91.5417 46.7295 91.7207 46.666 91.9453 46.666C92.1699 46.666 92.3473 46.7295 92.4775 46.8564C92.611 46.9834 92.6777 47.1429 92.6777 47.335C92.6777 47.5238 92.611 47.6816 92.4775 47.8086C92.3473 47.9355 92.1699 47.999 91.9453 47.999C91.7207 47.999 91.5417 47.9355 91.4082 47.8086C91.278 47.6816 91.2129 47.5238 91.2129 47.335ZM97.6045 46.4951V54H96.3154V46.4951H97.6045ZM100.915 48.7168L98.6152 51.2998L97.3701 52.5645L96.96 51.5635L97.9219 50.3525L99.3574 48.7168H100.915ZM99.5967 54L97.9609 51.5391L98.8203 50.7041L101.091 54H99.5967ZM104.509 52.877V50.4404C104.509 50.2614 104.478 50.1068 104.416 49.9766C104.354 49.8464 104.26 49.7454 104.133 49.6738C104.006 49.6022 103.845 49.5664 103.649 49.5664C103.477 49.5664 103.326 49.5957 103.195 49.6543C103.068 49.7129 102.971 49.7959 102.902 49.9033C102.834 50.0075 102.8 50.1279 102.8 50.2646H101.506C101.506 50.0465 101.558 49.8398 101.662 49.6445C101.766 49.446 101.914 49.2702 102.106 49.1172C102.302 48.9609 102.535 48.8389 102.805 48.751C103.078 48.6631 103.384 48.6191 103.723 48.6191C104.123 48.6191 104.479 48.6875 104.792 48.8242C105.108 48.9577 105.355 49.1595 105.534 49.4297C105.716 49.6999 105.808 50.04 105.808 50.4502V52.7549C105.808 53.0186 105.824 53.2448 105.856 53.4336C105.892 53.6191 105.944 53.7803 106.013 53.917V54H104.699C104.637 53.8665 104.59 53.6973 104.558 53.4922C104.525 53.2839 104.509 53.0788 104.509 52.877ZM104.689 50.7822L104.699 51.5488H103.884C103.682 51.5488 103.505 51.57 103.352 51.6123C103.199 51.6514 103.073 51.71 102.976 51.7881C102.878 51.863 102.805 51.9541 102.756 52.0615C102.707 52.1657 102.683 52.2845 102.683 52.418C102.683 52.5482 102.712 52.6654 102.771 52.7695C102.832 52.8737 102.92 52.9567 103.034 53.0186C103.151 53.0771 103.288 53.1064 103.444 53.1064C103.672 53.1064 103.871 53.0609 104.04 52.9697C104.209 52.8753 104.341 52.7614 104.436 52.6279C104.53 52.4945 104.58 52.3675 104.587 52.2471L104.958 52.8037C104.912 52.9372 104.844 53.0788 104.753 53.2285C104.662 53.3783 104.545 53.5182 104.401 53.6484C104.258 53.7786 104.086 53.8861 103.884 53.9707C103.682 54.0553 103.448 54.0977 103.181 54.0977C102.839 54.0977 102.533 54.0293 102.263 53.8926C101.993 53.7559 101.779 53.5687 101.623 53.3311C101.467 53.0934 101.389 52.8232 101.389 52.5205C101.389 52.2406 101.441 51.9932 101.545 51.7783C101.649 51.5635 101.804 51.3828 102.009 51.2363C102.214 51.0866 102.468 50.9743 102.771 50.8994C103.076 50.8213 103.426 50.7822 103.82 50.7822H104.689ZM108.659 54H107.36V48.2285C107.36 47.8314 107.437 47.4977 107.59 47.2275C107.743 46.9541 107.961 46.7474 108.244 46.6074C108.527 46.4674 108.861 46.3975 109.245 46.3975C109.372 46.3975 109.493 46.4056 109.606 46.4219C109.724 46.4382 109.839 46.4609 109.953 46.4902L109.929 47.4717C109.867 47.4554 109.799 47.444 109.724 47.4375C109.652 47.431 109.572 47.4277 109.484 47.4277C109.309 47.4277 109.159 47.4587 109.035 47.5205C108.911 47.5824 108.817 47.6735 108.752 47.7939C108.69 47.9111 108.659 48.056 108.659 48.2285V54ZM109.729 48.7168V49.6445H106.564V48.7168H109.729ZM112.78 54.0977C112.38 54.0977 112.02 54.0326 111.701 53.9023C111.382 53.7721 111.11 53.5915 110.886 53.3604C110.664 53.126 110.493 52.8542 110.373 52.5449C110.256 52.2324 110.197 51.8971 110.197 51.5391V51.3438C110.197 50.9368 110.256 50.5674 110.373 50.2354C110.49 49.9001 110.656 49.612 110.871 49.3711C111.086 49.1302 111.343 48.9447 111.643 48.8145C111.942 48.6842 112.272 48.6191 112.634 48.6191C113.008 48.6191 113.339 48.6826 113.625 48.8096C113.911 48.9333 114.151 49.109 114.343 49.3369C114.535 49.5648 114.68 49.8382 114.777 50.1572C114.875 50.473 114.924 50.8229 114.924 51.207V51.749H110.783V50.8604H113.654V50.7627C113.648 50.5576 113.609 50.3704 113.537 50.2012C113.465 50.0286 113.355 49.8919 113.205 49.791C113.055 49.6868 112.862 49.6348 112.624 49.6348C112.432 49.6348 112.264 49.6771 112.121 49.7617C111.981 49.8431 111.864 49.9603 111.77 50.1133C111.678 50.263 111.61 50.4421 111.564 50.6504C111.519 50.8587 111.496 51.0898 111.496 51.3438V51.5391C111.496 51.7604 111.525 51.9655 111.584 52.1543C111.646 52.3431 111.735 52.5075 111.853 52.6475C111.973 52.7842 112.116 52.8916 112.282 52.9697C112.451 53.0446 112.644 53.082 112.858 53.082C113.129 53.082 113.373 53.0299 113.591 52.9258C113.812 52.8184 114.004 52.6605 114.167 52.4521L114.816 53.126C114.706 53.2887 114.556 53.445 114.367 53.5947C114.182 53.7445 113.957 53.8665 113.693 53.9609C113.43 54.0521 113.125 54.0977 112.78 54.0977ZM118.957 52.877V46.5H120.256V54H119.084L118.957 52.877ZM115.563 51.4219V51.3193C115.563 50.9157 115.609 50.5495 115.7 50.2207C115.795 49.8887 115.931 49.6038 116.11 49.3662C116.289 49.1286 116.506 48.9447 116.76 48.8145C117.017 48.6842 117.308 48.6191 117.634 48.6191C117.95 48.6191 118.225 48.6826 118.459 48.8096C118.697 48.9365 118.898 49.1172 119.064 49.3516C119.234 49.5859 119.369 49.8643 119.47 50.1865C119.571 50.5055 119.644 50.8571 119.689 51.2412V51.5195C119.644 51.8939 119.571 52.2373 119.47 52.5498C119.369 52.8623 119.234 53.1357 119.064 53.3701C118.898 53.6012 118.697 53.7803 118.459 53.9072C118.221 54.0342 117.943 54.0977 117.624 54.0977C117.302 54.0977 117.012 54.0309 116.755 53.8975C116.501 53.764 116.285 53.5768 116.105 53.3359C115.93 53.0951 115.795 52.8118 115.7 52.4863C115.609 52.1608 115.563 51.806 115.563 51.4219ZM116.857 51.3193V51.4219C116.857 51.6497 116.877 51.863 116.916 52.0615C116.955 52.2601 117.019 52.4359 117.106 52.5889C117.194 52.7386 117.307 52.8558 117.443 52.9404C117.583 53.0251 117.753 53.0674 117.951 53.0674C118.205 53.0674 118.413 53.012 118.576 52.9014C118.742 52.7874 118.871 52.6328 118.962 52.4375C119.053 52.2389 119.112 52.016 119.138 51.7686V51.002C119.125 50.8066 119.09 50.626 119.035 50.46C118.983 50.2939 118.908 50.1507 118.811 50.0303C118.716 49.9098 118.599 49.8154 118.459 49.7471C118.319 49.6787 118.153 49.6445 117.961 49.6445C117.762 49.6445 117.593 49.6885 117.453 49.7764C117.313 49.861 117.199 49.9798 117.111 50.1328C117.023 50.2858 116.958 50.4632 116.916 50.665C116.877 50.8669 116.857 51.085 116.857 51.3193ZM122.712 49.7959V54H121.423V48.7168H122.644L122.712 49.7959ZM124.318 48.6826L124.299 49.8838C124.227 49.8708 124.146 49.861 124.055 49.8545C123.967 49.848 123.884 49.8447 123.806 49.8447C123.607 49.8447 123.433 49.8724 123.283 49.9277C123.133 49.9798 123.008 50.0563 122.907 50.1572C122.81 50.2581 122.735 50.3818 122.683 50.5283C122.631 50.6715 122.601 50.8343 122.595 51.0166L122.316 50.9824C122.316 50.6471 122.351 50.3363 122.419 50.0498C122.487 49.7633 122.587 49.5127 122.717 49.2979C122.847 49.083 123.01 48.917 123.205 48.7998C123.404 48.6794 123.632 48.6191 123.889 48.6191C123.96 48.6191 124.037 48.6257 124.118 48.6387C124.203 48.6484 124.27 48.6631 124.318 48.6826ZM127.771 52.877V50.4404C127.771 50.2614 127.74 50.1068 127.678 49.9766C127.616 49.8464 127.521 49.7454 127.395 49.6738C127.268 49.6022 127.106 49.5664 126.911 49.5664C126.739 49.5664 126.587 49.5957 126.457 49.6543C126.33 49.7129 126.232 49.7959 126.164 49.9033C126.096 50.0075 126.062 50.1279 126.062 50.2646H124.768C124.768 50.0465 124.82 49.8398 124.924 49.6445C125.028 49.446 125.176 49.2702 125.368 49.1172C125.563 48.9609 125.796 48.8389 126.066 48.751C126.34 48.6631 126.646 48.6191 126.984 48.6191C127.385 48.6191 127.741 48.6875 128.054 48.8242C128.369 48.9577 128.617 49.1595 128.796 49.4297C128.978 49.6999 129.069 50.04 129.069 50.4502V52.7549C129.069 53.0186 129.086 53.2448 129.118 53.4336C129.154 53.6191 129.206 53.7803 129.274 53.917V54H127.961C127.899 53.8665 127.852 53.6973 127.819 53.4922C127.787 53.2839 127.771 53.0788 127.771 52.877ZM127.951 50.7822L127.961 51.5488H127.146C126.944 51.5488 126.766 51.57 126.613 51.6123C126.46 51.6514 126.335 51.71 126.237 51.7881C126.14 51.863 126.066 51.9541 126.018 52.0615C125.969 52.1657 125.944 52.2845 125.944 52.418C125.944 52.5482 125.974 52.6654 126.032 52.7695C126.094 52.8737 126.182 52.9567 126.296 53.0186C126.413 53.0771 126.55 53.1064 126.706 53.1064C126.934 53.1064 127.132 53.0609 127.302 52.9697C127.471 52.8753 127.603 52.7614 127.697 52.6279C127.792 52.4945 127.842 52.3675 127.849 52.2471L128.22 52.8037C128.174 52.9372 128.106 53.0788 128.015 53.2285C127.924 53.3783 127.806 53.5182 127.663 53.6484C127.52 53.7786 127.347 53.8861 127.146 53.9707C126.944 54.0553 126.709 54.0977 126.442 54.0977C126.101 54.0977 125.795 54.0293 125.524 53.8926C125.254 53.7559 125.041 53.5687 124.885 53.3311C124.729 53.0934 124.65 52.8232 124.65 52.5205C124.65 52.2406 124.702 51.9932 124.807 51.7783C124.911 51.5635 125.065 51.3828 125.271 51.2363C125.476 51.0866 125.729 50.9743 126.032 50.8994C126.338 50.8213 126.688 50.7822 127.082 50.7822H127.951ZM133.137 52.5547C133.137 52.444 133.107 52.3447 133.049 52.2568C132.99 52.1689 132.88 52.0892 132.717 52.0176C132.557 51.9427 132.323 51.8727 132.014 51.8076C131.74 51.749 131.488 51.6758 131.257 51.5879C131.026 51.5 130.827 51.3942 130.661 51.2705C130.495 51.1436 130.365 50.9954 130.271 50.8262C130.179 50.6536 130.134 50.4551 130.134 50.2305C130.134 50.0124 130.181 49.8073 130.275 49.6152C130.37 49.4199 130.507 49.249 130.686 49.1025C130.865 48.9528 131.083 48.8356 131.34 48.751C131.597 48.6631 131.887 48.6191 132.209 48.6191C132.658 48.6191 133.044 48.6924 133.366 48.8389C133.692 48.9854 133.941 49.1872 134.113 49.4443C134.286 49.6982 134.372 49.9847 134.372 50.3037H133.083C133.083 50.1637 133.05 50.0368 132.985 49.9229C132.924 49.8089 132.827 49.7178 132.697 49.6494C132.567 49.5778 132.403 49.542 132.204 49.542C132.025 49.542 131.874 49.5713 131.75 49.6299C131.63 49.6885 131.538 49.765 131.477 49.8594C131.415 49.9538 131.384 50.0579 131.384 50.1719C131.384 50.2565 131.4 50.333 131.433 50.4014C131.468 50.4665 131.525 50.5267 131.604 50.582C131.682 50.6374 131.787 50.6878 131.921 50.7334C132.058 50.779 132.225 50.8229 132.424 50.8652C132.818 50.9434 133.161 51.0475 133.454 51.1777C133.75 51.3047 133.981 51.474 134.147 51.6855C134.313 51.8971 134.396 52.1673 134.396 52.4961C134.396 52.7305 134.346 52.9453 134.245 53.1406C134.144 53.3327 133.998 53.5003 133.806 53.6436C133.614 53.7868 133.384 53.8991 133.117 53.9805C132.85 54.0586 132.549 54.0977 132.214 54.0977C131.729 54.0977 131.319 54.0114 130.983 53.8389C130.648 53.6631 130.394 53.4417 130.222 53.1748C130.049 52.9046 129.963 52.6247 129.963 52.335H131.198C131.208 52.54 131.263 52.7044 131.364 52.8281C131.465 52.9518 131.592 53.0413 131.745 53.0967C131.901 53.1488 132.066 53.1748 132.238 53.1748C132.434 53.1748 132.598 53.1488 132.731 53.0967C132.865 53.0413 132.966 52.9681 133.034 52.877C133.103 52.7826 133.137 52.6751 133.137 52.5547ZM136.745 48.7168V54H135.451V48.7168H136.745ZM135.363 47.335C135.363 47.1429 135.428 46.9834 135.559 46.8564C135.692 46.7295 135.871 46.666 136.096 46.666C136.32 46.666 136.498 46.7295 136.628 46.8564C136.761 46.9834 136.828 47.1429 136.828 47.335C136.828 47.5238 136.761 47.6816 136.628 47.8086C136.498 47.9355 136.32 47.999 136.096 47.999C135.871 47.999 135.692 47.9355 135.559 47.8086C135.428 47.6816 135.363 47.5238 135.363 47.335Z" fill="black" fill-opacity="0.91"/>
</svg>
