<svg width="111" height="33" viewBox="0 0 111 33" fill="none" xmlns="http://www.w3.org/2000/svg">
<path d="M6.20264 4.90542V5.94596H9.5859H12.9692L12.9974 18.0162L13.0396 30.1014L14.0687 30.146L15.0837 30.1906V17.0203V3.86487H10.6432H6.20264V4.90542Z" fill="black"/>
<path d="M16.7753 17.0203V30.1906L17.8044 30.146L18.8194 30.1014L18.8617 18.0162L18.8899 5.94596H22.2731H25.6564V4.90542V3.86487H21.2159H16.7753V17.0203Z" fill="black"/>
<path d="M7.23172 7.5365L2.96036 7.58109V8.62163V9.66217H6.20265H9.44494V17.0946V24.527H10.5022H11.5595V15.9797C11.5595 11.2824 11.5454 7.44731 11.5313 7.46217C11.5031 7.4919 9.57181 7.52163 7.23172 7.5365Z" fill="black"/>
<path d="M20.2996 16.0541V24.527H21.3568H22.4141V17.1243L22.4 9.7365L25.6564 9.6919L28.8987 9.66217V8.62163V7.58109H24.5991H20.2996V16.0541Z" fill="black"/>
<path d="M34.7275 4.02344V9H33.6167V4.02344H34.7275ZM36.2417 4.02344V4.88818H32.1333V4.02344H36.2417ZM35.9272 7.18848V7.1167C35.9272 6.84554 35.966 6.59603 36.0435 6.36816C36.1209 6.13802 36.2349 5.93864 36.3853 5.77002C36.5356 5.6014 36.7202 5.47038 36.939 5.37695C37.1577 5.28125 37.4084 5.2334 37.6909 5.2334C37.978 5.2334 38.231 5.28125 38.4497 5.37695C38.6707 5.47038 38.8564 5.6014 39.0068 5.77002C39.1572 5.93864 39.2712 6.13802 39.3486 6.36816C39.4261 6.59603 39.4648 6.84554 39.4648 7.1167V7.18848C39.4648 7.45736 39.4261 7.70687 39.3486 7.93701C39.2712 8.16488 39.1572 8.36426 39.0068 8.53516C38.8564 8.70378 38.6719 8.8348 38.4531 8.92822C38.2344 9.02165 37.9826 9.06836 37.6978 9.06836C37.4152 9.06836 37.1634 9.02165 36.9424 8.92822C36.7214 8.8348 36.5356 8.70378 36.3853 8.53516C36.2349 8.36426 36.1209 8.16488 36.0435 7.93701C35.966 7.70687 35.9272 7.45736 35.9272 7.18848ZM36.9971 7.1167V7.18848C36.9971 7.33431 37.0085 7.47103 37.0312 7.59863C37.0563 7.72624 37.0962 7.83789 37.1509 7.93359C37.2056 8.0293 37.2773 8.10449 37.3662 8.15918C37.4574 8.21159 37.5679 8.23779 37.6978 8.23779C37.8276 8.23779 37.937 8.21159 38.0259 8.15918C38.1147 8.10449 38.1865 8.0293 38.2412 7.93359C38.2959 7.83789 38.3346 7.72624 38.3574 7.59863C38.3825 7.47103 38.395 7.33431 38.395 7.18848V7.1167C38.395 6.97314 38.3825 6.8387 38.3574 6.71338C38.3346 6.58577 38.2959 6.47298 38.2412 6.375C38.1865 6.27702 38.1136 6.20068 38.0225 6.146C37.9336 6.09131 37.8231 6.06396 37.6909 6.06396C37.5633 6.06396 37.4551 6.09131 37.3662 6.146C37.2773 6.20068 37.2056 6.27702 37.1509 6.375C37.0962 6.47298 37.0563 6.58577 37.0312 6.71338C37.0085 6.8387 36.9971 6.97314 36.9971 7.1167ZM41.9941 7.97119C41.9941 7.90283 41.9725 7.84245 41.9292 7.79004C41.8882 7.73763 41.813 7.68978 41.7036 7.64648C41.5965 7.60319 41.445 7.5599 41.249 7.5166C41.0645 7.47786 40.8924 7.42773 40.7329 7.36621C40.5734 7.30241 40.4344 7.22607 40.3159 7.13721C40.1974 7.04606 40.1051 6.93896 40.0391 6.81592C39.973 6.69059 39.9399 6.54818 39.9399 6.38867C39.9399 6.23372 39.973 6.08675 40.0391 5.94775C40.1074 5.80876 40.2054 5.68571 40.333 5.57861C40.4629 5.47152 40.6201 5.38721 40.8047 5.32568C40.9915 5.26416 41.2035 5.2334 41.4404 5.2334C41.7663 5.2334 42.0477 5.28467 42.2847 5.38721C42.5216 5.48747 42.7039 5.62874 42.8315 5.81104C42.9591 5.99105 43.0229 6.19727 43.0229 6.42969H41.9565C41.9565 6.33398 41.9383 6.25081 41.9019 6.18018C41.8654 6.10954 41.8096 6.05485 41.7344 6.01611C41.6592 5.9751 41.5601 5.95459 41.437 5.95459C41.3413 5.95459 41.257 5.97168 41.1841 6.00586C41.1134 6.03776 41.0576 6.08219 41.0166 6.13916C40.9779 6.19613 40.9585 6.26221 40.9585 6.3374C40.9585 6.38981 40.9699 6.43766 40.9927 6.48096C41.0177 6.52197 41.0553 6.56071 41.1055 6.59717C41.1579 6.63135 41.2251 6.66211 41.3071 6.68945C41.3914 6.7168 41.494 6.743 41.6147 6.76807C41.8722 6.81592 42.1069 6.88314 42.3188 6.96973C42.533 7.05632 42.7039 7.17594 42.8315 7.32861C42.9614 7.48128 43.0264 7.68294 43.0264 7.93359C43.0264 8.09766 42.9888 8.24805 42.9136 8.38477C42.8407 8.52148 42.7347 8.64111 42.5957 8.74365C42.4567 8.84619 42.2904 8.92594 42.0967 8.98291C41.903 9.03988 41.6842 9.06836 41.4404 9.06836C41.0918 9.06836 40.7967 9.0057 40.5552 8.88037C40.3136 8.75505 40.1313 8.59782 40.0083 8.40869C39.8875 8.21729 39.8271 8.02132 39.8271 7.8208H40.8286C40.8332 7.94385 40.8639 8.04411 40.9209 8.12158C40.9801 8.19906 41.0565 8.25602 41.1499 8.29248C41.2433 8.32666 41.3481 8.34375 41.4644 8.34375C41.5806 8.34375 41.6774 8.3278 41.7549 8.2959C41.8324 8.264 41.8916 8.2207 41.9326 8.16602C41.9736 8.10905 41.9941 8.04411 41.9941 7.97119ZM44.6636 3.75V9H43.5972V3.75H44.6636ZM44.5234 7.021L44.2568 7.02783C44.2568 6.76807 44.2887 6.52995 44.3525 6.31348C44.4186 6.09473 44.512 5.90446 44.6328 5.74268C44.7536 5.58089 44.8983 5.45557 45.0669 5.3667C45.2378 5.27783 45.4258 5.2334 45.6309 5.2334C45.8132 5.2334 45.9795 5.2596 46.1299 5.31201C46.2803 5.36442 46.4102 5.44759 46.5195 5.56152C46.6289 5.67546 46.7132 5.82471 46.7725 6.00928C46.8317 6.19385 46.8613 6.41829 46.8613 6.68262V9H45.7881V6.67578C45.7881 6.51855 45.7653 6.39551 45.7197 6.30664C45.6764 6.21777 45.6126 6.15511 45.5283 6.11865C45.4463 6.08219 45.346 6.06396 45.2275 6.06396C45.0885 6.06396 44.9735 6.08903 44.8823 6.13916C44.7912 6.18701 44.7194 6.25423 44.667 6.34082C44.6146 6.42741 44.577 6.52881 44.5542 6.64502C44.5337 6.76123 44.5234 6.88656 44.5234 7.021ZM48.6318 3.74658V9H47.562V3.74658H48.6318ZM50.98 5.30176L49.3701 7.16113L48.519 8.01562L48.0918 7.29443L48.7822 6.40234L49.6948 5.30176H50.98ZM49.8521 9L48.8096 7.30127L49.5752 6.70312L51.0757 9H49.8521ZM53.0205 9.06836C52.7266 9.06836 52.4634 9.02165 52.231 8.92822C51.9985 8.8348 51.8014 8.70605 51.6396 8.54199C51.4801 8.37565 51.3582 8.18424 51.2739 7.96777C51.1896 7.7513 51.1475 7.52002 51.1475 7.27393V7.14404C51.1475 6.86833 51.1862 6.61426 51.2637 6.38184C51.3411 6.14941 51.4539 5.94775 51.6021 5.77686C51.7524 5.60368 51.937 5.47038 52.1558 5.37695C52.3745 5.28125 52.624 5.2334 52.9043 5.2334C53.1663 5.2334 53.3999 5.27669 53.605 5.36328C53.8101 5.44759 53.9832 5.5695 54.1245 5.729C54.2658 5.88623 54.3729 6.0765 54.4458 6.2998C54.521 6.52083 54.5586 6.76921 54.5586 7.04492V7.48242H51.5781V6.79541H53.5127V6.71338C53.5127 6.5835 53.4888 6.46956 53.4409 6.37158C53.3953 6.2736 53.327 6.1984 53.2358 6.146C53.147 6.09131 53.0342 6.06396 52.8975 6.06396C52.7676 6.06396 52.6593 6.09131 52.5728 6.146C52.4862 6.20068 52.4167 6.27816 52.3643 6.37842C52.3141 6.4764 52.2777 6.59147 52.2549 6.72363C52.2321 6.85352 52.2207 6.99365 52.2207 7.14404V7.27393C52.2207 7.41748 52.2401 7.5485 52.2788 7.66699C52.3175 7.78548 52.3745 7.88688 52.4497 7.97119C52.5249 8.0555 52.616 8.12158 52.7231 8.16943C52.8302 8.21729 52.9521 8.24121 53.0889 8.24121C53.2575 8.24121 53.4181 8.20931 53.5708 8.14551C53.7235 8.07943 53.8556 7.97689 53.9673 7.83789L54.4663 8.40869C54.3911 8.51807 54.2852 8.62402 54.1484 8.72656C54.014 8.82682 53.8522 8.90885 53.6631 8.97266C53.474 9.03646 53.2598 9.06836 53.0205 9.06836ZM56.124 6.09131V9H55.0542V5.30176H56.0591L56.124 6.09131ZM55.9839 7.021L55.7173 7.02783C55.7173 6.74984 55.7515 6.50033 55.8198 6.2793C55.8882 6.05827 55.985 5.87028 56.1104 5.71533C56.238 5.55811 56.3895 5.43848 56.5649 5.35645C56.7427 5.27441 56.9386 5.2334 57.1528 5.2334C57.326 5.2334 57.4844 5.25846 57.6279 5.30859C57.7715 5.35872 57.8945 5.43962 57.9971 5.55127C58.1019 5.66064 58.1816 5.80648 58.2363 5.98877C58.291 6.16878 58.3184 6.39095 58.3184 6.65527V9H57.2451V6.65186C57.2451 6.49691 57.2235 6.37728 57.1802 6.29297C57.1369 6.20866 57.0731 6.14941 56.9888 6.11523C56.9067 6.08105 56.8065 6.06396 56.688 6.06396C56.5627 6.06396 56.4556 6.08903 56.3667 6.13916C56.2778 6.18701 56.2049 6.25423 56.1479 6.34082C56.091 6.42741 56.0488 6.52881 56.0215 6.64502C55.9964 6.76123 55.9839 6.88656 55.9839 7.021ZM60.8955 5.30176V6.05029H58.7012V5.30176H60.8955ZM59.2036 4.38574H60.2734V7.84131C60.2734 7.94385 60.286 8.02246 60.311 8.07715C60.3361 8.13184 60.3771 8.17057 60.4341 8.19336C60.491 8.21387 60.564 8.22412 60.6528 8.22412C60.7166 8.22412 60.7713 8.22184 60.8169 8.21729C60.8625 8.21273 60.9046 8.20703 60.9434 8.2002V8.97266C60.8522 9.00228 60.7554 9.02507 60.6528 9.04102C60.5503 9.05924 60.4386 9.06836 60.3179 9.06836C60.0877 9.06836 59.8883 9.03076 59.7197 8.95557C59.5534 8.88037 59.4258 8.76188 59.3369 8.6001C59.248 8.43604 59.2036 8.22298 59.2036 7.96094V4.38574ZM65.3047 8.17285V3.75H66.3779V9H65.4141L65.3047 8.17285ZM63.001 7.19531V7.12354C63.001 6.84326 63.0317 6.58805 63.0933 6.35791C63.1571 6.12549 63.2493 5.92611 63.3701 5.75977C63.4932 5.59115 63.6447 5.46126 63.8247 5.37012C64.0047 5.27897 64.2109 5.2334 64.4434 5.2334C64.6576 5.2334 64.8444 5.28125 65.0039 5.37695C65.1634 5.47038 65.299 5.60254 65.4106 5.77344C65.5246 5.94206 65.6169 6.14144 65.6875 6.37158C65.7581 6.59945 65.8117 6.84668 65.8481 7.11328V7.23633C65.814 7.49154 65.7604 7.72965 65.6875 7.95068C65.6169 8.17171 65.5246 8.36654 65.4106 8.53516C65.299 8.7015 65.1623 8.83252 65.0005 8.92822C64.841 9.02165 64.653 9.06836 64.4365 9.06836C64.2041 9.06836 63.9979 9.02165 63.8179 8.92822C63.6401 8.8348 63.4909 8.70378 63.3701 8.53516C63.2493 8.36654 63.1571 8.16829 63.0933 7.94043C63.0317 7.71257 63.001 7.46419 63.001 7.19531ZM64.0674 7.12354V7.19531C64.0674 7.34115 64.0776 7.47673 64.0981 7.60205C64.1209 7.72738 64.1574 7.83789 64.2075 7.93359C64.2576 8.0293 64.3237 8.10449 64.4058 8.15918C64.4878 8.21159 64.5881 8.23779 64.7065 8.23779C64.866 8.23779 64.9971 8.20133 65.0996 8.12842C65.2021 8.05322 65.2796 7.94954 65.332 7.81738C65.3844 7.68522 65.4118 7.53141 65.4141 7.35596V6.99707C65.4141 6.85124 65.3993 6.72021 65.3696 6.604C65.34 6.48779 65.2956 6.38981 65.2363 6.31006C65.1794 6.23031 65.1076 6.16992 65.021 6.12891C64.9344 6.08561 64.8319 6.06396 64.7134 6.06396C64.5972 6.06396 64.498 6.09131 64.416 6.146C64.334 6.1984 64.2668 6.27246 64.2144 6.36816C64.1642 6.46387 64.1266 6.57666 64.1016 6.70654C64.0788 6.83415 64.0674 6.97314 64.0674 7.12354ZM69.0474 8.11816V6.53223C69.0474 6.42057 69.0303 6.32487 68.9961 6.24512C68.9619 6.16536 68.9084 6.1027 68.8354 6.05713C68.7625 6.01156 68.668 5.98877 68.5518 5.98877C68.4538 5.98877 68.3683 6.00586 68.2954 6.04004C68.2248 6.07422 68.1701 6.12321 68.1313 6.18701C68.0949 6.25081 68.0767 6.32943 68.0767 6.42285H67.0103C67.0103 6.25651 67.0479 6.10156 67.123 5.95801C67.1982 5.81445 67.3053 5.68799 67.4443 5.57861C67.5856 5.46924 67.7542 5.38493 67.9502 5.32568C68.1462 5.26416 68.366 5.2334 68.6099 5.2334C68.8993 5.2334 69.1567 5.28239 69.3823 5.38037C69.6102 5.47607 69.7902 5.62077 69.9224 5.81445C70.0545 6.00586 70.1206 6.2474 70.1206 6.53906V8.0874C70.1206 8.31071 70.1331 8.48617 70.1582 8.61377C70.1855 8.7391 70.2243 8.84847 70.2744 8.94189V9H69.1978C69.1476 8.8929 69.11 8.76074 69.085 8.60352C69.0599 8.44401 69.0474 8.28223 69.0474 8.11816ZM69.1807 6.74414L69.1875 7.33203H68.6577C68.5392 7.33203 68.4367 7.34684 68.3501 7.37646C68.2658 7.40609 68.1974 7.4471 68.145 7.49951C68.0926 7.54964 68.0539 7.60889 68.0288 7.67725C68.006 7.74333 67.9946 7.81624 67.9946 7.896C67.9946 7.97119 68.0129 8.03955 68.0493 8.10107C68.0858 8.16032 68.1359 8.20703 68.1997 8.24121C68.2635 8.27539 68.3376 8.29248 68.4219 8.29248C68.5609 8.29248 68.6794 8.26514 68.7773 8.21045C68.8776 8.15576 68.9551 8.08968 69.0098 8.01221C69.0645 7.93245 69.0918 7.8584 69.0918 7.79004L69.3481 8.23438C69.3071 8.32552 69.257 8.42008 69.1978 8.51807C69.1385 8.61377 69.0633 8.70378 68.9722 8.78809C68.881 8.87012 68.7705 8.93734 68.6406 8.98975C68.513 9.04215 68.3592 9.06836 68.1792 9.06836C67.9468 9.06836 67.736 9.02165 67.5469 8.92822C67.3577 8.83252 67.2062 8.7015 67.0923 8.53516C66.9806 8.36882 66.9248 8.17741 66.9248 7.96094C66.9248 7.76725 66.9601 7.59521 67.0308 7.44482C67.1014 7.29443 67.2074 7.16683 67.3486 7.06201C67.4922 6.95719 67.6722 6.87858 67.8887 6.82617C68.1051 6.77148 68.3581 6.74414 68.6475 6.74414H69.1807ZM72.062 8.24463L72.8345 5.30176H73.9556L72.7285 9H72.0552L72.062 8.24463ZM71.563 5.30176L72.332 8.24805L72.3389 9H71.6655L70.4385 5.30176H71.563ZM75.4731 3.75V9H74.4033V3.75H75.4731ZM78.2007 8.11816V6.53223C78.2007 6.42057 78.1836 6.32487 78.1494 6.24512C78.1152 6.16536 78.0617 6.1027 77.9888 6.05713C77.9159 6.01156 77.8213 5.98877 77.7051 5.98877C77.6071 5.98877 77.5216 6.00586 77.4487 6.04004C77.3781 6.07422 77.3234 6.12321 77.2847 6.18701C77.2482 6.25081 77.23 6.32943 77.23 6.42285H76.1636C76.1636 6.25651 76.2012 6.10156 76.2764 5.95801C76.3516 5.81445 76.4587 5.68799 76.5977 5.57861C76.7389 5.46924 76.9076 5.38493 77.1035 5.32568C77.2995 5.26416 77.5194 5.2334 77.7632 5.2334C78.0526 5.2334 78.3101 5.28239 78.5356 5.38037C78.7635 5.47607 78.9435 5.62077 79.0757 5.81445C79.2078 6.00586 79.2739 6.2474 79.2739 6.53906V8.0874C79.2739 8.31071 79.2865 8.48617 79.3115 8.61377C79.3389 8.7391 79.3776 8.84847 79.4277 8.94189V9H78.3511C78.3009 8.8929 78.2633 8.76074 78.2383 8.60352C78.2132 8.44401 78.2007 8.28223 78.2007 8.11816ZM78.334 6.74414L78.3408 7.33203H77.811C77.6925 7.33203 77.59 7.34684 77.5034 7.37646C77.4191 7.40609 77.3507 7.4471 77.2983 7.49951C77.2459 7.54964 77.2072 7.60889 77.1821 7.67725C77.1593 7.74333 77.1479 7.81624 77.1479 7.896C77.1479 7.97119 77.1662 8.03955 77.2026 8.10107C77.2391 8.16032 77.2892 8.20703 77.353 8.24121C77.4168 8.27539 77.4909 8.29248 77.5752 8.29248C77.7142 8.29248 77.8327 8.26514 77.9307 8.21045C78.0309 8.15576 78.1084 8.08968 78.1631 8.01221C78.2178 7.93245 78.2451 7.8584 78.2451 7.79004L78.5015 8.23438C78.4604 8.32552 78.4103 8.42008 78.3511 8.51807C78.2918 8.61377 78.2166 8.70378 78.1255 8.78809C78.0343 8.87012 77.9238 8.93734 77.7939 8.98975C77.6663 9.04215 77.5125 9.06836 77.3325 9.06836C77.1001 9.06836 76.8893 9.02165 76.7002 8.92822C76.5111 8.83252 76.3595 8.7015 76.2456 8.53516C76.134 8.36882 76.0781 8.17741 76.0781 7.96094C76.0781 7.76725 76.1134 7.59521 76.1841 7.44482C76.2547 7.29443 76.3607 7.16683 76.502 7.06201C76.6455 6.95719 76.8255 6.87858 77.042 6.82617C77.2585 6.77148 77.5114 6.74414 77.8008 6.74414H78.334ZM81.8545 5.30176V6.05029H79.6602V5.30176H81.8545ZM80.1626 4.38574H81.2324V7.84131C81.2324 7.94385 81.245 8.02246 81.27 8.07715C81.2951 8.13184 81.3361 8.17057 81.3931 8.19336C81.45 8.21387 81.5229 8.22412 81.6118 8.22412C81.6756 8.22412 81.7303 8.22184 81.7759 8.21729C81.8215 8.21273 81.8636 8.20703 81.9023 8.2002V8.97266C81.8112 9.00228 81.7144 9.02507 81.6118 9.04102C81.5093 9.05924 81.3976 9.06836 81.2769 9.06836C81.0467 9.06836 80.8473 9.03076 80.6787 8.95557C80.5124 8.88037 80.3848 8.76188 80.2959 8.6001C80.207 8.43604 80.1626 8.22298 80.1626 7.96094V4.38574ZM34.2354 13.3018V14.0503H32.041V13.3018H34.2354ZM32.5435 12.3857H33.6133V15.8413C33.6133 15.9438 33.6258 16.0225 33.6509 16.0771C33.6759 16.1318 33.717 16.1706 33.7739 16.1934C33.8309 16.2139 33.9038 16.2241 33.9927 16.2241C34.0565 16.2241 34.1112 16.2218 34.1567 16.2173C34.2023 16.2127 34.2445 16.207 34.2832 16.2002V16.9727C34.1921 17.0023 34.0952 17.0251 33.9927 17.041C33.8901 17.0592 33.7785 17.0684 33.6577 17.0684C33.4276 17.0684 33.2282 17.0308 33.0596 16.9556C32.8932 16.8804 32.7656 16.7619 32.6768 16.6001C32.5879 16.436 32.5435 16.223 32.5435 15.9609V12.3857ZM35.8179 14.1631V17H34.7515V13.3018H35.7529L35.8179 14.1631ZM36.9219 13.2744L36.9048 14.269C36.8592 14.2622 36.8 14.2565 36.7271 14.252C36.6541 14.2451 36.5915 14.2417 36.5391 14.2417C36.4023 14.2417 36.2839 14.2588 36.1836 14.293C36.0856 14.3249 36.0036 14.3727 35.9375 14.4365C35.8737 14.5003 35.8258 14.5801 35.7939 14.6758C35.762 14.7692 35.7461 14.8774 35.7461 15.0005L35.5444 14.9014C35.5444 14.6576 35.5684 14.4342 35.6162 14.2314C35.6641 14.0286 35.7336 13.8532 35.8247 13.7051C35.9159 13.5547 36.0275 13.4385 36.1597 13.3564C36.2918 13.2744 36.4422 13.2334 36.6108 13.2334C36.6655 13.2334 36.7214 13.2368 36.7783 13.2437C36.8353 13.2505 36.8831 13.2607 36.9219 13.2744ZM39.2085 16.1182V14.5322C39.2085 14.4206 39.1914 14.3249 39.1572 14.2451C39.123 14.1654 39.0695 14.1027 38.9966 14.0571C38.9237 14.0116 38.8291 13.9888 38.7129 13.9888C38.6149 13.9888 38.5295 14.0059 38.4565 14.04C38.3859 14.0742 38.3312 14.1232 38.2925 14.187C38.256 14.2508 38.2378 14.3294 38.2378 14.4229H37.1714C37.1714 14.2565 37.209 14.1016 37.2842 13.958C37.3594 13.8145 37.4665 13.688 37.6055 13.5786C37.7467 13.4692 37.9154 13.3849 38.1113 13.3257C38.3073 13.2642 38.5272 13.2334 38.771 13.2334C39.0604 13.2334 39.3179 13.2824 39.5435 13.3804C39.7713 13.4761 39.9513 13.6208 40.0835 13.8145C40.2157 14.0059 40.2817 14.2474 40.2817 14.5391V16.0874C40.2817 16.3107 40.2943 16.4862 40.3193 16.6138C40.3467 16.7391 40.3854 16.8485 40.4355 16.9419V17H39.3589C39.3088 16.8929 39.2712 16.7607 39.2461 16.6035C39.221 16.444 39.2085 16.2822 39.2085 16.1182ZM39.3418 14.7441L39.3486 15.332H38.8188C38.7004 15.332 38.5978 15.3468 38.5112 15.3765C38.4269 15.4061 38.3586 15.4471 38.3062 15.4995C38.2537 15.5496 38.215 15.6089 38.1899 15.6772C38.1672 15.7433 38.1558 15.8162 38.1558 15.896C38.1558 15.9712 38.174 16.0396 38.2104 16.1011C38.2469 16.1603 38.297 16.207 38.3608 16.2412C38.4246 16.2754 38.4987 16.2925 38.583 16.2925C38.722 16.2925 38.8405 16.2651 38.9385 16.2104C39.0387 16.1558 39.1162 16.0897 39.1709 16.0122C39.2256 15.9325 39.2529 15.8584 39.2529 15.79L39.5093 16.2344C39.4683 16.3255 39.4181 16.4201 39.3589 16.5181C39.2996 16.6138 39.2244 16.7038 39.1333 16.7881C39.0422 16.8701 38.9316 16.9373 38.8018 16.9897C38.6742 17.0422 38.5203 17.0684 38.3403 17.0684C38.1079 17.0684 37.8971 17.0216 37.708 16.9282C37.5189 16.8325 37.3674 16.7015 37.2534 16.5352C37.1418 16.3688 37.0859 16.1774 37.0859 15.9609C37.0859 15.7673 37.1213 15.5952 37.1919 15.4448C37.2625 15.2944 37.3685 15.1668 37.5098 15.062C37.6533 14.9572 37.8333 14.8786 38.0498 14.8262C38.2663 14.7715 38.5192 14.7441 38.8086 14.7441H39.3418ZM42.0283 14.0913V17H40.9585V13.3018H41.9634L42.0283 14.0913ZM41.8882 15.021L41.6216 15.0278C41.6216 14.7498 41.6558 14.5003 41.7241 14.2793C41.7925 14.0583 41.8893 13.8703 42.0146 13.7153C42.1423 13.5581 42.2938 13.4385 42.4692 13.3564C42.647 13.2744 42.8429 13.2334 43.0571 13.2334C43.2303 13.2334 43.3887 13.2585 43.5322 13.3086C43.6758 13.3587 43.7988 13.4396 43.9014 13.5513C44.0062 13.6606 44.0859 13.8065 44.1406 13.9888C44.1953 14.1688 44.2227 14.391 44.2227 14.6553V17H43.1494V14.6519C43.1494 14.4969 43.1278 14.3773 43.0845 14.293C43.0412 14.2087 42.9774 14.1494 42.8931 14.1152C42.811 14.0811 42.7108 14.064 42.5923 14.064C42.467 14.064 42.3599 14.089 42.271 14.1392C42.1821 14.187 42.1092 14.2542 42.0522 14.3408C41.9953 14.4274 41.9531 14.5288 41.9258 14.645C41.9007 14.7612 41.8882 14.8866 41.8882 15.021ZM46.8887 15.9712C46.8887 15.9028 46.867 15.8424 46.8237 15.79C46.7827 15.7376 46.7075 15.6898 46.5981 15.6465C46.491 15.6032 46.3395 15.5599 46.1436 15.5166C45.959 15.4779 45.7869 15.4277 45.6274 15.3662C45.4679 15.3024 45.3289 15.2261 45.2104 15.1372C45.092 15.0461 44.9997 14.939 44.9336 14.8159C44.8675 14.6906 44.8345 14.5482 44.8345 14.3887C44.8345 14.2337 44.8675 14.0868 44.9336 13.9478C45.002 13.8088 45.0999 13.6857 45.2275 13.5786C45.3574 13.4715 45.5146 13.3872 45.6992 13.3257C45.8861 13.2642 46.098 13.2334 46.335 13.2334C46.6608 13.2334 46.9422 13.2847 47.1792 13.3872C47.4162 13.4875 47.5985 13.6287 47.7261 13.811C47.8537 13.991 47.9175 14.1973 47.9175 14.4297H46.8511C46.8511 14.334 46.8328 14.2508 46.7964 14.1802C46.7599 14.1095 46.7041 14.0549 46.6289 14.0161C46.5537 13.9751 46.4546 13.9546 46.3315 13.9546C46.2358 13.9546 46.1515 13.9717 46.0786 14.0059C46.008 14.0378 45.9521 14.0822 45.9111 14.1392C45.8724 14.1961 45.853 14.2622 45.853 14.3374C45.853 14.3898 45.8644 14.4377 45.8872 14.481C45.9123 14.522 45.9499 14.5607 46 14.5972C46.0524 14.6313 46.1196 14.6621 46.2017 14.6895C46.286 14.7168 46.3885 14.743 46.5093 14.7681C46.7668 14.8159 47.0015 14.8831 47.2134 14.9697C47.4276 15.0563 47.5985 15.1759 47.7261 15.3286C47.856 15.4813 47.9209 15.6829 47.9209 15.9336C47.9209 16.0977 47.8833 16.248 47.8081 16.3848C47.7352 16.5215 47.6292 16.6411 47.4902 16.7437C47.3512 16.8462 47.1849 16.9259 46.9912 16.9829C46.7975 17.0399 46.5788 17.0684 46.335 17.0684C45.9863 17.0684 45.6912 17.0057 45.4497 16.8804C45.2082 16.755 45.0259 16.5978 44.9028 16.4087C44.7821 16.2173 44.7217 16.0213 44.7217 15.8208H45.7231C45.7277 15.9438 45.7585 16.0441 45.8154 16.1216C45.8747 16.1991 45.951 16.256 46.0444 16.2925C46.1379 16.3267 46.2427 16.3438 46.3589 16.3438C46.4751 16.3438 46.5719 16.3278 46.6494 16.2959C46.7269 16.264 46.7861 16.2207 46.8271 16.166C46.8682 16.109 46.8887 16.0441 46.8887 15.9712ZM49.5854 14.0127V18.4219H48.519V13.3018H49.5137L49.5854 14.0127ZM51.8926 15.1099V15.1816C51.8926 15.4505 51.8618 15.7 51.8003 15.9302C51.7388 16.158 51.6465 16.3574 51.5234 16.5283C51.4027 16.6992 51.2534 16.8325 51.0757 16.9282C50.8979 17.0216 50.6917 17.0684 50.457 17.0684C50.2337 17.0684 50.04 17.0216 49.876 16.9282C49.7142 16.8325 49.5775 16.7004 49.4658 16.5317C49.3564 16.3608 49.2676 16.166 49.1992 15.9473C49.1331 15.7262 49.0819 15.4904 49.0454 15.2397V15.0996C49.0819 14.833 49.1343 14.5858 49.2026 14.3579C49.271 14.13 49.3599 13.9329 49.4692 13.7666C49.5786 13.598 49.7142 13.467 49.876 13.3735C50.0378 13.2801 50.2303 13.2334 50.4536 13.2334C50.686 13.2334 50.8923 13.2778 51.0723 13.3667C51.2523 13.4556 51.4027 13.5832 51.5234 13.7495C51.6465 13.9136 51.7388 14.1107 51.8003 14.3408C51.8618 14.571 51.8926 14.8273 51.8926 15.1099ZM50.8228 15.1816V15.1099C50.8228 14.9595 50.8114 14.8216 50.7886 14.6963C50.7658 14.5687 50.7293 14.4582 50.6792 14.3647C50.6291 14.269 50.563 14.195 50.481 14.1426C50.3989 14.0902 50.2987 14.064 50.1802 14.064C50.0526 14.064 49.9443 14.0845 49.8555 14.1255C49.7666 14.1665 49.6948 14.2269 49.6401 14.3066C49.5854 14.3841 49.5456 14.4798 49.5205 14.5938C49.4977 14.7077 49.4852 14.8376 49.4829 14.9834V15.3594C49.4852 15.5303 49.5091 15.6829 49.5547 15.8174C49.6025 15.9495 49.6766 16.0532 49.7769 16.1284C49.8794 16.2013 50.0161 16.2378 50.187 16.2378C50.3078 16.2378 50.408 16.2116 50.4878 16.1592C50.5698 16.1045 50.6348 16.0282 50.6826 15.9302C50.7327 15.8322 50.7681 15.7194 50.7886 15.5918C50.8114 15.4642 50.8228 15.3275 50.8228 15.1816ZM52.3062 15.1885V15.1167C52.3062 14.8455 52.3449 14.596 52.4224 14.3682C52.4998 14.138 52.6138 13.9386 52.7642 13.77C52.9146 13.6014 53.0991 13.4704 53.3179 13.377C53.5366 13.2812 53.7873 13.2334 54.0698 13.2334C54.3569 13.2334 54.6099 13.2812 54.8286 13.377C55.0496 13.4704 55.2354 13.6014 55.3857 13.77C55.5361 13.9386 55.6501 14.138 55.7275 14.3682C55.805 14.596 55.8438 14.8455 55.8438 15.1167V15.1885C55.8438 15.4574 55.805 15.7069 55.7275 15.937C55.6501 16.1649 55.5361 16.3643 55.3857 16.5352C55.2354 16.7038 55.0508 16.8348 54.832 16.9282C54.6133 17.0216 54.3615 17.0684 54.0767 17.0684C53.7941 17.0684 53.5423 17.0216 53.3213 16.9282C53.1003 16.8348 52.9146 16.7038 52.7642 16.5352C52.6138 16.3643 52.4998 16.1649 52.4224 15.937C52.3449 15.7069 52.3062 15.4574 52.3062 15.1885ZM53.376 15.1167V15.1885C53.376 15.3343 53.3874 15.471 53.4102 15.5986C53.4352 15.7262 53.4751 15.8379 53.5298 15.9336C53.5845 16.0293 53.6562 16.1045 53.7451 16.1592C53.8363 16.2116 53.9468 16.2378 54.0767 16.2378C54.2065 16.2378 54.3159 16.2116 54.4048 16.1592C54.4937 16.1045 54.5654 16.0293 54.6201 15.9336C54.6748 15.8379 54.7135 15.7262 54.7363 15.5986C54.7614 15.471 54.7739 15.3343 54.7739 15.1885V15.1167C54.7739 14.9731 54.7614 14.8387 54.7363 14.7134C54.7135 14.5858 54.6748 14.473 54.6201 14.375C54.5654 14.277 54.4925 14.2007 54.4014 14.146C54.3125 14.0913 54.202 14.064 54.0698 14.064C53.9422 14.064 53.834 14.0913 53.7451 14.146C53.6562 14.2007 53.5845 14.277 53.5298 14.375C53.4751 14.473 53.4352 14.5858 53.4102 14.7134C53.3874 14.8387 53.376 14.9731 53.376 15.1167ZM57.4741 14.1631V17H56.4077V13.3018H57.4092L57.4741 14.1631ZM58.5781 13.2744L58.561 14.269C58.5155 14.2622 58.4562 14.2565 58.3833 14.252C58.3104 14.2451 58.2477 14.2417 58.1953 14.2417C58.0586 14.2417 57.9401 14.2588 57.8398 14.293C57.7419 14.3249 57.6598 14.3727 57.5938 14.4365C57.5299 14.5003 57.4821 14.5801 57.4502 14.6758C57.4183 14.7692 57.4023 14.8774 57.4023 15.0005L57.2007 14.9014C57.2007 14.6576 57.2246 14.4342 57.2725 14.2314C57.3203 14.0286 57.3898 13.8532 57.481 13.7051C57.5721 13.5547 57.6838 13.4385 57.8159 13.3564C57.9481 13.2744 58.0985 13.2334 58.2671 13.2334C58.3218 13.2334 58.3776 13.2368 58.4346 13.2437C58.4915 13.2505 58.5394 13.2607 58.5781 13.2744ZM61.0664 13.3018V14.0503H58.8721V13.3018H61.0664ZM59.3745 12.3857H60.4443V15.8413C60.4443 15.9438 60.4569 16.0225 60.4819 16.0771C60.507 16.1318 60.548 16.1706 60.605 16.1934C60.6619 16.2139 60.7349 16.2241 60.8237 16.2241C60.8875 16.2241 60.9422 16.2218 60.9878 16.2173C61.0334 16.2127 61.0755 16.207 61.1143 16.2002V16.9727C61.0231 17.0023 60.9263 17.0251 60.8237 17.041C60.7212 17.0592 60.6095 17.0684 60.4888 17.0684C60.2586 17.0684 60.0592 17.0308 59.8906 16.9556C59.7243 16.8804 59.5967 16.7619 59.5078 16.6001C59.4189 16.436 59.3745 16.223 59.3745 15.9609V12.3857ZM65.4927 16.1079V13.3018H66.5659V17H65.561L65.4927 16.1079ZM65.6055 15.3525L65.8994 15.3457C65.8994 15.5941 65.8698 15.8231 65.8105 16.0327C65.7536 16.2424 65.667 16.4246 65.5508 16.5796C65.4368 16.7345 65.2944 16.8553 65.1235 16.9419C64.9549 17.0262 64.7578 17.0684 64.5322 17.0684C64.3499 17.0684 64.1825 17.0433 64.0298 16.9932C63.8794 16.9408 63.7495 16.8599 63.6401 16.7505C63.5308 16.6388 63.4465 16.4964 63.3872 16.3232C63.328 16.1478 63.2983 15.9382 63.2983 15.6943V13.3018H64.3647V15.7012C64.3647 15.7969 64.3761 15.8789 64.3989 15.9473C64.424 16.0133 64.457 16.068 64.498 16.1113C64.5413 16.1546 64.5938 16.1865 64.6553 16.207C64.7191 16.2275 64.7886 16.2378 64.8638 16.2378C65.0529 16.2378 65.201 16.1991 65.3081 16.1216C65.4175 16.0418 65.4938 15.9359 65.5371 15.8037C65.5827 15.6693 65.6055 15.5189 65.6055 15.3525ZM68.3057 14.0913V17H67.2358V13.3018H68.2407L68.3057 14.0913ZM68.1655 15.021L67.8989 15.0278C67.8989 14.7498 67.9331 14.5003 68.0015 14.2793C68.0698 14.0583 68.1667 13.8703 68.292 13.7153C68.4196 13.5581 68.5711 13.4385 68.7466 13.3564C68.9243 13.2744 69.1203 13.2334 69.3345 13.2334C69.5076 13.2334 69.666 13.2585 69.8096 13.3086C69.9531 13.3587 70.0762 13.4396 70.1787 13.5513C70.2835 13.6606 70.3633 13.8065 70.418 13.9888C70.4727 14.1688 70.5 14.391 70.5 14.6553V17H69.4268V14.6519C69.4268 14.4969 69.4051 14.3773 69.3618 14.293C69.3185 14.2087 69.2547 14.1494 69.1704 14.1152C69.0884 14.0811 68.9881 14.064 68.8696 14.064C68.7443 14.064 68.6372 14.089 68.5483 14.1392C68.4595 14.187 68.3866 14.2542 68.3296 14.3408C68.2726 14.4274 68.2305 14.5288 68.2031 14.645C68.1781 14.7612 68.1655 14.8866 68.1655 15.021ZM72.3218 13.3018V17H71.252V13.3018H72.3218ZM71.187 12.3447C71.187 12.1898 71.2417 12.0633 71.3511 11.9653C71.4604 11.8651 71.604 11.8149 71.7817 11.8149C71.9595 11.8149 72.103 11.8651 72.2124 11.9653C72.3241 12.0633 72.3799 12.1898 72.3799 12.3447C72.3799 12.4974 72.3241 12.6239 72.2124 12.7241C72.103 12.8221 71.9595 12.8711 71.7817 12.8711C71.604 12.8711 71.4604 12.8221 71.3511 12.7241C71.2417 12.6239 71.187 12.4974 71.187 12.3447ZM74.3862 16.2446L75.1587 13.3018H76.2798L75.0527 17H74.3794L74.3862 16.2446ZM73.8872 13.3018L74.6562 16.248L74.6631 17H73.9897L72.7627 13.3018H73.8872ZM78.3682 17.0684C78.0742 17.0684 77.811 17.0216 77.5786 16.9282C77.3462 16.8348 77.1491 16.7061 76.9873 16.542C76.8278 16.3757 76.7059 16.1842 76.6216 15.9678C76.5373 15.7513 76.4951 15.52 76.4951 15.2739V15.144C76.4951 14.8683 76.5339 14.6143 76.6113 14.3818C76.6888 14.1494 76.8016 13.9478 76.9497 13.7769C77.1001 13.6037 77.2847 13.4704 77.5034 13.377C77.7222 13.2812 77.9717 13.2334 78.252 13.2334C78.514 13.2334 78.7476 13.2767 78.9526 13.3633C79.1577 13.4476 79.3309 13.5695 79.4722 13.729C79.6134 13.8862 79.7205 14.0765 79.7935 14.2998C79.8687 14.5208 79.9062 14.7692 79.9062 15.0449V15.4824H76.9258V14.7954H78.8604V14.7134C78.8604 14.5835 78.8364 14.4696 78.7886 14.3716C78.743 14.2736 78.6746 14.1984 78.5835 14.146C78.4946 14.0913 78.3818 14.064 78.2451 14.064C78.1152 14.064 78.007 14.0913 77.9204 14.146C77.8338 14.2007 77.7643 14.2782 77.7119 14.3784C77.6618 14.4764 77.6253 14.5915 77.6025 14.7236C77.5798 14.8535 77.5684 14.9937 77.5684 15.144V15.2739C77.5684 15.4175 77.5877 15.5485 77.6265 15.667C77.6652 15.7855 77.7222 15.8869 77.7974 15.9712C77.8726 16.0555 77.9637 16.1216 78.0708 16.1694C78.1779 16.2173 78.2998 16.2412 78.4365 16.2412C78.6051 16.2412 78.7658 16.2093 78.9185 16.1455C79.0711 16.0794 79.2033 15.9769 79.3149 15.8379L79.814 16.4087C79.7388 16.5181 79.6328 16.624 79.4961 16.7266C79.3617 16.8268 79.1999 16.9089 79.0107 16.9727C78.8216 17.0365 78.6074 17.0684 78.3682 17.0684ZM81.4956 14.1631V17H80.4292V13.3018H81.4307L81.4956 14.1631ZM82.5996 13.2744L82.5825 14.269C82.5369 14.2622 82.4777 14.2565 82.4048 14.252C82.3319 14.2451 82.2692 14.2417 82.2168 14.2417C82.0801 14.2417 81.9616 14.2588 81.8613 14.293C81.7633 14.3249 81.6813 14.3727 81.6152 14.4365C81.5514 14.5003 81.5036 14.5801 81.4717 14.6758C81.4398 14.7692 81.4238 14.8774 81.4238 15.0005L81.2222 14.9014C81.2222 14.6576 81.2461 14.4342 81.2939 14.2314C81.3418 14.0286 81.4113 13.8532 81.5024 13.7051C81.5936 13.5547 81.7052 13.4385 81.8374 13.3564C81.9696 13.2744 82.12 13.2334 82.2886 13.2334C82.3433 13.2334 82.3991 13.2368 82.4561 13.2437C82.513 13.2505 82.5609 13.2607 82.5996 13.2744ZM85.0059 15.9712C85.0059 15.9028 84.9842 15.8424 84.9409 15.79C84.8999 15.7376 84.8247 15.6898 84.7153 15.6465C84.6082 15.6032 84.4567 15.5599 84.2607 15.5166C84.0762 15.4779 83.9041 15.4277 83.7446 15.3662C83.5851 15.3024 83.4461 15.2261 83.3276 15.1372C83.2091 15.0461 83.1169 14.939 83.0508 14.8159C82.9847 14.6906 82.9517 14.5482 82.9517 14.3887C82.9517 14.2337 82.9847 14.0868 83.0508 13.9478C83.1191 13.8088 83.2171 13.6857 83.3447 13.5786C83.4746 13.4715 83.6318 13.3872 83.8164 13.3257C84.0033 13.2642 84.2152 13.2334 84.4521 13.2334C84.778 13.2334 85.0594 13.2847 85.2964 13.3872C85.5334 13.4875 85.7157 13.6287 85.8433 13.811C85.9709 13.991 86.0347 14.1973 86.0347 14.4297H84.9683C84.9683 14.334 84.95 14.2508 84.9136 14.1802C84.8771 14.1095 84.8213 14.0549 84.7461 14.0161C84.6709 13.9751 84.5718 13.9546 84.4487 13.9546C84.353 13.9546 84.2687 13.9717 84.1958 14.0059C84.1252 14.0378 84.0693 14.0822 84.0283 14.1392C83.9896 14.1961 83.9702 14.2622 83.9702 14.3374C83.9702 14.3898 83.9816 14.4377 84.0044 14.481C84.0295 14.522 84.0671 14.5607 84.1172 14.5972C84.1696 14.6313 84.2368 14.6621 84.3188 14.6895C84.4032 14.7168 84.5057 14.743 84.6265 14.7681C84.884 14.8159 85.1187 14.8831 85.3306 14.9697C85.5448 15.0563 85.7157 15.1759 85.8433 15.3286C85.9731 15.4813 86.0381 15.6829 86.0381 15.9336C86.0381 16.0977 86.0005 16.248 85.9253 16.3848C85.8524 16.5215 85.7464 16.6411 85.6074 16.7437C85.4684 16.8462 85.3021 16.9259 85.1084 16.9829C84.9147 17.0399 84.696 17.0684 84.4521 17.0684C84.1035 17.0684 83.8084 17.0057 83.5669 16.8804C83.3254 16.755 83.1431 16.5978 83.02 16.4087C82.8993 16.2173 82.8389 16.0213 82.8389 15.8208H83.8403C83.8449 15.9438 83.8757 16.0441 83.9326 16.1216C83.9919 16.1991 84.0682 16.256 84.1616 16.2925C84.255 16.3267 84.3599 16.3438 84.4761 16.3438C84.5923 16.3438 84.6891 16.3278 84.7666 16.2959C84.8441 16.264 84.9033 16.2207 84.9443 16.166C84.9854 16.109 85.0059 16.0441 85.0059 15.9712ZM87.7573 13.3018V17H86.6875V13.3018H87.7573ZM86.6226 12.3447C86.6226 12.1898 86.6772 12.0633 86.7866 11.9653C86.896 11.8651 87.0396 11.8149 87.2173 11.8149C87.395 11.8149 87.5386 11.8651 87.6479 11.9653C87.7596 12.0633 87.8154 12.1898 87.8154 12.3447C87.8154 12.4974 87.7596 12.6239 87.6479 12.7241C87.5386 12.8221 87.395 12.8711 87.2173 12.8711C87.0396 12.8711 86.896 12.8221 86.7866 12.7241C86.6772 12.6239 86.6226 12.4974 86.6226 12.3447ZM90.4062 13.3018V14.0503H88.2119V13.3018H90.4062ZM88.7144 12.3857H89.7842V15.8413C89.7842 15.9438 89.7967 16.0225 89.8218 16.0771C89.8468 16.1318 89.8879 16.1706 89.9448 16.1934C90.0018 16.2139 90.0747 16.2241 90.1636 16.2241C90.2274 16.2241 90.2821 16.2218 90.3276 16.2173C90.3732 16.2127 90.4154 16.207 90.4541 16.2002V16.9727C90.363 17.0023 90.2661 17.0251 90.1636 17.041C90.061 17.0592 89.9494 17.0684 89.8286 17.0684C89.5985 17.0684 89.3991 17.0308 89.2305 16.9556C89.0641 16.8804 88.9365 16.7619 88.8477 16.6001C88.7588 16.436 88.7144 16.223 88.7144 15.9609V12.3857ZM92.6621 17.0684C92.3682 17.0684 92.105 17.0216 91.8726 16.9282C91.6401 16.8348 91.443 16.7061 91.2812 16.542C91.1217 16.3757 90.9998 16.1842 90.9155 15.9678C90.8312 15.7513 90.7891 15.52 90.7891 15.2739V15.144C90.7891 14.8683 90.8278 14.6143 90.9053 14.3818C90.9827 14.1494 91.0955 13.9478 91.2437 13.7769C91.394 13.6037 91.5786 13.4704 91.7974 13.377C92.0161 13.2812 92.2656 13.2334 92.5459 13.2334C92.8079 13.2334 93.0415 13.2767 93.2466 13.3633C93.4517 13.4476 93.6248 13.5695 93.7661 13.729C93.9074 13.8862 94.0145 14.0765 94.0874 14.2998C94.1626 14.5208 94.2002 14.7692 94.2002 15.0449V15.4824H91.2197V14.7954H93.1543V14.7134C93.1543 14.5835 93.1304 14.4696 93.0825 14.3716C93.0369 14.2736 92.9686 14.1984 92.8774 14.146C92.7886 14.0913 92.6758 14.064 92.5391 14.064C92.4092 14.064 92.3009 14.0913 92.2144 14.146C92.1278 14.2007 92.0583 14.2782 92.0059 14.3784C91.9557 14.4764 91.9193 14.5915 91.8965 14.7236C91.8737 14.8535 91.8623 14.9937 91.8623 15.144V15.2739C91.8623 15.4175 91.8817 15.5485 91.9204 15.667C91.9591 15.7855 92.0161 15.8869 92.0913 15.9712C92.1665 16.0555 92.2576 16.1216 92.3647 16.1694C92.4718 16.2173 92.5938 16.2412 92.7305 16.2412C92.8991 16.2412 93.0597 16.2093 93.2124 16.1455C93.3651 16.0794 93.4972 15.9769 93.6089 15.8379L94.1079 16.4087C94.0327 16.5181 93.9268 16.624 93.79 16.7266C93.6556 16.8268 93.4938 16.9089 93.3047 16.9727C93.1156 17.0365 92.9014 17.0684 92.6621 17.0684ZM96.5996 13.3018V14.0503H94.4053V13.3018H96.5996ZM94.9077 12.3857H95.9775V15.8413C95.9775 15.9438 95.9901 16.0225 96.0151 16.0771C96.0402 16.1318 96.0812 16.1706 96.1382 16.1934C96.1951 16.2139 96.2681 16.2241 96.3569 16.2241C96.4207 16.2241 96.4754 16.2218 96.521 16.2173C96.5666 16.2127 96.6087 16.207 96.6475 16.2002V16.9727C96.5563 17.0023 96.4595 17.0251 96.3569 17.041C96.2544 17.0592 96.1427 17.0684 96.022 17.0684C95.7918 17.0684 95.5924 17.0308 95.4238 16.9556C95.2575 16.8804 95.1299 16.7619 95.041 16.6001C94.9521 16.436 94.9077 16.223 94.9077 15.9609V12.3857ZM98.2368 13.3018V17H97.167V13.3018H98.2368ZM97.1021 12.3447C97.1021 12.1898 97.1567 12.0633 97.2661 11.9653C97.3755 11.8651 97.519 11.8149 97.6968 11.8149C97.8745 11.8149 98.0181 11.8651 98.1274 11.9653C98.2391 12.0633 98.2949 12.1898 98.2949 12.3447C98.2949 12.4974 98.2391 12.6239 98.1274 12.7241C98.0181 12.8221 97.8745 12.8711 97.6968 12.8711C97.519 12.8711 97.3755 12.8221 97.2661 12.7241C97.1567 12.6239 97.1021 12.4974 97.1021 12.3447Z" fill="black"/>
<path d="M34.5952 23.4727V24H32.8081V23.4727H34.5952ZM33.0107 20.4453V24H32.3394V20.4453H33.0107ZM34.8809 22.7061V22.6548C34.8809 22.4611 34.9085 22.2829 34.9639 22.1201C35.0192 21.9557 35.0998 21.8133 35.2056 21.6929C35.3114 21.5724 35.4408 21.4788 35.5938 21.4121C35.7467 21.3438 35.9209 21.3096 36.1162 21.3096C36.3148 21.3096 36.4906 21.3438 36.6436 21.4121C36.7982 21.4788 36.9284 21.5724 37.0342 21.6929C37.14 21.8133 37.2205 21.9557 37.2759 22.1201C37.3312 22.2829 37.3589 22.4611 37.3589 22.6548V22.7061C37.3589 22.8981 37.3312 23.0763 37.2759 23.2407C37.2205 23.4035 37.14 23.5459 37.0342 23.668C36.9284 23.7884 36.799 23.882 36.646 23.9487C36.493 24.0155 36.318 24.0488 36.1211 24.0488C35.9258 24.0488 35.7508 24.0155 35.5962 23.9487C35.4416 23.882 35.3114 23.7884 35.2056 23.668C35.0998 23.5459 35.0192 23.4035 34.9639 23.2407C34.9085 23.0763 34.8809 22.8981 34.8809 22.7061ZM35.5254 22.6548V22.7061C35.5254 22.8216 35.5368 22.9299 35.5596 23.0308C35.5824 23.1317 35.6174 23.2204 35.6646 23.2969C35.7118 23.3734 35.7728 23.4336 35.8477 23.4775C35.9242 23.5199 36.0153 23.541 36.1211 23.541C36.2253 23.541 36.3148 23.5199 36.3896 23.4775C36.4645 23.4336 36.5256 23.3734 36.5728 23.2969C36.6216 23.2204 36.6574 23.1317 36.6802 23.0308C36.703 22.9299 36.7144 22.8216 36.7144 22.7061V22.6548C36.7144 22.5409 36.703 22.4342 36.6802 22.335C36.6574 22.234 36.6216 22.1453 36.5728 22.0688C36.5256 21.9907 36.4637 21.9297 36.3872 21.8857C36.3123 21.8402 36.222 21.8174 36.1162 21.8174C36.012 21.8174 35.9225 21.8402 35.8477 21.8857C35.7728 21.9297 35.7118 21.9907 35.6646 22.0688C35.6174 22.1453 35.5824 22.234 35.5596 22.335C35.5368 22.4342 35.5254 22.5409 35.5254 22.6548ZM38.4722 20.2476V24H37.8276V20.2476H38.4722ZM40.1274 21.3584L38.9775 22.6499L38.355 23.2822L38.1499 22.7817L38.6309 22.1763L39.3486 21.3584H40.1274ZM39.4683 24L38.6504 22.7695L39.0801 22.3521L40.2153 24H39.4683ZM40.3545 22.7061V22.6548C40.3545 22.4611 40.3822 22.2829 40.4375 22.1201C40.4928 21.9557 40.5734 21.8133 40.6792 21.6929C40.785 21.5724 40.9144 21.4788 41.0674 21.4121C41.2204 21.3438 41.3945 21.3096 41.5898 21.3096C41.7884 21.3096 41.9642 21.3438 42.1172 21.4121C42.2718 21.4788 42.402 21.5724 42.5078 21.6929C42.6136 21.8133 42.6942 21.9557 42.7495 22.1201C42.8049 22.2829 42.8325 22.4611 42.8325 22.6548V22.7061C42.8325 22.8981 42.8049 23.0763 42.7495 23.2407C42.6942 23.4035 42.6136 23.5459 42.5078 23.668C42.402 23.7884 42.2726 23.882 42.1196 23.9487C41.9666 24.0155 41.7917 24.0488 41.5947 24.0488C41.3994 24.0488 41.2244 24.0155 41.0698 23.9487C40.9152 23.882 40.785 23.7884 40.6792 23.668C40.5734 23.5459 40.4928 23.4035 40.4375 23.2407C40.3822 23.0763 40.3545 22.8981 40.3545 22.7061ZM40.999 22.6548V22.7061C40.999 22.8216 41.0104 22.9299 41.0332 23.0308C41.056 23.1317 41.091 23.2204 41.1382 23.2969C41.1854 23.3734 41.2464 23.4336 41.3213 23.4775C41.3978 23.5199 41.4889 23.541 41.5947 23.541C41.6989 23.541 41.7884 23.5199 41.8633 23.4775C41.9382 23.4336 41.9992 23.3734 42.0464 23.2969C42.0952 23.2204 42.131 23.1317 42.1538 23.0308C42.1766 22.9299 42.188 22.8216 42.188 22.7061V22.6548C42.188 22.5409 42.1766 22.4342 42.1538 22.335C42.131 22.234 42.0952 22.1453 42.0464 22.0688C41.9992 21.9907 41.9373 21.9297 41.8608 21.8857C41.786 21.8402 41.6956 21.8174 41.5898 21.8174C41.4857 21.8174 41.3962 21.8402 41.3213 21.8857C41.2464 21.9297 41.1854 21.9907 41.1382 22.0688C41.091 22.1453 41.056 22.234 41.0332 22.335C41.0104 22.4342 40.999 22.5409 40.999 22.6548ZM43.9434 21.9004V24H43.2988V21.3584H43.9067L43.9434 21.9004ZM43.8481 22.584H43.6504C43.6504 22.4001 43.6724 22.2308 43.7163 22.0762C43.7619 21.9215 43.8286 21.7873 43.9165 21.6733C44.0044 21.5578 44.1126 21.4683 44.2412 21.4048C44.3714 21.3413 44.522 21.3096 44.6929 21.3096C44.8117 21.3096 44.9207 21.3275 45.02 21.3633C45.1193 21.3975 45.2048 21.452 45.2764 21.5269C45.3496 21.6001 45.4058 21.6961 45.4448 21.8149C45.4839 21.9321 45.5034 22.0729 45.5034 22.2373V24H44.8589V22.3032C44.8589 22.1795 44.841 22.0827 44.8052 22.0127C44.771 21.9427 44.7214 21.8939 44.6562 21.8662C44.5911 21.8369 44.513 21.8223 44.4219 21.8223C44.321 21.8223 44.2339 21.8426 44.1606 21.8833C44.089 21.9224 44.0296 21.9769 43.9824 22.0469C43.9368 22.1169 43.9027 22.1974 43.8799 22.2886C43.8587 22.3797 43.8481 22.4782 43.8481 22.584ZM45.4546 22.4644L45.1885 22.5132C45.1901 22.3472 45.2129 22.1917 45.2568 22.0469C45.3008 21.9004 45.3651 21.7726 45.4497 21.6636C45.536 21.5529 45.6426 21.4666 45.7695 21.4048C45.8981 21.3413 46.0462 21.3096 46.2139 21.3096C46.3441 21.3096 46.4613 21.3283 46.5654 21.3657C46.6712 21.4015 46.7616 21.4593 46.8364 21.5391C46.9113 21.6172 46.9683 21.7189 47.0073 21.8442C47.048 21.9696 47.0684 22.1226 47.0684 22.3032V24H46.4189V22.3008C46.4189 22.1722 46.401 22.0737 46.3652 22.0054C46.3311 21.937 46.2814 21.8898 46.2163 21.8638C46.1512 21.8361 46.0747 21.8223 45.9868 21.8223C45.8973 21.8223 45.8192 21.8394 45.7524 21.8735C45.6873 21.9061 45.632 21.9517 45.5864 22.0103C45.5425 22.0688 45.5091 22.1372 45.4863 22.2153C45.4652 22.2918 45.4546 22.3748 45.4546 22.4644ZM47.5322 22.7061V22.6548C47.5322 22.4611 47.5599 22.2829 47.6152 22.1201C47.6706 21.9557 47.7511 21.8133 47.8569 21.6929C47.9627 21.5724 48.0921 21.4788 48.2451 21.4121C48.3981 21.3438 48.5723 21.3096 48.7676 21.3096C48.9661 21.3096 49.1419 21.3438 49.2949 21.4121C49.4495 21.4788 49.5798 21.5724 49.6855 21.6929C49.7913 21.8133 49.8719 21.9557 49.9272 22.1201C49.9826 22.2829 50.0103 22.4611 50.0103 22.6548V22.7061C50.0103 22.8981 49.9826 23.0763 49.9272 23.2407C49.8719 23.4035 49.7913 23.5459 49.6855 23.668C49.5798 23.7884 49.4504 23.882 49.2974 23.9487C49.1444 24.0155 48.9694 24.0488 48.7725 24.0488C48.5771 24.0488 48.4022 24.0155 48.2476 23.9487C48.0929 23.882 47.9627 23.7884 47.8569 23.668C47.7511 23.5459 47.6706 23.4035 47.6152 23.2407C47.5599 23.0763 47.5322 22.8981 47.5322 22.7061ZM48.1768 22.6548V22.7061C48.1768 22.8216 48.1882 22.9299 48.2109 23.0308C48.2337 23.1317 48.2687 23.2204 48.3159 23.2969C48.3631 23.3734 48.4242 23.4336 48.499 23.4775C48.5755 23.5199 48.6667 23.541 48.7725 23.541C48.8766 23.541 48.9661 23.5199 49.041 23.4775C49.1159 23.4336 49.1769 23.3734 49.2241 23.2969C49.2729 23.2204 49.3088 23.1317 49.3315 23.0308C49.3543 22.9299 49.3657 22.8216 49.3657 22.7061V22.6548C49.3657 22.5409 49.3543 22.4342 49.3315 22.335C49.3088 22.234 49.2729 22.1453 49.2241 22.0688C49.1769 21.9907 49.1151 21.9297 49.0386 21.8857C48.9637 21.8402 48.8734 21.8174 48.7676 21.8174C48.6634 21.8174 48.5739 21.8402 48.499 21.8857C48.4242 21.9297 48.3631 21.9907 48.3159 22.0688C48.2687 22.1453 48.2337 22.234 48.2109 22.335C48.1882 22.4342 48.1768 22.5409 48.1768 22.6548ZM51.729 21.3584V21.8223H50.2153V21.3584H51.729ZM50.6206 20.709H51.2676V23.2383C51.2676 23.3164 51.2782 23.3766 51.2993 23.4189C51.3205 23.4613 51.3522 23.4897 51.3945 23.5044C51.4368 23.519 51.4873 23.5264 51.5459 23.5264C51.5882 23.5264 51.6273 23.5239 51.6631 23.519C51.6989 23.5142 51.729 23.5093 51.7534 23.5044L51.7559 23.9878C51.7021 24.0057 51.6411 24.0203 51.5728 24.0317C51.506 24.0431 51.4303 24.0488 51.3457 24.0488C51.2008 24.0488 51.0739 24.0244 50.9648 23.9756C50.8558 23.9251 50.7712 23.8446 50.7109 23.7339C50.6507 23.6216 50.6206 23.4735 50.6206 23.2896V20.709ZM52.8423 21.3584V24H52.1953V21.3584H52.8423ZM52.1514 20.6675C52.1514 20.5715 52.1839 20.4917 52.249 20.4282C52.3158 20.3647 52.4053 20.333 52.5176 20.333C52.6299 20.333 52.7186 20.3647 52.7837 20.4282C52.8504 20.4917 52.8838 20.5715 52.8838 20.6675C52.8838 20.7619 52.8504 20.8408 52.7837 20.9043C52.7186 20.9678 52.6299 20.9995 52.5176 20.9995C52.4053 20.9995 52.3158 20.9678 52.249 20.9043C52.1839 20.8408 52.1514 20.7619 52.1514 20.6675ZM54.334 23.5117L54.9492 21.3584H55.623L54.7173 24H54.3071L54.334 23.5117ZM53.8848 21.3584L54.5073 23.5166L54.5293 24H54.1167L53.2085 21.3584H53.8848ZM56.646 20.25V24H55.999V20.25H56.646ZM58.7163 23.4385V22.2202C58.7163 22.1307 58.7008 22.0534 58.6699 21.9883C58.639 21.9232 58.5918 21.8727 58.5283 21.8369C58.4648 21.8011 58.3843 21.7832 58.2866 21.7832C58.2004 21.7832 58.1247 21.7979 58.0596 21.8271C57.9961 21.8564 57.9473 21.8979 57.9131 21.9517C57.8789 22.0037 57.8618 22.064 57.8618 22.1323H57.2148C57.2148 22.0233 57.2409 21.9199 57.293 21.8223C57.3451 21.723 57.4191 21.6351 57.5151 21.5586C57.6128 21.4805 57.7292 21.4194 57.8643 21.3755C58.001 21.3315 58.154 21.3096 58.3232 21.3096C58.5234 21.3096 58.7017 21.3438 58.8579 21.4121C59.0158 21.4788 59.1395 21.5798 59.229 21.7148C59.3201 21.8499 59.3657 22.02 59.3657 22.2251V23.3774C59.3657 23.5093 59.3739 23.6224 59.3901 23.7168C59.408 23.8096 59.4341 23.8901 59.4683 23.9585V24H58.8115C58.7806 23.9333 58.757 23.8486 58.7407 23.7461C58.7244 23.6419 58.7163 23.5394 58.7163 23.4385ZM58.8066 22.3911L58.8115 22.7744H58.4038C58.3029 22.7744 58.2142 22.785 58.1377 22.8062C58.0612 22.8257 57.9985 22.855 57.9497 22.894C57.9009 22.9315 57.8643 22.9771 57.8398 23.0308C57.8154 23.0828 57.8032 23.1423 57.8032 23.209C57.8032 23.2741 57.8179 23.3327 57.8472 23.3848C57.8781 23.4368 57.922 23.4784 57.979 23.5093C58.0376 23.5386 58.106 23.5532 58.1841 23.5532C58.298 23.5532 58.3973 23.5304 58.4819 23.4849C58.5666 23.4377 58.6325 23.3807 58.6797 23.314C58.7269 23.2472 58.7521 23.1838 58.7554 23.1235L58.9409 23.4019C58.9181 23.4686 58.884 23.5394 58.8384 23.6143C58.7928 23.6891 58.7342 23.7591 58.6626 23.8242C58.591 23.8893 58.5047 23.943 58.4038 23.9854C58.3029 24.0277 58.1857 24.0488 58.0522 24.0488C57.8813 24.0488 57.7284 24.0146 57.5933 23.9463C57.4582 23.8779 57.3516 23.7843 57.2734 23.6655C57.1953 23.5467 57.1562 23.4116 57.1562 23.2603C57.1562 23.1203 57.1823 22.9966 57.2344 22.8892C57.2865 22.7817 57.3638 22.6914 57.4663 22.6182C57.5688 22.5433 57.6958 22.4871 57.8472 22.4497C58.0002 22.4106 58.1751 22.3911 58.3721 22.3911H58.8066ZM60.5913 21.8979V24H59.9468V21.3584H60.5571L60.5913 21.8979ZM61.3945 21.3413L61.3848 21.9419C61.349 21.9354 61.3083 21.9305 61.2627 21.9272C61.2188 21.924 61.1772 21.9224 61.1382 21.9224C61.0389 21.9224 60.9518 21.9362 60.877 21.9639C60.8021 21.9899 60.7394 22.0282 60.689 22.0786C60.6401 22.1291 60.6027 22.1909 60.5767 22.2642C60.5506 22.3358 60.536 22.4172 60.5327 22.5083L60.3936 22.4912C60.3936 22.3236 60.4106 22.1681 60.4448 22.0249C60.479 21.8817 60.5286 21.7563 60.5938 21.6489C60.6589 21.5415 60.7402 21.4585 60.8379 21.3999C60.9372 21.3397 61.0511 21.3096 61.1797 21.3096C61.2155 21.3096 61.2537 21.3128 61.2944 21.3193C61.3368 21.3242 61.3701 21.3315 61.3945 21.3413ZM63.8701 23.5117L64.4854 21.3584H65.1592L64.2534 24H63.8433L63.8701 23.5117ZM63.4209 21.3584L64.0435 23.5166L64.0654 24H63.6528L62.7446 21.3584H63.4209ZM66.9146 23.4385V22.2202C66.9146 22.1307 66.8991 22.0534 66.8682 21.9883C66.8372 21.9232 66.79 21.8727 66.7266 21.8369C66.6631 21.8011 66.5825 21.7832 66.4849 21.7832C66.3986 21.7832 66.3229 21.7979 66.2578 21.8271C66.1943 21.8564 66.1455 21.8979 66.1113 21.9517C66.0771 22.0037 66.0601 22.064 66.0601 22.1323H65.4131C65.4131 22.0233 65.4391 21.9199 65.4912 21.8223C65.5433 21.723 65.6174 21.6351 65.7134 21.5586C65.811 21.4805 65.9274 21.4194 66.0625 21.3755C66.1992 21.3315 66.3522 21.3096 66.5215 21.3096C66.7217 21.3096 66.8999 21.3438 67.0562 21.4121C67.214 21.4788 67.3377 21.5798 67.4272 21.7148C67.5184 21.8499 67.564 22.02 67.564 22.2251V23.3774C67.564 23.5093 67.5721 23.6224 67.5884 23.7168C67.6063 23.8096 67.6323 23.8901 67.6665 23.9585V24H67.0098C66.9788 23.9333 66.9552 23.8486 66.939 23.7461C66.9227 23.6419 66.9146 23.5394 66.9146 23.4385ZM67.0049 22.3911L67.0098 22.7744H66.6021C66.5011 22.7744 66.4124 22.785 66.3359 22.8062C66.2594 22.8257 66.1968 22.855 66.1479 22.894C66.0991 22.9315 66.0625 22.9771 66.0381 23.0308C66.0137 23.0828 66.0015 23.1423 66.0015 23.209C66.0015 23.2741 66.0161 23.3327 66.0454 23.3848C66.0763 23.4368 66.1203 23.4784 66.1772 23.5093C66.2358 23.5386 66.3042 23.5532 66.3823 23.5532C66.4963 23.5532 66.5955 23.5304 66.6802 23.4849C66.7648 23.4377 66.8307 23.3807 66.8779 23.314C66.9251 23.2472 66.9504 23.1838 66.9536 23.1235L67.1392 23.4019C67.1164 23.4686 67.0822 23.5394 67.0366 23.6143C66.991 23.6891 66.9325 23.7591 66.8608 23.8242C66.7892 23.8893 66.703 23.943 66.6021 23.9854C66.5011 24.0277 66.384 24.0488 66.2505 24.0488C66.0796 24.0488 65.9266 24.0146 65.7915 23.9463C65.6564 23.8779 65.5498 23.7843 65.4717 23.6655C65.3936 23.5467 65.3545 23.4116 65.3545 23.2603C65.3545 23.1203 65.3805 22.9966 65.4326 22.8892C65.4847 22.7817 65.562 22.6914 65.6646 22.6182C65.7671 22.5433 65.894 22.4871 66.0454 22.4497C66.1984 22.4106 66.3734 22.3911 66.5703 22.3911H67.0049ZM70.0737 20.25V24H69.4268V20.25H70.0737ZM70.5742 22.7061V22.6548C70.5742 22.4611 70.6019 22.2829 70.6572 22.1201C70.7126 21.9557 70.7931 21.8133 70.8989 21.6929C71.0047 21.5724 71.1341 21.4788 71.2871 21.4121C71.4401 21.3438 71.6143 21.3096 71.8096 21.3096C72.0081 21.3096 72.1839 21.3438 72.3369 21.4121C72.4915 21.4788 72.6217 21.5724 72.7275 21.6929C72.8333 21.8133 72.9139 21.9557 72.9692 22.1201C73.0246 22.2829 73.0522 22.4611 73.0522 22.6548V22.7061C73.0522 22.8981 73.0246 23.0763 72.9692 23.2407C72.9139 23.4035 72.8333 23.5459 72.7275 23.668C72.6217 23.7884 72.4924 23.882 72.3394 23.9487C72.1864 24.0155 72.0114 24.0488 71.8145 24.0488C71.6191 24.0488 71.4442 24.0155 71.2896 23.9487C71.1349 23.882 71.0047 23.7884 70.8989 23.668C70.7931 23.5459 70.7126 23.4035 70.6572 23.2407C70.6019 23.0763 70.5742 22.8981 70.5742 22.7061ZM71.2188 22.6548V22.7061C71.2188 22.8216 71.2301 22.9299 71.2529 23.0308C71.2757 23.1317 71.3107 23.2204 71.3579 23.2969C71.4051 23.3734 71.4661 23.4336 71.541 23.4775C71.6175 23.5199 71.7087 23.541 71.8145 23.541C71.9186 23.541 72.0081 23.5199 72.083 23.4775C72.1579 23.4336 72.2189 23.3734 72.2661 23.2969C72.3149 23.2204 72.3507 23.1317 72.3735 23.0308C72.3963 22.9299 72.4077 22.8216 72.4077 22.7061V22.6548C72.4077 22.5409 72.3963 22.4342 72.3735 22.335C72.3507 22.234 72.3149 22.1453 72.2661 22.0688C72.2189 21.9907 72.1571 21.9297 72.0806 21.8857C72.0057 21.8402 71.9154 21.8174 71.8096 21.8174C71.7054 21.8174 71.6159 21.8402 71.541 21.8857C71.4661 21.9297 71.4051 21.9907 71.3579 22.0688C71.3107 22.1453 71.2757 22.234 71.2529 22.335C71.2301 22.4342 71.2188 22.5409 71.2188 22.6548ZM74.1655 20.2476V24H73.521V20.2476H74.1655ZM75.8208 21.3584L74.6709 22.6499L74.0483 23.2822L73.8433 22.7817L74.3242 22.1763L75.042 21.3584H75.8208ZM75.1616 24L74.3438 22.7695L74.7734 22.3521L75.9087 24H75.1616ZM76.0479 22.7061V22.6548C76.0479 22.4611 76.0755 22.2829 76.1309 22.1201C76.1862 21.9557 76.2668 21.8133 76.3726 21.6929C76.4784 21.5724 76.6077 21.4788 76.7607 21.4121C76.9137 21.3438 77.0879 21.3096 77.2832 21.3096C77.4818 21.3096 77.6576 21.3438 77.8105 21.4121C77.9652 21.4788 78.0954 21.5724 78.2012 21.6929C78.307 21.8133 78.3875 21.9557 78.4429 22.1201C78.4982 22.2829 78.5259 22.4611 78.5259 22.6548V22.7061C78.5259 22.8981 78.4982 23.0763 78.4429 23.2407C78.3875 23.4035 78.307 23.5459 78.2012 23.668C78.0954 23.7884 77.966 23.882 77.813 23.9487C77.66 24.0155 77.485 24.0488 77.2881 24.0488C77.0928 24.0488 76.9178 24.0155 76.7632 23.9487C76.6086 23.882 76.4784 23.7884 76.3726 23.668C76.2668 23.5459 76.1862 23.4035 76.1309 23.2407C76.0755 23.0763 76.0479 22.8981 76.0479 22.7061ZM76.6924 22.6548V22.7061C76.6924 22.8216 76.7038 22.9299 76.7266 23.0308C76.7493 23.1317 76.7843 23.2204 76.8315 23.2969C76.8787 23.3734 76.9398 23.4336 77.0146 23.4775C77.0911 23.5199 77.1823 23.541 77.2881 23.541C77.3923 23.541 77.4818 23.5199 77.5566 23.4775C77.6315 23.4336 77.6925 23.3734 77.7397 23.2969C77.7886 23.2204 77.8244 23.1317 77.8472 23.0308C77.87 22.9299 77.8813 22.8216 77.8813 22.7061V22.6548C77.8813 22.5409 77.87 22.4342 77.8472 22.335C77.8244 22.234 77.7886 22.1453 77.7397 22.0688C77.6925 21.9907 77.6307 21.9297 77.5542 21.8857C77.4793 21.8402 77.389 21.8174 77.2832 21.8174C77.179 21.8174 77.0895 21.8402 77.0146 21.8857C76.9398 21.9297 76.8787 21.9907 76.8315 22.0688C76.7843 22.1453 76.7493 22.234 76.7266 22.335C76.7038 22.4342 76.6924 22.5409 76.6924 22.6548ZM79.6367 21.9004V24H78.9922V21.3584H79.6001L79.6367 21.9004ZM79.5415 22.584H79.3438C79.3438 22.4001 79.3657 22.2308 79.4097 22.0762C79.4552 21.9215 79.522 21.7873 79.6099 21.6733C79.6978 21.5578 79.806 21.4683 79.9346 21.4048C80.0648 21.3413 80.2153 21.3096 80.3862 21.3096C80.505 21.3096 80.6141 21.3275 80.7134 21.3633C80.8127 21.3975 80.8981 21.452 80.9697 21.5269C81.043 21.6001 81.0991 21.6961 81.1382 21.8149C81.1772 21.9321 81.1968 22.0729 81.1968 22.2373V24H80.5522V22.3032C80.5522 22.1795 80.5343 22.0827 80.4985 22.0127C80.4644 21.9427 80.4147 21.8939 80.3496 21.8662C80.2845 21.8369 80.2064 21.8223 80.1152 21.8223C80.0143 21.8223 79.9272 21.8426 79.854 21.8833C79.7824 21.9224 79.723 21.9769 79.6758 22.0469C79.6302 22.1169 79.596 22.1974 79.5732 22.2886C79.5521 22.3797 79.5415 22.4782 79.5415 22.584ZM81.1479 22.4644L80.8818 22.5132C80.8835 22.3472 80.9062 22.1917 80.9502 22.0469C80.9941 21.9004 81.0584 21.7726 81.1431 21.6636C81.2293 21.5529 81.3359 21.4666 81.4629 21.4048C81.5915 21.3413 81.7396 21.3096 81.9072 21.3096C82.0374 21.3096 82.1546 21.3283 82.2588 21.3657C82.3646 21.4015 82.4549 21.4593 82.5298 21.5391C82.6047 21.6172 82.6616 21.7189 82.7007 21.8442C82.7414 21.9696 82.7617 22.1226 82.7617 22.3032V24H82.1123V22.3008C82.1123 22.1722 82.0944 22.0737 82.0586 22.0054C82.0244 21.937 81.9748 21.8898 81.9097 21.8638C81.8446 21.8361 81.7681 21.8223 81.6802 21.8223C81.5907 21.8223 81.5125 21.8394 81.4458 21.8735C81.3807 21.9061 81.3254 21.9517 81.2798 22.0103C81.2358 22.0688 81.2025 22.1372 81.1797 22.2153C81.1585 22.2918 81.1479 22.3748 81.1479 22.4644ZM83.2256 22.7061V22.6548C83.2256 22.4611 83.2533 22.2829 83.3086 22.1201C83.3639 21.9557 83.4445 21.8133 83.5503 21.6929C83.6561 21.5724 83.7855 21.4788 83.9385 21.4121C84.0915 21.3438 84.2656 21.3096 84.4609 21.3096C84.6595 21.3096 84.8353 21.3438 84.9883 21.4121C85.1429 21.4788 85.2731 21.5724 85.3789 21.6929C85.4847 21.8133 85.5653 21.9557 85.6206 22.1201C85.6759 22.2829 85.7036 22.4611 85.7036 22.6548V22.7061C85.7036 22.8981 85.6759 23.0763 85.6206 23.2407C85.5653 23.4035 85.4847 23.5459 85.3789 23.668C85.2731 23.7884 85.1437 23.882 84.9907 23.9487C84.8377 24.0155 84.6628 24.0488 84.4658 24.0488C84.2705 24.0488 84.0955 24.0155 83.9409 23.9487C83.7863 23.882 83.6561 23.7884 83.5503 23.668C83.4445 23.5459 83.3639 23.4035 83.3086 23.2407C83.2533 23.0763 83.2256 22.8981 83.2256 22.7061ZM83.8701 22.6548V22.7061C83.8701 22.8216 83.8815 22.9299 83.9043 23.0308C83.9271 23.1317 83.9621 23.2204 84.0093 23.2969C84.0565 23.3734 84.1175 23.4336 84.1924 23.4775C84.2689 23.5199 84.36 23.541 84.4658 23.541C84.57 23.541 84.6595 23.5199 84.7344 23.4775C84.8092 23.4336 84.8703 23.3734 84.9175 23.2969C84.9663 23.2204 85.0021 23.1317 85.0249 23.0308C85.0477 22.9299 85.0591 22.8216 85.0591 22.7061V22.6548C85.0591 22.5409 85.0477 22.4342 85.0249 22.335C85.0021 22.234 84.9663 22.1453 84.9175 22.0688C84.8703 21.9907 84.8084 21.9297 84.7319 21.8857C84.6571 21.8402 84.5667 21.8174 84.4609 21.8174C84.3568 21.8174 84.2673 21.8402 84.1924 21.8857C84.1175 21.9297 84.0565 21.9907 84.0093 22.0688C83.9621 22.1453 83.9271 22.234 83.9043 22.335C83.8815 22.4342 83.8701 22.5409 83.8701 22.6548ZM87.4224 21.3584V21.8223H85.9087V21.3584H87.4224ZM86.314 20.709H86.9609V23.2383C86.9609 23.3164 86.9715 23.3766 86.9927 23.4189C87.0138 23.4613 87.0456 23.4897 87.0879 23.5044C87.1302 23.519 87.1807 23.5264 87.2393 23.5264C87.2816 23.5264 87.3206 23.5239 87.3564 23.519C87.3923 23.5142 87.4224 23.5093 87.4468 23.5044L87.4492 23.9878C87.3955 24.0057 87.3345 24.0203 87.2661 24.0317C87.1994 24.0431 87.1237 24.0488 87.0391 24.0488C86.8942 24.0488 86.7673 24.0244 86.6582 23.9756C86.5492 23.9251 86.4645 23.8446 86.4043 23.7339C86.3441 23.6216 86.314 23.4735 86.314 23.2896V20.709ZM88.5356 21.3584V24H87.8887V21.3584H88.5356ZM87.8447 20.6675C87.8447 20.5715 87.8773 20.4917 87.9424 20.4282C88.0091 20.3647 88.0986 20.333 88.2109 20.333C88.3232 20.333 88.4119 20.3647 88.4771 20.4282C88.5438 20.4917 88.5771 20.5715 88.5771 20.6675C88.5771 20.7619 88.5438 20.8408 88.4771 20.9043C88.4119 20.9678 88.3232 20.9995 88.2109 20.9995C88.0986 20.9995 88.0091 20.9678 87.9424 20.9043C87.8773 20.8408 87.8447 20.7619 87.8447 20.6675ZM90.0273 23.5117L90.6426 21.3584H91.3164L90.4106 24H90.0005L90.0273 23.5117ZM89.5781 21.3584L90.2007 23.5166L90.2227 24H89.8101L88.9019 21.3584H89.5781ZM32.7959 28.3584L33.2671 29.1982L33.7456 28.3584H34.4463L33.6699 29.6523L34.478 31H33.7773L33.272 30.1187L32.7642 31H32.0635L32.8691 29.6523L32.0977 28.3584H32.7959ZM34.6318 29.7061V29.6548C34.6318 29.4611 34.6595 29.2829 34.7148 29.1201C34.7702 28.9557 34.8507 28.8133 34.9565 28.6929C35.0623 28.5724 35.1917 28.4788 35.3447 28.4121C35.4977 28.3438 35.6719 28.3096 35.8672 28.3096C36.0658 28.3096 36.2415 28.3438 36.3945 28.4121C36.5492 28.4788 36.6794 28.5724 36.7852 28.6929C36.891 28.8133 36.9715 28.9557 37.0269 29.1201C37.0822 29.2829 37.1099 29.4611 37.1099 29.6548V29.7061C37.1099 29.8981 37.0822 30.0763 37.0269 30.2407C36.9715 30.4035 36.891 30.5459 36.7852 30.668C36.6794 30.7884 36.55 30.882 36.397 30.9487C36.244 31.0155 36.069 31.0488 35.8721 31.0488C35.6768 31.0488 35.5018 31.0155 35.3472 30.9487C35.1925 30.882 35.0623 30.7884 34.9565 30.668C34.8507 30.5459 34.7702 30.4035 34.7148 30.2407C34.6595 30.0763 34.6318 29.8981 34.6318 29.7061ZM35.2764 29.6548V29.7061C35.2764 29.8216 35.2878 29.9299 35.3105 30.0308C35.3333 30.1317 35.3683 30.2204 35.4155 30.2969C35.4627 30.3734 35.5238 30.4336 35.5986 30.4775C35.6751 30.5199 35.7663 30.541 35.8721 30.541C35.9762 30.541 36.0658 30.5199 36.1406 30.4775C36.2155 30.4336 36.2765 30.3734 36.3237 30.2969C36.3726 30.2204 36.4084 30.1317 36.4312 30.0308C36.4539 29.9299 36.4653 29.8216 36.4653 29.7061V29.6548C36.4653 29.5409 36.4539 29.4342 36.4312 29.335C36.4084 29.234 36.3726 29.1453 36.3237 29.0688C36.2765 28.9907 36.2147 28.9297 36.1382 28.8857C36.0633 28.8402 35.973 28.8174 35.8672 28.8174C35.763 28.8174 35.6735 28.8402 35.5986 28.8857C35.5238 28.9297 35.4627 28.9907 35.4155 29.0688C35.3683 29.1453 35.3333 29.234 35.3105 29.335C35.2878 29.4342 35.2764 29.5409 35.2764 29.6548ZM38.1401 27.25L38.6187 27.9922H38.084L37.4248 27.25H38.1401ZM39.2363 28.3584H39.8857V31.1953C39.8857 31.3825 39.8516 31.5412 39.7832 31.6714C39.7165 31.8016 39.6196 31.9001 39.4927 31.9668C39.3657 32.0335 39.2103 32.0669 39.0264 32.0669C38.9694 32.0669 38.9124 32.0636 38.8555 32.0571C38.7985 32.0506 38.7424 32.04 38.687 32.0254L38.6895 31.5273C38.7253 31.5339 38.7619 31.5387 38.7993 31.542C38.8368 31.5469 38.8742 31.5493 38.9116 31.5493C38.9816 31.5493 39.0402 31.5371 39.0874 31.5127C39.1362 31.4883 39.1729 31.45 39.1973 31.3979C39.2233 31.3459 39.2363 31.2783 39.2363 31.1953V28.3584ZM39.1826 27.6675C39.1826 27.5715 39.2152 27.4917 39.2803 27.4282C39.347 27.3647 39.4365 27.333 39.5488 27.333C39.6611 27.333 39.7498 27.3647 39.8149 27.4282C39.8817 27.4917 39.915 27.5715 39.915 27.6675C39.915 27.7619 39.8817 27.8408 39.8149 27.9043C39.7498 27.9678 39.6611 27.9995 39.5488 27.9995C39.4365 27.9995 39.347 27.9678 39.2803 27.9043C39.2152 27.8408 39.1826 27.7619 39.1826 27.6675ZM41.939 30.4385V29.2202C41.939 29.1307 41.9235 29.0534 41.8926 28.9883C41.8617 28.9232 41.8145 28.8727 41.751 28.8369C41.6875 28.8011 41.6069 28.7832 41.5093 28.7832C41.423 28.7832 41.3473 28.7979 41.2822 28.8271C41.2188 28.8564 41.1699 28.8979 41.1357 28.9517C41.1016 29.0037 41.0845 29.064 41.0845 29.1323H40.4375C40.4375 29.0233 40.4635 28.9199 40.5156 28.8223C40.5677 28.723 40.6418 28.6351 40.7378 28.5586C40.8354 28.4805 40.9518 28.4194 41.0869 28.3755C41.2236 28.3315 41.3766 28.3096 41.5459 28.3096C41.7461 28.3096 41.9243 28.3438 42.0806 28.4121C42.2384 28.4788 42.3621 28.5798 42.4517 28.7148C42.5428 28.8499 42.5884 29.02 42.5884 29.2251V30.3774C42.5884 30.5093 42.5965 30.6224 42.6128 30.7168C42.6307 30.8096 42.6567 30.8901 42.6909 30.9585V31H42.0342C42.0033 30.9333 41.9797 30.8486 41.9634 30.7461C41.9471 30.6419 41.939 30.5394 41.939 30.4385ZM42.0293 29.3911L42.0342 29.7744H41.6265C41.5256 29.7744 41.4368 29.785 41.3604 29.8062C41.2839 29.8257 41.2212 29.855 41.1724 29.894C41.1235 29.9315 41.0869 29.9771 41.0625 30.0308C41.0381 30.0828 41.0259 30.1423 41.0259 30.209C41.0259 30.2741 41.0405 30.3327 41.0698 30.3848C41.1007 30.4368 41.1447 30.4784 41.2017 30.5093C41.2603 30.5386 41.3286 30.5532 41.4067 30.5532C41.5207 30.5532 41.62 30.5304 41.7046 30.4849C41.7892 30.4377 41.8551 30.3807 41.9023 30.314C41.9495 30.2472 41.9748 30.1838 41.978 30.1235L42.1636 30.4019C42.1408 30.4686 42.1066 30.5394 42.061 30.6143C42.0155 30.6891 41.9569 30.7591 41.8853 30.8242C41.8136 30.8893 41.7274 30.943 41.6265 30.9854C41.5256 31.0277 41.4084 31.0488 41.2749 31.0488C41.104 31.0488 40.951 31.0146 40.8159 30.9463C40.6808 30.8779 40.5742 30.7843 40.4961 30.6655C40.418 30.5467 40.3789 30.4116 40.3789 30.2603C40.3789 30.1203 40.4049 29.9966 40.457 29.8892C40.5091 29.7817 40.5864 29.6914 40.689 29.6182C40.7915 29.5433 40.9185 29.4871 41.0698 29.4497C41.2228 29.4106 41.3978 29.3911 41.5947 29.3911H42.0293ZM43.853 27.25V31H43.2061V27.25H43.853ZM45.1519 28.3584V31H44.5049V28.3584H45.1519ZM44.4609 27.6675C44.4609 27.5715 44.4935 27.4917 44.5586 27.4282C44.6253 27.3647 44.7148 27.333 44.8271 27.333C44.9395 27.333 45.0282 27.3647 45.0933 27.4282C45.16 27.4917 45.1934 27.5715 45.1934 27.6675C45.1934 27.7619 45.16 27.8408 45.0933 27.9043C45.0282 27.9678 44.9395 27.9995 44.8271 27.9995C44.7148 27.9995 44.6253 27.9678 44.5586 27.9043C44.4935 27.8408 44.4609 27.7619 44.4609 27.6675ZM47.4468 28.3584H48.0327V30.9194C48.0327 31.1587 47.9806 31.3613 47.8765 31.5273C47.7739 31.695 47.6299 31.8219 47.4443 31.9082C47.2588 31.9961 47.0431 32.04 46.7974 32.04C46.6916 32.04 46.5768 32.0254 46.4531 31.9961C46.3311 31.9668 46.2131 31.9204 46.0991 31.8569C45.9868 31.7951 45.8932 31.7145 45.8184 31.6152L46.1089 31.2344C46.1968 31.3369 46.2961 31.4142 46.4067 31.4663C46.5174 31.52 46.637 31.5469 46.7656 31.5469C46.8958 31.5469 47.0065 31.5225 47.0977 31.4736C47.1904 31.4264 47.2612 31.3564 47.3101 31.2637C47.3605 31.1725 47.3857 31.0602 47.3857 30.9268V28.9614L47.4468 28.3584ZM45.6621 29.7109V29.6597C45.6621 29.4578 45.6865 29.2747 45.7354 29.1104C45.7842 28.9443 45.8542 28.8019 45.9453 28.6831C46.0381 28.5643 46.1496 28.4723 46.2798 28.4072C46.4116 28.3421 46.5597 28.3096 46.7241 28.3096C46.8983 28.3096 47.0448 28.3413 47.1636 28.4048C47.284 28.4683 47.3833 28.5586 47.4614 28.6758C47.5412 28.793 47.603 28.9321 47.647 29.0933C47.6925 29.2528 47.7275 29.4285 47.752 29.6206V29.7598C47.7292 29.9469 47.6925 30.1187 47.6421 30.2749C47.5933 30.4312 47.5282 30.5679 47.4468 30.6851C47.3654 30.8006 47.2645 30.8901 47.144 30.9536C47.0236 31.0171 46.882 31.0488 46.7192 31.0488C46.5565 31.0488 46.41 31.0155 46.2798 30.9487C46.1496 30.882 46.0381 30.7884 45.9453 30.668C45.8542 30.5475 45.7842 30.4059 45.7354 30.2432C45.6865 30.0804 45.6621 29.903 45.6621 29.7109ZM46.3066 29.6597V29.7109C46.3066 29.8249 46.318 29.9315 46.3408 30.0308C46.3636 30.13 46.3986 30.2179 46.4458 30.2944C46.493 30.3693 46.5524 30.4279 46.624 30.4702C46.6956 30.5125 46.7811 30.5337 46.8804 30.5337C47.0138 30.5337 47.1229 30.506 47.2075 30.4507C47.2938 30.3937 47.3589 30.3164 47.4028 30.2188C47.4484 30.1195 47.4777 30.008 47.4907 29.8843V29.501C47.4826 29.4033 47.4647 29.313 47.437 29.23C47.411 29.147 47.3743 29.0754 47.3271 29.0151C47.2799 28.9549 47.2197 28.9077 47.1465 28.8735C47.0732 28.8394 46.9862 28.8223 46.8853 28.8223C46.7876 28.8223 46.7021 28.8442 46.6289 28.8882C46.5557 28.9305 46.4954 28.9899 46.4482 29.0664C46.401 29.1429 46.3652 29.2316 46.3408 29.3325C46.318 29.4334 46.3066 29.5425 46.3066 29.6597ZM49.2974 28.3584V31H48.6504V28.3584H49.2974ZM48.6064 27.6675C48.6064 27.5715 48.639 27.4917 48.7041 27.4282C48.7708 27.3647 48.8604 27.333 48.9727 27.333C49.085 27.333 49.1737 27.3647 49.2388 27.4282C49.3055 27.4917 49.3389 27.5715 49.3389 27.6675C49.3389 27.7619 49.3055 27.8408 49.2388 27.9043C49.1737 27.9678 49.085 27.9995 48.9727 27.9995C48.8604 27.9995 48.7708 27.9678 48.7041 27.9043C48.639 27.8408 48.6064 27.7619 48.6064 27.6675ZM51.8022 27.2476V31H51.1577V27.2476H51.8022ZM53.4575 28.3584L52.3076 29.6499L51.6851 30.2822L51.48 29.7817L51.9609 29.1763L52.6787 28.3584H53.4575ZM52.7983 31L51.9805 29.7695L52.4102 29.3521L53.5454 31H52.7983ZM55.2544 30.4385V29.2202C55.2544 29.1307 55.2389 29.0534 55.208 28.9883C55.1771 28.9232 55.1299 28.8727 55.0664 28.8369C55.0029 28.8011 54.9224 28.7832 54.8247 28.7832C54.7384 28.7832 54.6628 28.7979 54.5977 28.8271C54.5342 28.8564 54.4854 28.8979 54.4512 28.9517C54.417 29.0037 54.3999 29.064 54.3999 29.1323H53.7529C53.7529 29.0233 53.779 28.9199 53.8311 28.8223C53.8831 28.723 53.9572 28.6351 54.0532 28.5586C54.1509 28.4805 54.2673 28.4194 54.4023 28.3755C54.5391 28.3315 54.6921 28.3096 54.8613 28.3096C55.0615 28.3096 55.2397 28.3438 55.396 28.4121C55.5539 28.4788 55.6776 28.5798 55.7671 28.7148C55.8582 28.8499 55.9038 29.02 55.9038 29.2251V30.3774C55.9038 30.5093 55.9119 30.6224 55.9282 30.7168C55.9461 30.8096 55.9722 30.8901 56.0063 30.9585V31H55.3496C55.3187 30.9333 55.2951 30.8486 55.2788 30.7461C55.2625 30.6419 55.2544 30.5394 55.2544 30.4385ZM55.3447 29.3911L55.3496 29.7744H54.9419C54.841 29.7744 54.7523 29.785 54.6758 29.8062C54.5993 29.8257 54.5366 29.855 54.4878 29.894C54.439 29.9315 54.4023 29.9771 54.3779 30.0308C54.3535 30.0828 54.3413 30.1423 54.3413 30.209C54.3413 30.2741 54.356 30.3327 54.3853 30.3848C54.4162 30.4368 54.4601 30.4784 54.5171 30.5093C54.5757 30.5386 54.644 30.5532 54.7222 30.5532C54.8361 30.5532 54.9354 30.5304 55.02 30.4849C55.1047 30.4377 55.1706 30.3807 55.2178 30.314C55.265 30.2472 55.2902 30.1838 55.2935 30.1235L55.479 30.4019C55.4562 30.4686 55.422 30.5394 55.3765 30.6143C55.3309 30.6891 55.2723 30.7591 55.2007 30.8242C55.1291 30.8893 55.0428 30.943 54.9419 30.9854C54.841 31.0277 54.7238 31.0488 54.5903 31.0488C54.4194 31.0488 54.2664 31.0146 54.1313 30.9463C53.9963 30.8779 53.8896 30.7843 53.8115 30.6655C53.7334 30.5467 53.6943 30.4116 53.6943 30.2603C53.6943 30.1203 53.7204 29.9966 53.7725 29.8892C53.8245 29.7817 53.9019 29.6914 54.0044 29.6182C54.1069 29.5433 54.2339 29.4871 54.3853 29.4497C54.5382 29.4106 54.7132 29.3911 54.9102 29.3911H55.3447ZM57.3296 31H56.6802V28.1143C56.6802 27.9157 56.7184 27.7489 56.7949 27.6138C56.8714 27.4771 56.9805 27.3737 57.1221 27.3037C57.2637 27.2337 57.4305 27.1987 57.6226 27.1987C57.686 27.1987 57.7463 27.2028 57.8032 27.2109C57.8618 27.2191 57.9196 27.2305 57.9766 27.2451L57.9644 27.7358C57.9334 27.7277 57.8993 27.722 57.8618 27.7188C57.826 27.7155 57.7861 27.7139 57.7422 27.7139C57.6543 27.7139 57.5794 27.7293 57.5176 27.7603C57.4557 27.7912 57.4085 27.8368 57.376 27.897C57.3451 27.9556 57.3296 28.028 57.3296 28.1143V31ZM57.8643 28.3584V28.8223H56.2822V28.3584H57.8643ZM59.3901 31.0488C59.1899 31.0488 59.0101 31.0163 58.8506 30.9512C58.6911 30.8861 58.5552 30.7957 58.4429 30.6802C58.3322 30.563 58.2467 30.4271 58.1865 30.2725C58.1279 30.1162 58.0986 29.9486 58.0986 29.7695V29.6719C58.0986 29.4684 58.1279 29.2837 58.1865 29.1177C58.2451 28.95 58.3281 28.806 58.4355 28.6855C58.543 28.5651 58.6715 28.4723 58.8213 28.4072C58.971 28.3421 59.1362 28.3096 59.3169 28.3096C59.5041 28.3096 59.6693 28.3413 59.8125 28.4048C59.9557 28.4666 60.0754 28.5545 60.1714 28.6685C60.2674 28.7824 60.3398 28.9191 60.3887 29.0786C60.4375 29.2365 60.4619 29.4115 60.4619 29.6035V29.8745H58.3916V29.4302H59.8271V29.3813C59.8239 29.2788 59.8044 29.1852 59.7686 29.1006C59.7327 29.0143 59.6774 28.946 59.6025 28.8955C59.5277 28.8434 59.4308 28.8174 59.312 28.8174C59.216 28.8174 59.1322 28.8385 59.0605 28.8809C58.9906 28.9215 58.932 28.9801 58.8848 29.0566C58.8392 29.1315 58.805 29.221 58.7822 29.3252C58.7594 29.4294 58.748 29.5449 58.748 29.6719V29.7695C58.748 29.8802 58.7627 29.9827 58.792 30.0771C58.8229 30.1715 58.8677 30.2537 58.9263 30.3237C58.9865 30.3921 59.0581 30.4458 59.1411 30.4849C59.2257 30.5223 59.3218 30.541 59.4292 30.541C59.5643 30.541 59.6864 30.515 59.7954 30.4629C59.9061 30.4092 60.0021 30.3302 60.0835 30.2261L60.4082 30.563C60.3529 30.6444 60.278 30.7225 60.1836 30.7974C60.0908 30.8722 59.9785 30.9333 59.8467 30.9805C59.7148 31.026 59.5627 31.0488 59.3901 31.0488ZM62.4785 30.4385V27.25H63.1279V31H62.542L62.4785 30.4385ZM60.7817 29.7109V29.6597C60.7817 29.4578 60.8045 29.2747 60.8501 29.1104C60.8973 28.9443 60.9657 28.8019 61.0552 28.6831C61.1447 28.5643 61.2529 28.4723 61.3799 28.4072C61.5085 28.3421 61.6541 28.3096 61.8169 28.3096C61.9748 28.3096 62.1123 28.3413 62.2295 28.4048C62.3483 28.4683 62.4492 28.5586 62.5322 28.6758C62.6169 28.793 62.6844 28.9321 62.7349 29.0933C62.7853 29.2528 62.8219 29.4285 62.8447 29.6206V29.7598C62.8219 29.9469 62.7853 30.1187 62.7349 30.2749C62.6844 30.4312 62.6169 30.5679 62.5322 30.6851C62.4492 30.8006 62.3483 30.8901 62.2295 30.9536C62.1107 31.0171 61.9715 31.0488 61.812 31.0488C61.6509 31.0488 61.506 31.0155 61.3774 30.9487C61.2505 30.882 61.1423 30.7884 61.0527 30.668C60.9648 30.5475 60.8973 30.4059 60.8501 30.2432C60.8045 30.0804 60.7817 29.903 60.7817 29.7109ZM61.4287 29.6597V29.7109C61.4287 29.8249 61.4385 29.9315 61.458 30.0308C61.4775 30.13 61.5093 30.2179 61.5532 30.2944C61.5972 30.3693 61.6533 30.4279 61.7217 30.4702C61.7917 30.5125 61.8763 30.5337 61.9756 30.5337C62.1025 30.5337 62.2067 30.506 62.2881 30.4507C62.3711 30.3937 62.4354 30.3164 62.481 30.2188C62.5265 30.1195 62.5558 30.008 62.5688 29.8843V29.501C62.5623 29.4033 62.5452 29.313 62.5176 29.23C62.4915 29.147 62.4541 29.0754 62.4053 29.0151C62.3581 28.9549 62.2995 28.9077 62.2295 28.8735C62.1595 28.8394 62.0765 28.8223 61.9805 28.8223C61.8812 28.8223 61.7965 28.8442 61.7266 28.8882C61.6566 28.9305 61.5996 28.9899 61.5557 29.0664C61.5117 29.1429 61.4792 29.2316 61.458 29.3325C61.4385 29.4334 61.4287 29.5425 61.4287 29.6597ZM64.356 28.8979V31H63.7114V28.3584H64.3218L64.356 28.8979ZM65.1592 28.3413L65.1494 28.9419C65.1136 28.9354 65.0729 28.9305 65.0273 28.9272C64.9834 28.924 64.9419 28.9224 64.9028 28.9224C64.8035 28.9224 64.7165 28.9362 64.6416 28.9639C64.5667 28.9899 64.5041 29.0282 64.4536 29.0786C64.4048 29.1291 64.3674 29.1909 64.3413 29.2642C64.3153 29.3358 64.3006 29.4172 64.2974 29.5083L64.1582 29.4912C64.1582 29.3236 64.1753 29.1681 64.2095 29.0249C64.2437 28.8817 64.2933 28.7563 64.3584 28.6489C64.4235 28.5415 64.5049 28.4585 64.6025 28.3999C64.7018 28.3397 64.8158 28.3096 64.9443 28.3096C64.9801 28.3096 65.0184 28.3128 65.0591 28.3193C65.1014 28.3242 65.1348 28.3315 65.1592 28.3413ZM66.8853 30.4385V29.2202C66.8853 29.1307 66.8698 29.0534 66.8389 28.9883C66.8079 28.9232 66.7607 28.8727 66.6973 28.8369C66.6338 28.8011 66.5532 28.7832 66.4556 28.7832C66.3693 28.7832 66.2936 28.7979 66.2285 28.8271C66.165 28.8564 66.1162 28.8979 66.082 28.9517C66.0479 29.0037 66.0308 29.064 66.0308 29.1323H65.3838C65.3838 29.0233 65.4098 28.9199 65.4619 28.8223C65.514 28.723 65.5881 28.6351 65.6841 28.5586C65.7817 28.4805 65.8981 28.4194 66.0332 28.3755C66.1699 28.3315 66.3229 28.3096 66.4922 28.3096C66.6924 28.3096 66.8706 28.3438 67.0269 28.4121C67.1847 28.4788 67.3084 28.5798 67.3979 28.7148C67.4891 28.8499 67.5347 29.02 67.5347 29.2251V30.3774C67.5347 30.5093 67.5428 30.6224 67.5591 30.7168C67.577 30.8096 67.603 30.8901 67.6372 30.9585V31H66.9805C66.9495 30.9333 66.9259 30.8486 66.9097 30.7461C66.8934 30.6419 66.8853 30.5394 66.8853 30.4385ZM66.9756 29.3911L66.9805 29.7744H66.5728C66.4718 29.7744 66.3831 29.785 66.3066 29.8062C66.2301 29.8257 66.1675 29.855 66.1187 29.894C66.0698 29.9315 66.0332 29.9771 66.0088 30.0308C65.9844 30.0828 65.9722 30.1423 65.9722 30.209C65.9722 30.2741 65.9868 30.3327 66.0161 30.3848C66.047 30.4368 66.091 30.4784 66.1479 30.5093C66.2065 30.5386 66.2749 30.5532 66.353 30.5532C66.467 30.5532 66.5662 30.5304 66.6509 30.4849C66.7355 30.4377 66.8014 30.3807 66.8486 30.314C66.8958 30.2472 66.9211 30.1838 66.9243 30.1235L67.1099 30.4019C67.0871 30.4686 67.0529 30.5394 67.0073 30.6143C66.9618 30.6891 66.9032 30.7591 66.8315 30.8242C66.7599 30.8893 66.6737 30.943 66.5728 30.9854C66.4718 31.0277 66.3547 31.0488 66.2212 31.0488C66.0503 31.0488 65.8973 31.0146 65.7622 30.9463C65.6271 30.8779 65.5205 30.7843 65.4424 30.6655C65.3643 30.5467 65.3252 30.4116 65.3252 30.2603C65.3252 30.1203 65.3512 29.9966 65.4033 29.8892C65.4554 29.7817 65.5327 29.6914 65.6353 29.6182C65.7378 29.5433 65.8647 29.4871 66.0161 29.4497C66.1691 29.4106 66.3441 29.3911 66.541 29.3911H66.9756ZM69.5684 30.2773C69.5684 30.222 69.5537 30.1724 69.5244 30.1284C69.4951 30.0845 69.4398 30.0446 69.3584 30.0088C69.2786 29.9714 69.1615 29.9364 69.0068 29.9038C68.8701 29.8745 68.744 29.8379 68.6284 29.7939C68.5129 29.75 68.4136 29.6971 68.3306 29.6353C68.2476 29.5718 68.1825 29.4977 68.1353 29.4131C68.0897 29.3268 68.0669 29.2275 68.0669 29.1152C68.0669 29.0062 68.0905 28.9036 68.1377 28.8076C68.1849 28.71 68.2533 28.6245 68.3428 28.5513C68.4323 28.4764 68.5413 28.4178 68.6699 28.3755C68.7985 28.3315 68.9434 28.3096 69.1045 28.3096C69.3291 28.3096 69.522 28.3462 69.6831 28.4194C69.8459 28.4927 69.9704 28.5936 70.0566 28.7222C70.1429 28.8491 70.186 28.9924 70.186 29.1519H69.5415C69.5415 29.0819 69.5252 29.0184 69.4927 28.9614C69.4618 28.9045 69.4137 28.8589 69.3486 28.8247C69.2835 28.7889 69.2013 28.771 69.1021 28.771C69.0125 28.771 68.9368 28.7856 68.875 28.8149C68.8148 28.8442 68.7692 28.8825 68.7383 28.9297C68.7074 28.9769 68.6919 29.029 68.6919 29.0859C68.6919 29.1283 68.7 29.1665 68.7163 29.2007C68.7342 29.2332 68.7627 29.2633 68.8018 29.291C68.8408 29.3187 68.8937 29.3439 68.9604 29.3667C69.0288 29.3895 69.1126 29.4115 69.2119 29.4326C69.4089 29.4717 69.5806 29.5238 69.7271 29.5889C69.8752 29.6523 69.9907 29.737 70.0737 29.8428C70.1567 29.9486 70.1982 30.0837 70.1982 30.248C70.1982 30.3652 70.173 30.4727 70.1226 30.5703C70.0721 30.6663 69.9989 30.7502 69.9028 30.8218C69.8068 30.8934 69.6921 30.9495 69.5586 30.9902C69.4251 31.0293 69.2746 31.0488 69.1069 31.0488C68.8644 31.0488 68.6593 31.0057 68.4917 30.9194C68.3241 30.8315 68.1971 30.7209 68.1108 30.5874C68.0246 30.4523 67.9814 30.3123 67.9814 30.1675H68.5991C68.604 30.27 68.6317 30.3522 68.6821 30.4141C68.7326 30.4759 68.7961 30.5207 68.8726 30.5483C68.9507 30.5744 69.0329 30.5874 69.1191 30.5874C69.2168 30.5874 69.299 30.5744 69.3657 30.5483C69.4325 30.5207 69.4829 30.484 69.5171 30.4385C69.5513 30.3913 69.5684 30.3376 69.5684 30.2773ZM71.3726 28.3584V31H70.7256V28.3584H71.3726ZM70.6816 27.6675C70.6816 27.5715 70.7142 27.4917 70.7793 27.4282C70.846 27.3647 70.9355 27.333 71.0479 27.333C71.1602 27.333 71.2489 27.3647 71.314 27.4282C71.3807 27.4917 71.4141 27.5715 71.4141 27.6675C71.4141 27.7619 71.3807 27.8408 71.314 27.9043C71.2489 27.9678 71.1602 27.9995 71.0479 27.9995C70.9355 27.9995 70.846 27.9678 70.7793 27.9043C70.7142 27.8408 70.6816 27.7619 70.6816 27.6675Z" fill="black" fill-opacity="0.91"/>
</svg>
