<svg width="136" height="136" viewBox="0 0 136 136" fill="none" xmlns="http://www.w3.org/2000/svg">
<path d="M26.3612 20.2162V24.5045H40.7401H55.1189L55.2388 74.2487L55.4185 124.054L59.7921 124.238L64.1057 124.422V70.1442V15.9279H45.2335H26.3612V20.2162Z" fill="white"/>
<path d="M71.2952 70.1442V124.422L75.6687 124.238L79.9824 124.054L80.1621 74.2487L80.2819 24.5045H94.6608H109.04V20.2162V15.9279H90.1674H71.2952V70.1442Z" fill="white"/>
<path d="M30.7348 31.0595L12.5815 31.2432V35.5315V39.8198H26.3612H40.141V70.4505V101.081H44.6344H49.1278V65.8559C49.1278 46.4973 49.0678 30.6919 49.0079 30.7532C48.8881 30.8757 40.6802 30.9982 30.7348 31.0595Z" fill="white"/>
<path d="M86.2731 66.1622V101.081H90.7665H95.2599V70.573L95.2 40.1261L109.04 39.9423L122.819 39.8198V35.5315V31.2432H104.546H86.2731V66.1622Z" fill="white"/>
</svg>
